<svg width="24" height="18" viewBox="0 0 24 18" fill="none" xmlns="http://www.w3.org/2000/svg">
<path fill-rule="evenodd" clip-rule="evenodd" d="M23.76 3.88267C23.76 3.88267 23.5253 2.11912 22.806 1.34266C21.8933 0.32301 20.8703 0.318245 20.4015 0.259083C17.043 7.10002e-08 12.0052 0 12.0052 0H11.9948C11.9948 0 6.957 7.10002e-08 3.5985 0.259083C3.129 0.318245 2.10675 0.32301 1.19325 1.34266C0.474 2.11932 0.24 3.88267 0.24 3.88267C0.24 3.88267 0 5.95414 0 8.02462V9.96645C0 12.0377 0.24 14.1084 0.24 14.1084C0.24 14.1084 0.474 15.8719 1.19325 16.6484C2.10675 17.6681 3.306 17.6361 3.84 17.7425C5.76 17.9392 12 18 12 18C12 18 17.043 17.9921 20.4015 17.733C20.8703 17.673 21.8933 17.6683 22.806 16.6486C23.5253 15.8719 23.76 14.1086 23.76 14.1086C23.76 14.1086 24 12.0379 24 9.96645V8.02462C24 5.95414 23.76 3.88267 23.76 3.88267ZM9.522 12.3194L9.52125 5.12885L16.0057 8.73655L9.522 12.3194Z" fill="white"/>
</svg>
