<svg width="18" height="18" viewBox="0 0 18 18" fill="none" xmlns="http://www.w3.org/2000/svg">
<path d="M15.8571 0H2.14286C0.959263 0 0 0.959263 0 2.14286V15.8571C0 17.0407 0.959263 18 2.14286 18H15.8571C17.0407 18 18 17.0407 18 15.8571V2.14286C18 0.959263 17.0407 0 15.8571 0ZM14.4509 12.4286L12.8521 12.4235C12.8521 12.4235 12.8186 12.4286 12.7634 12.4286C12.6345 12.4286 12.3683 12.3951 12.0552 12.1808C11.4944 11.7907 10.9587 10.8214 10.5335 10.8214C10.505 10.8214 10.4782 10.8265 10.4531 10.8348C10.0848 10.9503 9.97266 11.3186 9.97266 11.769C9.97266 11.9263 9.86217 12 9.56083 12H8.73382C7.80804 12 6.91239 11.9782 5.90625 10.8767C4.42299 9.25279 3.03348 6.36496 3.03348 6.36496C3.03348 6.36496 2.95647 6.19754 3.0385 6.09877C3.11551 6.00837 3.29632 6 3.36495 6C3.3817 6 3.39007 6 3.39007 6H5.10435C5.10435 6 5.26339 6.03013 5.37891 6.11551C5.47768 6.18917 5.5279 6.32143 5.5279 6.32143C5.5279 6.32143 5.8192 6.88728 6.18415 7.52511C6.79688 8.5798 7.12667 8.93136 7.36272 8.93136C7.40123 8.93136 7.43973 8.92299 7.47824 8.90123C7.8298 8.7087 7.72768 7.14844 7.72768 7.14844C7.72768 7.14844 7.73103 6.58259 7.54688 6.33482C7.40625 6.13728 7.13505 6.08203 7.01618 6.06362C6.92076 6.0519 7.07645 5.82924 7.28069 5.72545C7.54688 5.59654 7.98884 5.57143 8.51953 5.57143H8.77734C9.2779 5.5798 9.2913 5.6317 9.48884 5.67857C10.0798 5.8192 9.87891 6.37333 9.87891 7.69754C9.87891 8.12109 9.8019 8.71708 10.1049 8.91797C10.1267 8.93136 10.1568 8.93973 10.1953 8.93973C10.3929 8.93973 10.8164 8.68694 11.4944 7.54353C11.8711 6.89063 12.1624 6.24442 12.1624 6.24442C12.1624 6.24442 12.2277 6.12891 12.3265 6.06864C12.4202 6.01339 12.4202 6.01339 12.5441 6.01339H12.5575C12.6948 6.01339 14.0575 6 14.3571 6H14.3906C14.6786 6 14.9397 6.00502 14.9866 6.1808C15.0552 6.44531 14.7773 6.92076 14.0441 7.90681C12.8354 9.52232 12.6981 9.40346 13.7009 10.3376C14.6618 11.2282 14.8594 11.6618 14.8929 11.7171C15.2913 12.3767 14.4509 12.4286 14.4509 12.4286Z" fill="white"/>
</svg>
