<svg width="21" height="16" viewBox="0 0 21 16" fill="none" xmlns="http://www.w3.org/2000/svg">
<path d="M5.21887 3.78113C5.03663 3.59888 4.74115 3.59888 4.55891 3.78113C4.37666 3.96337 4.37666 4.25885 4.55891 4.44109L5.21887 3.78113ZM9.78336 9.00558L10.1133 8.6756L9.78336 9.00558ZM10.8833 9.00558L11.2133 9.33557V9.33557L10.8833 9.00558ZM16.1078 4.44109C16.29 4.25885 16.29 3.96337 16.1078 3.78113C15.9255 3.59888 15.63 3.59888 15.4478 3.78113L16.1078 4.44109ZM4.11199 15.4667H16.5547V14.5333H4.11199V15.4667ZM20.1333 11.8889V4.11111H19.2V11.8889H20.1333ZM16.5556 0.533333H4.11111V1.46667H16.5556V0.533333ZM1.46667 11.8889V4.11111H0.533333V11.8889H1.46667ZM4.11111 0.533333C2.13516 0.533333 0.533333 2.13516 0.533333 4.11111H1.46667C1.46667 2.65062 2.65062 1.46667 4.11111 1.46667V0.533333ZM20.1333 4.11111C20.1333 2.13516 18.5315 0.533333 16.5556 0.533333V1.46667C18.016 1.46667 19.2 2.65062 19.2 4.11111H20.1333ZM16.5547 15.4667C18.5305 15.4667 20.1333 13.865 20.1333 11.8889H19.2C19.2 13.3492 18.0153 14.5333 16.5547 14.5333V15.4667ZM4.11199 14.5333C2.65134 14.5333 1.46667 13.3492 1.46667 11.8889H0.533333C0.533333 13.865 2.13621 15.4667 4.11199 15.4667V14.5333ZM4.55891 4.44109L9.45338 9.33557L10.1133 8.6756L5.21887 3.78113L4.55891 4.44109ZM11.2133 9.33557L16.1078 4.44109L15.4478 3.78113L10.5533 8.6756L11.2133 9.33557ZM9.45338 9.33557C9.93936 9.82155 10.7273 9.82155 11.2133 9.33557L10.5533 8.6756C10.4318 8.7971 10.2348 8.7971 10.1133 8.6756L9.45338 9.33557Z" fill="white"/>
</svg>
