<svg width="13" height="20" viewBox="0 0 13 20" fill="none" xmlns="http://www.w3.org/2000/svg">
<path d="M6.5 14.8C6.16863 14.8 5.9 15.0686 5.9 15.4C5.9 15.7314 6.16863 16 6.5 16V14.8ZM6.50786 16C6.83923 16 7.10786 15.7314 7.10786 15.4C7.10786 15.0686 6.83923 14.8 6.50786 14.8V16ZM2.57143 1.6H10.4286V0.4H2.57143V1.6ZM10.4286 1.6C10.8911 1.6 11.4 2.05814 11.4 2.8H12.6C12.6 1.55364 11.7018 0.4 10.4286 0.4V1.6ZM11.4 2.8V17.2H12.6V2.8H11.4ZM11.4 17.2C11.4 17.9419 10.8911 18.4 10.4286 18.4V19.6C11.7018 19.6 12.6 18.4464 12.6 17.2H11.4ZM10.4286 18.4H2.57143V19.6H10.4286V18.4ZM2.57143 18.4C2.10886 18.4 1.6 17.9419 1.6 17.2H0.4C0.4 18.4464 1.29825 19.6 2.57143 19.6V18.4ZM1.6 17.2V2.8H0.4V17.2H1.6ZM1.6 2.8C1.6 2.05814 2.10886 1.6 2.57143 1.6V0.4C1.29825 0.4 0.4 1.55364 0.4 2.8H1.6ZM6.5 16H6.50786V14.8H6.5V16Z" fill="white"/>
</svg>
