<svg width="16" height="16" viewBox="0 0 16 16" fill="none" xmlns="http://www.w3.org/2000/svg">
<g clip-path="url(#clip0_76_241)">
<path d="M10.333 1.3335H3.66634C1.82539 1.3335 0.333008 2.82588 0.333008 4.66683V11.3335C0.333008 13.1744 1.82539 14.6668 3.66634 14.6668H10.333C12.174 14.6668 13.6663 13.1744 13.6663 11.3335V4.66683C13.6663 2.82588 12.174 1.3335 10.333 1.3335Z" stroke="white" stroke-linecap="round" stroke-linejoin="round"/>
<path d="M9.6668 7.5802C9.74907 8.13503 9.6543 8.70168 9.39597 9.19954C9.13764 9.69741 8.7289 10.1011 8.22788 10.3533C7.72687 10.6055 7.1591 10.6933 6.60532 10.6042C6.05155 10.515 5.53997 10.2536 5.14336 9.85698C4.74674 9.46036 4.48529 8.94878 4.39618 8.39501C4.30707 7.84124 4.39484 7.27346 4.64701 6.77245C4.89919 6.27144 5.30292 5.86269 5.80079 5.60436C6.29865 5.34603 6.8653 5.25126 7.42013 5.33353C7.98608 5.41746 8.51003 5.68118 8.91459 6.08574C9.31916 6.4903 9.58288 7.01425 9.6668 7.5802Z" stroke="white" stroke-linecap="round" stroke-linejoin="round"/>
<path d="M10.667 4.3335H10.6744" stroke="white" stroke-width="2" stroke-linecap="round" stroke-linejoin="round"/>
</g>
<defs>
<clipPath id="clip0_76_241">
<rect width="16" height="16" fill="white"/>
</clipPath>
</defs>
</svg>
