<svg width="17" height="19" viewBox="0 0 17 19" fill="none" xmlns="http://www.w3.org/2000/svg">
<path d="M15.9659 5.08258C15.8818 4.70686 15.7104 4.36262 15.4691 4.08461C15.2278 3.80661 14.9252 3.60469 14.5917 3.49925C13.3734 3.16675 8.50008 3.16675 8.50008 3.16675C8.50008 3.16675 3.62675 3.16675 2.40841 3.53091C2.07496 3.63635 1.77231 3.83827 1.53103 4.11628C1.28975 4.39428 1.11839 4.73853 1.03425 5.11425C0.811273 6.49615 0.702205 7.89799 0.708413 9.30216C0.700465 10.7169 0.80954 12.1294 1.03425 13.5217C1.12701 13.8858 1.30221 14.2169 1.54293 14.4832C1.78365 14.7495 2.08174 14.9418 2.40841 15.0417C3.62675 15.4059 8.50008 15.4059 8.50008 15.4059C8.50008 15.4059 13.3734 15.4059 14.5917 15.0417C14.9252 14.9363 15.2278 14.7344 15.4691 14.4564C15.7104 14.1784 15.8818 13.8341 15.9659 13.4584C16.1872 12.0869 16.2962 10.6958 16.2917 9.30216C16.2997 7.88742 16.1906 6.47488 15.9659 5.08258V5.08258Z" stroke="white" stroke-linecap="round" stroke-linejoin="round"/>
<path d="M6.90625 11.8909L10.9792 9.30213L6.90625 6.71338V11.8909Z" stroke="white" stroke-linecap="round" stroke-linejoin="round"/>
</svg>
