<svg width="18" height="18" viewBox="0 0 18 18" fill="none" xmlns="http://www.w3.org/2000/svg">
<path d="M5.24854 0C2.354 0 0 2.35693 0 5.25146V12.7515C0 15.646 2.35693 18 5.25146 18H12.7515C15.646 18 18 15.6431 18 12.7485V5.24854C18 2.354 15.6431 0 12.7485 0H5.24854ZM14.25 3C14.6646 3 15 3.33545 15 3.75C15 4.16455 14.6646 4.5 14.25 4.5C13.8354 4.5 13.5 4.16455 13.5 3.75C13.5 3.33545 13.8354 3 14.25 3ZM9 4.5C11.4814 4.5 13.5 6.51855 13.5 9C13.5 11.4814 11.4814 13.5 9 13.5C6.51855 13.5 4.5 11.4814 4.5 9C4.5 6.51855 6.51855 4.5 9 4.5ZM9 6C7.34326 6 6 7.34326 6 9C6 10.6567 7.34326 12 9 12C10.6567 12 12 10.6567 12 9C12 7.34326 10.6567 6 9 6Z" fill="white"/>
</svg>
