<svg width="234" height="80" viewBox="0 0 234 80" fill="none" xmlns="http://www.w3.org/2000/svg">
<path d="M100.051 49.7007L101.94 52.6084H100.908L98.7471 49.7666V49.6274L100.908 46.7783H101.94L100.051 49.7007ZM102.468 49.7007L104.357 52.6084H103.325L101.164 49.7666V49.6274L103.325 46.7783H104.357L102.468 49.7007ZM113.652 44.2075H110.224V53.7144H108.825V44.2075H105.405V43.0503H113.652V44.2075ZM117.578 53.8608C116.503 53.8608 115.629 53.5093 114.956 52.8062C114.282 52.0981 113.945 51.1533 113.945 49.9717V49.7227C113.945 48.9365 114.094 48.2358 114.392 47.6206C114.694 47.0005 115.114 46.5171 115.651 46.1704C116.193 45.8188 116.779 45.6431 117.409 45.6431C118.439 45.6431 119.24 45.9824 119.812 46.6611C120.383 47.3398 120.668 48.3115 120.668 49.5762V50.1401H115.3C115.319 50.9214 115.546 51.5537 115.981 52.0371C116.42 52.5156 116.977 52.7549 117.651 52.7549C118.129 52.7549 118.535 52.6572 118.867 52.4619C119.199 52.2666 119.489 52.0078 119.738 51.6855L120.566 52.3301C119.902 53.3506 118.906 53.8608 117.578 53.8608ZM117.409 46.7563C116.862 46.7563 116.403 46.9565 116.032 47.3569C115.661 47.7524 115.432 48.3091 115.344 49.0269H119.313V48.9243C119.274 48.2358 119.089 47.7036 118.757 47.3276C118.425 46.9468 117.976 46.7563 117.409 46.7563ZM128.725 53.7144H127.37V46.9102H123.723V53.7144H122.36V45.7896H128.725V53.7144ZM137.397 45.7896V53.7144H136.035V46.9102H133.339L133.178 49.8765C133.09 51.2388 132.861 52.2129 132.49 52.7988C132.124 53.3848 131.54 53.6899 130.739 53.7144H130.197V52.5205L130.585 52.4912C131.025 52.4424 131.34 52.1885 131.53 51.7295C131.721 51.2705 131.843 50.4209 131.896 49.1807L132.043 45.7896H137.397ZM139.213 49.6787C139.213 48.9023 139.365 48.2041 139.667 47.584C139.975 46.9639 140.4 46.4854 140.942 46.1484C141.489 45.8115 142.111 45.6431 142.81 45.6431C143.889 45.6431 144.76 46.0166 145.424 46.7637C146.093 47.5107 146.428 48.5044 146.428 49.7446V49.8398C146.428 50.6113 146.279 51.3047 145.981 51.9199C145.688 52.5303 145.266 53.0063 144.714 53.3481C144.167 53.6899 143.537 53.8608 142.824 53.8608C141.75 53.8608 140.878 53.4873 140.209 52.7402C139.545 51.9932 139.213 51.0044 139.213 49.7739V49.6787ZM140.576 49.8398C140.576 50.7188 140.778 51.4243 141.184 51.9565C141.594 52.4888 142.141 52.7549 142.824 52.7549C143.513 52.7549 144.06 52.4863 144.465 51.9492C144.87 51.4072 145.073 50.6504 145.073 49.6787C145.073 48.8096 144.865 48.1064 144.45 47.5693C144.04 47.0273 143.493 46.7563 142.81 46.7563C142.141 46.7563 141.601 47.0225 141.191 47.5547C140.781 48.0869 140.576 48.8486 140.576 49.8398ZM150.91 46.7563C150.427 46.7563 150.007 46.9102 149.65 47.2178C149.299 47.5254 149.123 47.8892 149.123 48.3091H147.834C147.834 47.855 147.978 47.4204 148.266 47.0054C148.554 46.5903 148.938 46.2607 149.416 46.0166C149.895 45.7676 150.393 45.6431 150.91 45.6431C151.94 45.6431 152.773 46.0166 153.408 46.7637C154.047 47.5059 154.367 48.4775 154.367 49.6787V49.9058C154.367 50.6479 154.221 51.3267 153.928 51.9419C153.64 52.5522 153.232 53.0259 152.705 53.3628C152.182 53.6948 151.584 53.8608 150.91 53.8608C150.031 53.8608 149.299 53.5874 148.713 53.0405C148.127 52.4937 147.834 51.8125 147.834 50.9971H149.123C149.123 51.4951 149.296 51.915 149.643 52.2568C149.99 52.5938 150.412 52.7622 150.91 52.7622C151.491 52.7622 151.97 52.5376 152.346 52.0884C152.722 51.6392 152.939 51.0215 152.998 50.2354H150.024V49.1221H152.983C152.915 48.4092 152.697 47.8379 152.331 47.4082C151.965 46.9736 151.491 46.7563 150.91 46.7563ZM162.673 53.7144H161.318V50.3306H157.678V53.7144H156.315V45.7896H157.678V49.2246H161.318V45.7896H162.673V53.7144ZM168.144 53.8608C167.07 53.8608 166.196 53.5093 165.522 52.8062C164.848 52.0981 164.511 51.1533 164.511 49.9717V49.7227C164.511 48.9365 164.66 48.2358 164.958 47.6206C165.261 47.0005 165.681 46.5171 166.218 46.1704C166.76 45.8188 167.346 45.6431 167.976 45.6431C169.006 45.6431 169.807 45.9824 170.378 46.6611C170.949 47.3398 171.235 48.3115 171.235 49.5762V50.1401H165.866C165.886 50.9214 166.113 51.5537 166.547 52.0371C166.987 52.5156 167.543 52.7549 168.217 52.7549C168.696 52.7549 169.101 52.6572 169.433 52.4619C169.765 52.2666 170.056 52.0078 170.305 51.6855L171.132 52.3301C170.468 53.3506 169.472 53.8608 168.144 53.8608ZM167.976 46.7563C167.429 46.7563 166.97 46.9565 166.599 47.3569C166.228 47.7524 165.998 48.3091 165.91 49.0269H169.88V48.9243C169.841 48.2358 169.655 47.7036 169.323 47.3276C168.991 46.9468 168.542 46.7563 167.976 46.7563ZM179.504 49.8398C179.504 51.0459 179.228 52.0176 178.676 52.7549C178.125 53.4922 177.377 53.8608 176.435 53.8608C175.473 53.8608 174.716 53.5557 174.165 52.9453V56.7612H172.81V45.7896H174.047L174.113 46.6685C174.665 45.9849 175.432 45.6431 176.413 45.6431C177.365 45.6431 178.117 46.002 178.669 46.7197C179.226 47.4375 179.504 48.436 179.504 49.7153V49.8398ZM178.149 49.686C178.149 48.7925 177.958 48.0869 177.578 47.5693C177.197 47.0518 176.674 46.793 176.01 46.793C175.19 46.793 174.575 47.1567 174.165 47.8843V51.6709C174.57 52.3936 175.19 52.7549 176.025 52.7549C176.674 52.7549 177.189 52.4985 177.57 51.9858C177.956 51.4683 178.149 50.7017 178.149 49.686ZM186.352 46.9102H182.697V53.7144H181.335V45.7896H186.352V46.9102ZM190.673 53.8608C189.599 53.8608 188.725 53.5093 188.051 52.8062C187.377 52.0981 187.041 51.1533 187.041 49.9717V49.7227C187.041 48.9365 187.189 48.2358 187.487 47.6206C187.79 47.0005 188.21 46.5171 188.747 46.1704C189.289 45.8188 189.875 45.6431 190.505 45.6431C191.535 45.6431 192.336 45.9824 192.907 46.6611C193.479 47.3398 193.764 48.3115 193.764 49.5762V50.1401H188.396C188.415 50.9214 188.642 51.5537 189.077 52.0371C189.516 52.5156 190.073 52.7549 190.747 52.7549C191.225 52.7549 191.63 52.6572 191.962 52.4619C192.294 52.2666 192.585 52.0078 192.834 51.6855L193.662 52.3301C192.998 53.3506 192.001 53.8608 190.673 53.8608ZM190.505 46.7563C189.958 46.7563 189.499 46.9565 189.128 47.3569C188.757 47.7524 188.527 48.3091 188.439 49.0269H192.409V48.9243C192.37 48.2358 192.185 47.7036 191.853 47.3276C191.521 46.9468 191.071 46.7563 190.505 46.7563ZM201.14 46.8882H198.481V53.7144H197.126V46.8882H194.519V45.7896H201.14V46.8882ZM207.585 45.7896H208.94V53.7144H207.585V47.9355L203.93 53.7144H202.575V45.7896H203.93V51.5757L207.585 45.7896ZM213.583 50.3379H212.595V53.7144H211.232V45.7896H212.595V49.144H213.481L216.147 45.7896H217.788L214.653 49.5981L218.051 53.7144H216.33L213.583 50.3379ZM224.108 53.7144C224.03 53.5581 223.967 53.2798 223.918 52.8794C223.288 53.5337 222.536 53.8608 221.662 53.8608C220.881 53.8608 220.239 53.6411 219.736 53.2017C219.238 52.7573 218.989 52.1958 218.989 51.5171C218.989 50.6919 219.301 50.0522 219.926 49.5981C220.556 49.1392 221.44 48.9097 222.578 48.9097H223.896V48.2871C223.896 47.8135 223.754 47.4375 223.471 47.1592C223.188 46.876 222.771 46.7344 222.219 46.7344C221.735 46.7344 221.33 46.8564 221.003 47.1006C220.676 47.3447 220.512 47.6401 220.512 47.9868H219.15C219.15 47.5913 219.289 47.2104 219.567 46.8442C219.851 46.4731 220.231 46.1802 220.71 45.9653C221.193 45.7505 221.723 45.6431 222.299 45.6431C223.212 45.6431 223.928 45.8726 224.445 46.3315C224.963 46.7856 225.231 47.4131 225.251 48.2139V51.8613C225.251 52.5889 225.344 53.1675 225.529 53.5972V53.7144H224.108ZM221.86 52.6816C222.285 52.6816 222.688 52.5718 223.068 52.3521C223.449 52.1323 223.725 51.8467 223.896 51.4951V49.8691H222.834C221.174 49.8691 220.344 50.355 220.344 51.3267C220.344 51.7515 220.485 52.0835 220.769 52.3228C221.052 52.562 221.416 52.6816 221.86 52.6816ZM228.137 46.7637L230.297 49.6128V49.752L228.137 52.6011H227.097L228.986 49.686L227.097 46.7637H228.137ZM230.693 46.7637L232.854 49.6128V49.752L230.693 52.6011H229.653L231.542 49.686L229.653 46.7637H230.693Z" fill="#2E2E2E"/>
<path d="M101.205 30.168H100.168V34H99.043V25.4688H100.168V29.2305H101.047L104.029 25.4688H105.43L102.172 29.6055L105.67 34H104.293L101.205 30.168ZM110.445 34C110.383 33.875 110.332 33.6523 110.293 33.332C109.789 33.8555 109.188 34.1172 108.488 34.1172C107.863 34.1172 107.35 33.9414 106.947 33.5898C106.549 33.2344 106.35 32.7852 106.35 32.2422C106.35 31.582 106.6 31.0703 107.1 30.707C107.604 30.3398 108.311 30.1562 109.221 30.1562H110.275V29.6582C110.275 29.2793 110.162 28.9785 109.936 28.7559C109.709 28.5293 109.375 28.416 108.934 28.416C108.547 28.416 108.223 28.5137 107.961 28.709C107.699 28.9043 107.568 29.1406 107.568 29.418H106.479C106.479 29.1016 106.59 28.7969 106.812 28.5039C107.039 28.207 107.344 27.9727 107.727 27.8008C108.113 27.6289 108.537 27.543 108.998 27.543C109.729 27.543 110.301 27.7266 110.715 28.0938C111.129 28.457 111.344 28.959 111.359 29.5996V32.5176C111.359 33.0996 111.434 33.5625 111.582 33.9062V34H110.445ZM108.646 33.1738C108.986 33.1738 109.309 33.0859 109.613 32.9102C109.918 32.7344 110.139 32.5059 110.275 32.2246V30.9238H109.426C108.098 30.9238 107.434 31.3125 107.434 32.0898C107.434 32.4297 107.547 32.6953 107.773 32.8867C108 33.0781 108.291 33.1738 108.646 33.1738ZM112.824 30.9473C112.824 29.8887 113.029 29.0566 113.439 28.4512C113.85 27.8457 114.412 27.543 115.127 27.543C115.459 27.543 115.75 27.5996 116 27.7129V25H117.084V27.748C117.357 27.6113 117.678 27.543 118.045 27.543C118.764 27.543 119.328 27.8457 119.738 28.4512C120.148 29.0566 120.354 29.9297 120.354 31.0703C120.354 32.0039 120.148 32.7461 119.738 33.2969C119.332 33.8477 118.771 34.123 118.057 34.123C117.678 34.123 117.354 34.0605 117.084 33.9355V36.4375H116V33.9531C115.742 34.0664 115.447 34.123 115.115 34.123C114.404 34.123 113.844 33.8477 113.434 33.2969C113.027 32.7461 112.824 31.9922 112.824 31.0352V30.9473ZM119.27 30.9473C119.27 30.1504 119.133 29.5332 118.859 29.0957C118.586 28.6543 118.209 28.4336 117.729 28.4336C117.482 28.4336 117.268 28.4727 117.084 28.5508V33.1387C117.26 33.2051 117.479 33.2383 117.74 33.2383C118.225 33.2383 118.6 33.0508 118.865 32.6758C119.135 32.3008 119.27 31.7246 119.27 30.9473ZM113.908 31.0703C113.908 31.7812 114.035 32.3203 114.289 32.6875C114.543 33.0547 114.908 33.2383 115.385 33.2383C115.611 33.2383 115.816 33.2031 116 33.1328V28.5332C115.836 28.4668 115.635 28.4336 115.396 28.4336C114.92 28.4336 114.553 28.6465 114.295 29.0723C114.037 29.498 113.908 30.1641 113.908 31.0703ZM124.396 34.1172C123.537 34.1172 122.838 33.8359 122.299 33.2734C121.76 32.707 121.49 31.9512 121.49 31.0059V30.8066C121.49 30.1777 121.609 29.6172 121.848 29.125C122.09 28.6289 122.426 28.2422 122.855 27.9648C123.289 27.6836 123.758 27.543 124.262 27.543C125.086 27.543 125.727 27.8145 126.184 28.3574C126.641 28.9004 126.869 29.6777 126.869 30.6895V31.1406H122.574C122.59 31.7656 122.771 32.2715 123.119 32.6582C123.471 33.041 123.916 33.2324 124.455 33.2324C124.838 33.2324 125.162 33.1543 125.428 32.998C125.693 32.8418 125.926 32.6348 126.125 32.377L126.787 32.8926C126.256 33.709 125.459 34.1172 124.396 34.1172ZM124.262 28.4336C123.824 28.4336 123.457 28.5938 123.16 28.9141C122.863 29.2305 122.68 29.6758 122.609 30.25H125.785V30.168C125.754 29.6172 125.605 29.1914 125.34 28.8906C125.074 28.5859 124.715 28.4336 124.262 28.4336ZM128.076 33.1152L128.451 32.6523C128.873 32.1055 129.113 31.2852 129.172 30.1914L129.271 27.6602H133.355V33.1152H134.17V35.8633H133.086V34H128.662V35.8633H127.578L127.584 33.1152H128.076ZM129.359 33.1152H132.271V28.6621H130.32L130.256 30.1738C130.189 31.4355 129.891 32.416 129.359 33.1152ZM140.727 30.9004C140.727 31.8652 140.506 32.6426 140.064 33.2324C139.623 33.8223 139.025 34.1172 138.271 34.1172C137.502 34.1172 136.896 33.873 136.455 33.3848V36.4375H135.371V27.6602H136.361L136.414 28.3633C136.855 27.8164 137.469 27.543 138.254 27.543C139.016 27.543 139.617 27.8301 140.059 28.4043C140.504 28.9785 140.727 29.7773 140.727 30.8008V30.9004ZM139.643 30.7773C139.643 30.0625 139.49 29.498 139.186 29.084C138.881 28.6699 138.463 28.4629 137.932 28.4629C137.275 28.4629 136.783 28.7539 136.455 29.3359V32.3652C136.779 32.9434 137.275 33.2324 137.943 33.2324C138.463 33.2324 138.875 33.0273 139.18 32.6172C139.488 32.2031 139.643 31.5898 139.643 30.7773ZM146.023 34C145.961 33.875 145.91 33.6523 145.871 33.332C145.367 33.8555 144.766 34.1172 144.066 34.1172C143.441 34.1172 142.928 33.9414 142.525 33.5898C142.127 33.2344 141.928 32.7852 141.928 32.2422C141.928 31.582 142.178 31.0703 142.678 30.707C143.182 30.3398 143.889 30.1562 144.799 30.1562H145.854V29.6582C145.854 29.2793 145.74 28.9785 145.514 28.7559C145.287 28.5293 144.953 28.416 144.512 28.416C144.125 28.416 143.801 28.5137 143.539 28.709C143.277 28.9043 143.146 29.1406 143.146 29.418H142.057C142.057 29.1016 142.168 28.7969 142.391 28.5039C142.617 28.207 142.922 27.9727 143.305 27.8008C143.691 27.6289 144.115 27.543 144.576 27.543C145.307 27.543 145.879 27.7266 146.293 28.0938C146.707 28.457 146.922 28.959 146.938 29.5996V32.5176C146.938 33.0996 147.012 33.5625 147.16 33.9062V34H146.023ZM144.225 33.1738C144.564 33.1738 144.887 33.0859 145.191 32.9102C145.496 32.7344 145.717 32.5059 145.854 32.2246V30.9238H145.004C143.676 30.9238 143.012 31.3125 143.012 32.0898C143.012 32.4297 143.125 32.6953 143.352 32.8867C143.578 33.0781 143.869 33.1738 144.225 33.1738Z" fill="#3F8FD2"/>
<path d="M90 23.1428H89V56.1428H90V23.1428Z" fill="#37322F"/>
<path d="M5.3147 38.696C5.3147 39.2281 5.75763 39.6663 6.29549 39.6663C6.83335 39.6663 7.27631 39.2281 7.27631 38.696C7.27631 38.1639 6.83335 37.7257 6.29549 37.7257C5.74709 37.7257 5.3147 38.1535 5.3147 38.696Z" fill="#37322F"/>
<path d="M40.4344 0C18.1396 0 0 17.9447 0 40C0 62.0553 18.1396 80 40.4344 80C62.7293 80 80.8689 62.0553 80.8689 40C80.8689 17.9447 62.7293 0 40.4344 0ZM40.4344 78.9567C18.7197 78.9567 1.05463 61.4815 1.05463 40C1.05463 18.5185 18.7197 1.0433 40.4344 1.0433C62.1492 1.0433 79.8143 18.5185 79.8143 40C79.8143 61.4815 62.1492 78.9567 40.4344 78.9567Z" fill="#37322F"/>
<path d="M11.7053 39.9687C11.7053 55.6599 24.614 68.4299 40.4756 68.4299C56.3372 68.4299 69.2458 55.6599 69.2458 39.9687C69.2458 24.2775 56.3372 11.5076 40.4756 11.5076C24.614 11.5076 11.7053 24.2775 11.7053 39.9687ZM40.4756 12.6552C55.6939 12.6552 68.0857 24.9035 68.0857 39.9687C68.0857 55.0339 55.7044 67.2822 40.4756 67.2822C25.2467 67.2822 12.8654 55.0339 12.8654 39.9687C12.8654 24.9035 25.2467 12.6552 40.4756 12.6552Z" fill="#37322F"/>
<path d="M9.11091 33.7401C9.14255 33.5314 9.1531 33.3332 9.132 33.1454C9.11091 32.9576 9.05818 32.7907 8.98436 32.6551C8.91053 32.509 8.80506 32.3942 8.6785 32.3003C8.55195 32.2064 8.4043 32.1439 8.23556 32.1126C8.11955 32.0917 8.00354 32.0917 7.88753 32.1126C7.77152 32.1334 7.67661 32.1856 7.5817 32.2482C7.48678 32.3108 7.40241 32.4047 7.32858 32.509C7.25476 32.6237 7.19148 32.7489 7.1493 32.9054H7.13876C7.11766 32.6446 7.03329 32.436 6.90674 32.2795C6.78018 32.123 6.61143 32.0291 6.38996 31.9873C6.11576 31.9456 5.88374 32.0187 5.68336 32.2064C5.49353 32.4047 5.35642 32.7177 5.2826 33.1454L5.04004 34.533L8.84725 35.1799L9.11091 33.7401ZM6.81182 33.6358L6.75909 33.9592L5.79937 33.7923L5.86265 33.4584C5.90483 33.2393 5.95757 33.0828 6.03139 32.9889C6.10522 32.895 6.23177 32.8637 6.38996 32.895C6.56925 32.9263 6.69581 33.0098 6.76963 33.135C6.83291 33.2497 6.84346 33.4271 6.81182 33.6358ZM8.49922 33.7818L8.4254 34.2304L7.34968 34.0531L7.42351 33.6462C7.4657 33.3958 7.5395 33.208 7.65551 33.1037C7.76098 32.9889 7.90864 32.9576 8.09847 32.9889C8.28831 33.0202 8.41486 33.1037 8.47814 33.2393C8.53087 33.3749 8.54141 33.5523 8.49922 33.7818Z" fill="#37322F"/>
<path d="M9.73434 30.9442L7.94148 28.5968C7.8782 28.5133 7.82546 28.4403 7.77273 28.3777C7.72 28.3151 7.67782 28.2734 7.64618 28.2421V28.2317C7.69891 28.2525 7.77274 28.2838 7.86766 28.3151C7.96258 28.3464 8.07858 28.3881 8.20513 28.4194L10.3249 29.0663L10.557 28.3047L6.86575 27.1884L6.59155 28.0647L8.36334 30.3808C8.42661 30.4643 8.47934 30.5373 8.52152 30.5895C8.56371 30.6416 8.6059 30.6834 8.63753 30.7147V30.7251C8.59535 30.7043 8.52152 30.673 8.43715 30.6417C8.35278 30.6104 8.23678 30.5791 8.11022 30.5373L6.02206 29.9009L5.79004 30.6521L9.48124 31.7789L9.73434 30.9442Z" fill="#37322F"/>
<path d="M9.09129 23.7558L8.49016 23.495L7.17188 26.4058L7.773 26.6666L8.25814 25.6024L11.1795 26.8961L11.538 26.1137L8.60617 24.82L9.09129 23.7558Z" fill="#37322F"/>
<path d="M13.4361 22.5873L12.8877 22.2743L12.1178 23.6097L11.253 23.1193L11.9174 21.9717L11.369 21.6587L10.7046 22.8063L9.87142 22.3369L10.5991 21.0954L10.0402 20.7823L8.89062 22.7646L12.2443 24.6634L13.4361 22.5873Z" fill="#37322F"/>
<path d="M14.6381 20.8867C14.7752 20.6989 14.8701 20.5215 14.9334 20.3442C14.9967 20.1668 15.0178 19.9999 15.0072 19.8329C14.9967 19.6765 14.9545 19.52 14.8701 19.3843C14.7858 19.2487 14.6697 19.1235 14.5221 19.0088C14.385 18.9149 14.2373 18.8522 14.0897 18.8209C13.942 18.7896 13.7944 18.8001 13.6468 18.8418C13.4991 18.8836 13.3515 18.9566 13.2038 19.0609C13.0562 19.1652 12.9191 19.3113 12.7925 19.4887L12.3917 20.0416L11.664 19.52L12.6343 18.195L12.1175 17.8298L10.6516 19.8538L13.7839 22.0865L14.6381 20.8867ZM13.1827 19.979C13.3409 19.7704 13.4886 19.6347 13.6257 19.593C13.7628 19.5408 13.921 19.5826 14.0792 19.6973C14.2479 19.8121 14.3217 19.9477 14.3217 20.1042C14.3217 20.2607 14.2373 20.4381 14.0897 20.6467L13.7944 21.0536L12.8874 20.4068L13.1827 19.979Z" fill="#37322F"/>
<path d="M14.2788 18.2993C14.4897 18.4871 14.7217 18.6332 14.9537 18.7166C15.1963 18.8001 15.4283 18.8418 15.6709 18.8209C15.9135 18.8001 16.1455 18.7375 16.388 18.6123C16.6201 18.4871 16.8415 18.3097 17.0524 18.0802C17.3794 17.7255 17.5903 17.3812 17.6958 17.0578L17.179 16.5987C17.1052 16.9221 16.947 17.2247 16.6939 17.5064C16.5568 17.6525 16.4091 17.7672 16.2615 17.8507C16.1138 17.9342 15.9556 17.9759 15.7974 17.9759C15.6392 17.9863 15.4811 17.955 15.3123 17.8924C15.1436 17.8298 14.9959 17.7359 14.8483 17.6003C14.6901 17.4647 14.5741 17.3082 14.4897 17.1517C14.4053 16.9952 14.3631 16.8283 14.3526 16.6613C14.3421 16.4944 14.3737 16.3275 14.437 16.1606C14.5002 15.9936 14.6057 15.8267 14.7428 15.6806C14.9748 15.4303 15.2385 15.2529 15.5443 15.1486L14.9959 14.6582C14.7428 14.7938 14.4686 15.0129 14.1944 15.3155C13.9729 15.5554 13.8147 15.8058 13.7093 16.0667C13.6038 16.3275 13.5511 16.5987 13.5616 16.8595C13.5722 17.1204 13.6355 17.3812 13.7515 17.6212C13.878 17.8716 14.0573 18.0906 14.2788 18.2993Z" fill="#37322F"/>
<path d="M18.8881 16.1921L17.6331 14.7941L17.6436 14.7837C17.6858 14.8045 17.728 14.815 17.7807 14.8254C17.8229 14.8358 17.8651 14.8463 17.8862 14.8567L19.9322 15.2949L20.7021 14.6167L18.2237 14.1368L18.0549 11.8416L17.3378 12.4675L17.5171 14.4289C17.5171 14.4707 17.5276 14.5124 17.5382 14.5646C17.5487 14.6063 17.5487 14.648 17.5593 14.6793L17.5487 14.6898L16.3464 13.3439L15.7031 13.9073L18.2659 16.7659L18.8881 16.1921Z" fill="#37322F"/>
<path d="M21.6203 13.9696L21.7047 11.0275C21.7047 10.9232 21.7047 10.8293 21.7047 10.7458C21.7047 10.6623 21.6942 10.5998 21.6942 10.558L21.7047 10.5476C21.7258 10.5997 21.768 10.6623 21.8207 10.7458C21.8735 10.8293 21.9367 10.9232 22.0105 11.0379L23.2656 12.8533L23.93 12.4046L21.7574 9.25391L20.9981 9.76511L20.9243 12.6655C20.9243 12.7698 20.9243 12.8637 20.9243 12.9263C20.9243 12.9889 20.9243 13.0515 20.9348 13.0932L20.9243 13.1037C20.9032 13.0619 20.861 12.9993 20.8188 12.9159C20.7661 12.8324 20.7028 12.7385 20.629 12.6342L19.4056 10.8501L18.7412 11.2988L20.9137 14.4495L21.6203 13.9696Z" fill="#37322F"/>
<path d="M24.8987 10.4957C24.8882 10.5583 24.8882 10.6209 24.8882 10.6626H24.8776C24.8565 10.6209 24.8354 10.5479 24.7933 10.4644C24.7511 10.3809 24.7089 10.2766 24.6456 10.1618L23.6859 8.2213L22.9688 8.5656L24.6667 11.9981L25.4471 11.6225L25.9534 8.72209C25.9744 8.61776 25.985 8.53429 25.9955 8.45082C26.0061 8.36736 26.0061 8.30477 26.0061 8.26304L26.0166 8.25259C26.0377 8.30476 26.0588 8.3778 26.101 8.46127C26.1432 8.55516 26.1959 8.65948 26.2486 8.77424L27.2295 10.7461L27.9466 10.4018L26.2486 6.96936L25.4155 7.36582L24.9198 10.2349C24.9198 10.3392 24.8987 10.4331 24.8987 10.4957Z" fill="#37322F"/>
<path d="M23.5496 7.35535C23.8027 7.42838 24.0664 7.39709 24.3511 7.2719C24.6148 7.1467 24.8046 6.95889 24.9101 6.69807C25.0156 6.44768 25.0156 6.18684 24.9101 5.90515L24.4672 6.11382C24.5199 6.27032 24.5093 6.40595 24.4566 6.54158C24.4039 6.67721 24.2984 6.77111 24.1613 6.84414C23.8344 7.00064 23.5707 6.93803 23.3914 6.63547L22.9485 6.84414C23.0961 7.1154 23.2965 7.28232 23.5496 7.35535Z" fill="#37322F"/>
<path d="M31.3431 9.27501L30.4572 6.21816L31.9231 5.80084L31.7439 5.1853L29.4553 5.84255L30.5205 9.50453L31.3431 9.27501Z" fill="#37322F"/>
<path d="M32.7466 7.74116C32.8837 7.96025 33.0524 8.13762 33.2528 8.27325C33.4532 8.40888 33.6852 8.50277 33.9383 8.55493C34.1915 8.6071 34.4657 8.6071 34.761 8.55493C35.0562 8.50277 35.3199 8.40888 35.5519 8.27325C35.7839 8.13762 35.9632 7.97068 36.1109 7.77246C36.2585 7.57423 36.3534 7.33429 36.4062 7.07347C36.4589 6.81264 36.4589 6.53096 36.4062 6.2284C36.3534 5.95714 36.2691 5.70673 36.1425 5.48764C36.016 5.26854 35.8472 5.09119 35.6468 4.94513C35.4465 4.79907 35.225 4.70518 34.9719 4.65301C34.7188 4.60085 34.4446 4.5904 34.1598 4.64257C33.8434 4.69473 33.5692 4.78863 33.3372 4.93469C33.1052 5.07032 32.9154 5.24768 32.7677 5.45634C32.6201 5.665 32.5251 5.89454 32.4724 6.15536C32.4197 6.41618 32.4197 6.68745 32.4724 6.97957C32.5251 7.28213 32.6095 7.52207 32.7466 7.74116ZM33.4848 5.81106C33.5587 5.67543 33.6641 5.5711 33.7907 5.48764C33.9173 5.40417 34.0649 5.34159 34.2336 5.31029C34.4129 5.27899 34.5711 5.27897 34.7082 5.3207C34.8559 5.352 34.9824 5.42504 35.0879 5.51893C35.1933 5.61283 35.2883 5.74845 35.3621 5.90495C35.4359 6.06144 35.4886 6.23882 35.5308 6.44748C35.5625 6.65614 35.573 6.8335 35.5519 7.00043C35.5308 7.16736 35.4886 7.3134 35.4148 7.4386C35.341 7.56379 35.2461 7.66814 35.1195 7.7516C34.993 7.83507 34.8453 7.88724 34.666 7.91853C34.4973 7.94983 34.3496 7.93939 34.202 7.90809C34.0544 7.86636 33.9278 7.80375 33.8223 7.69942C33.7063 7.60552 33.6114 7.48034 33.5376 7.32385C33.4638 7.16735 33.4005 7.00043 33.3688 6.8022C33.3372 6.60397 33.3266 6.42661 33.3477 6.24925C33.3688 6.07189 33.411 5.93625 33.4848 5.81106Z" fill="#37322F"/>
<path d="M37.5123 7.67857C37.6916 7.83507 37.9131 7.94983 38.1662 8.03329C38.4193 8.10632 38.7041 8.14805 39.0204 8.12718C39.5056 8.10632 39.8958 8.01244 40.2122 7.85595L40.1805 7.16737C39.8958 7.34473 39.5689 7.44906 39.1892 7.45949C38.9888 7.46992 38.799 7.44906 38.6408 7.39689C38.472 7.34473 38.3349 7.26125 38.2189 7.15692C38.1029 7.05259 38.008 6.91696 37.9447 6.76047C37.8814 6.60397 37.8393 6.42663 37.8287 6.22841C37.8182 6.01975 37.8393 5.83194 37.9025 5.66502C37.9553 5.49809 38.0396 5.35201 38.1557 5.22682C38.2717 5.10162 38.4088 5.00773 38.5775 4.9347C38.7462 4.86166 38.9361 4.81994 39.147 4.8095C39.495 4.78864 39.8114 4.85123 40.0962 4.99729L40.0645 4.267C39.7903 4.18354 39.4423 4.1418 39.031 4.16267C38.704 4.1731 38.4088 4.24612 38.1451 4.35045C37.8814 4.46521 37.66 4.61127 37.4807 4.79906C37.2909 4.98685 37.1537 5.20596 37.0588 5.46679C36.9639 5.72761 36.9217 5.99887 36.9428 6.31186C36.9534 6.59355 37.0166 6.85436 37.1221 7.08388C37.1854 7.33428 37.333 7.52208 37.5123 7.67857Z" fill="#37322F"/>
<path d="M41.172 8.11683C41.3829 8.12726 41.5622 8.11682 41.7098 8.07509C41.8575 8.03336 42.0051 7.96031 42.1317 7.86642C42.2582 7.77252 42.3743 7.64735 42.4903 7.50129C42.6063 7.35523 42.7117 7.17787 42.8383 6.97964L44.3359 4.42355L43.4289 4.3714L42.6485 5.83201C42.6063 5.91547 42.5535 6.00936 42.5114 6.08239C42.4692 6.16585 42.427 6.24931 42.3848 6.33277C42.3743 6.28061 42.3637 6.22846 42.3426 6.18673C42.3215 6.14499 42.311 6.09282 42.3004 6.05109L41.5517 4.26706L40.6236 4.20447L41.8891 6.9692C41.8258 7.07353 41.752 7.15699 41.6887 7.23002C41.6255 7.30305 41.5622 7.35521 41.4884 7.38651C41.4251 7.42824 41.3618 7.44909 41.2985 7.46996C41.2353 7.48039 41.172 7.49084 41.1087 7.4804C40.9294 7.46997 40.7607 7.40737 40.6025 7.31347L40.5603 8.01249C40.6341 8.04379 40.7079 8.07508 40.8029 8.09594C40.9083 8.09594 41.0243 8.1064 41.172 8.11683Z" fill="#37322F"/>
<path d="M43.5563 7.52214L43.261 9.16012L44.0309 9.29572L44.2101 8.27331L46.8889 8.74278L46.7096 9.75478L47.4795 9.89041L47.6588 8.88885L48.4709 9.13923L49.0298 8.37765L50.4219 8.8054L50.4641 9.74436L51.3605 10.0156L51.0863 5.93634L50.1583 5.65463L47.6904 8.73237L47.7748 8.25243L47.1947 8.14812L47.7537 5.00779L45.4546 4.61133C45.3913 4.89302 45.307 5.16428 45.2015 5.43554C45.096 5.7068 44.98 5.96762 44.8535 6.21801C44.7164 6.46841 44.5793 6.70837 44.4211 6.93789C44.2629 7.16742 44.0941 7.37606 43.9254 7.57429L43.5563 7.52214ZM50.1688 6.83356C50.211 6.77096 50.2532 6.70837 50.2954 6.64577C50.3375 6.58317 50.3692 6.531 50.3903 6.47884L50.4114 6.48928C50.4008 6.54145 50.3903 6.61445 50.3903 6.68748C50.3903 6.76051 50.3903 6.83355 50.3903 6.89615L50.4325 8.17942L49.4306 7.87685L50.1688 6.83356ZM45.191 7.20913C45.3175 7.0109 45.4441 6.80225 45.5601 6.59359C45.6761 6.38493 45.7816 6.16585 45.8659 5.95719C45.9503 5.74853 46.0241 5.55031 46.0663 5.37295L46.794 5.49814L46.351 8.01249L44.8113 7.74122C44.9378 7.58473 45.0644 7.40735 45.191 7.20913Z" fill="#37322F"/>
<path d="M52.9534 9.27487L53.3647 9.45224C53.5862 9.54614 53.7865 9.59831 53.9975 9.61917C54.1979 9.64004 54.3877 9.61917 54.5564 9.57743C54.7252 9.5357 54.8834 9.44181 55.0099 9.32705C55.1365 9.21229 55.2525 9.06621 55.3263 8.88885C55.4845 8.53413 55.4845 8.2107 55.3263 7.92901C55.1681 7.63688 54.8623 7.39694 54.3982 7.19872L53.1643 6.66663L51.614 10.1617L52.405 10.506L52.9534 9.27487ZM53.7127 7.56388L54.0502 7.70992C54.2822 7.81425 54.4299 7.92901 54.5037 8.06464C54.5775 8.20027 54.567 8.36721 54.4826 8.56543C54.3877 8.77409 54.2611 8.89928 54.1029 8.95145C53.9448 9.00361 53.7444 8.97233 53.5018 8.868L53.1854 8.73237L53.7127 7.56388Z" fill="#37322F"/>
<path d="M55.1469 10.5893C55.1048 10.8397 55.1258 11.0797 55.1891 11.3092C55.2524 11.5387 55.3684 11.7578 55.5477 11.956C55.7164 12.1543 55.9379 12.3421 56.2121 12.4881C56.634 12.7281 57.0136 12.8637 57.3511 12.895L57.6992 12.3003C57.3617 12.3003 57.0347 12.2064 56.6972 12.0186C56.518 11.9143 56.3809 11.7995 56.2649 11.6743C56.1594 11.5387 56.0856 11.4031 56.0434 11.2466C56.0012 11.0901 56.0012 10.9336 56.0223 10.7667C56.0539 10.5997 56.1172 10.4328 56.2121 10.2554C56.3176 10.0781 56.4336 9.93201 56.5812 9.81725C56.7183 9.70249 56.8765 9.62949 57.0347 9.58775C57.1929 9.54602 57.3722 9.53557 57.5515 9.56687C57.7308 9.59817 57.9101 9.66077 58.0894 9.7651C58.3847 9.94246 58.6167 10.1616 58.7854 10.4328L59.1545 9.79639C58.9647 9.5773 58.7011 9.35822 58.3425 9.16C58.0577 8.99307 57.773 8.88872 57.4988 8.84699C57.214 8.79483 56.9504 8.80528 56.6867 8.86788C56.423 8.93047 56.191 9.04521 55.9696 9.20171C55.7481 9.3582 55.5688 9.57732 55.4106 9.84858C55.2841 10.099 55.1891 10.3494 55.1469 10.5893Z" fill="#37322F"/>
<path d="M62.2445 11.8832L59.6501 10.0052L59.2599 10.5269L60.2091 11.2155L58.3213 13.7715L59.0173 14.2828L60.9051 11.7162L61.8648 12.4048L62.2445 11.8832Z" fill="#37322F"/>
<path d="M61.4005 16.2336C61.5587 16.3797 61.7275 16.4944 61.8962 16.5779C62.0649 16.6613 62.2337 16.7031 62.3919 16.7239C62.5501 16.7344 62.7083 16.7135 62.8559 16.6614C63.0036 16.6092 63.1301 16.5153 63.2461 16.3901C63.3305 16.3066 63.3832 16.2023 63.4254 16.098C63.4676 15.9936 63.4781 15.8789 63.4781 15.7641C63.4676 15.6493 63.4465 15.5346 63.3832 15.4094C63.3305 15.2842 63.2461 15.1694 63.1406 15.0547L63.1512 15.0442C63.3832 15.159 63.6047 15.2112 63.8156 15.1903C64.016 15.1694 64.1953 15.0755 64.3429 14.919C64.5328 14.7104 64.596 14.4809 64.5328 14.2096C64.4695 13.9383 64.2797 13.6671 63.9527 13.3645L62.8981 12.4255L60.3037 15.2529L61.4005 16.2336ZM63.1406 13.4375L63.3938 13.6671C63.5625 13.8131 63.668 13.9488 63.6996 14.0635C63.7418 14.1783 63.6996 14.2931 63.5941 14.4078C63.4676 14.5435 63.3305 14.606 63.1934 14.5956C63.0457 14.5852 62.8981 14.5121 62.7399 14.3661L62.4973 14.147L63.1406 13.4375ZM62.3813 14.8669C62.5712 15.0442 62.6872 15.2007 62.7293 15.3572C62.761 15.5033 62.7188 15.6493 62.5923 15.7954C62.4657 15.9415 62.3286 15.9936 62.1809 15.9728C62.0333 15.9519 61.8751 15.858 61.6958 15.7119L61.3478 15.4094L62.086 14.6061L62.3813 14.8669Z" fill="#37322F"/>
<path d="M64.502 19.4365L64.9766 19.0192L63.9431 17.8715L64.6813 17.2247L65.5672 18.2054L66.0523 17.7776L65.1559 16.7969L65.8625 16.171L66.8327 17.2351L67.3073 16.8178L65.7676 15.1068L62.8884 17.6525L64.502 19.4365Z" fill="#37322F"/>
<path d="M68.0237 17.663L64.8704 19.8643L65.366 20.5633L66.7265 19.6139L67.7284 21.0224L66.3679 21.9613L66.8636 22.6708L70.017 20.4694L69.5213 19.7704L68.2663 20.6468L67.2644 19.2384L68.5194 18.362L68.0237 17.663Z" fill="#37322F"/>
<path d="M67.7064 24.1419L69.1829 23.3907L69.9844 24.9139L68.5079 25.6756L68.8981 26.4267L72.3257 24.674L71.9355 23.9124L70.5645 24.6114L69.7629 23.0882L71.1339 22.3892L70.7332 21.6276L67.3057 23.3803L67.7064 24.1419Z" fill="#37322F"/>
<path d="M74.0307 29.1907L70.375 30.416L70.6525 31.2263L74.3083 30.0009L74.0307 29.1907Z" fill="#37322F"/>
<path d="M69.7329 28.5655C69.8067 28.7742 69.9017 28.962 70.0071 29.108C70.1231 29.2645 70.2497 29.3793 70.3868 29.4627C70.5239 29.5462 70.6821 29.5984 70.8403 29.6192C70.9985 29.6401 71.1672 29.6192 71.3465 29.5566C71.5047 29.5045 71.6418 29.421 71.7473 29.3167C71.8527 29.2123 71.9371 29.0872 71.9898 28.9411C72.0426 28.795 72.0637 28.6386 72.0637 28.4612C72.0531 28.2838 72.0215 28.0856 71.9477 27.8769L71.7262 27.2301L73.1816 26.7397L72.9074 25.9364L69.2478 27.1571L69.7329 28.5655ZM71.1672 27.4388L71.336 27.9187C71.4203 28.1586 71.4414 28.3464 71.3992 28.4925C71.3571 28.6386 71.241 28.7429 71.0512 28.8055C70.8614 28.8681 70.7032 28.8576 70.5766 28.7637C70.4501 28.6698 70.3446 28.5029 70.2708 28.263L70.1126 27.7935L71.1672 27.4388Z" fill="#37322F"/>
<path d="M70.9758 32.8637L73.6545 34.1574C73.7495 34.1992 73.8338 34.2409 73.9077 34.2722C73.9815 34.3035 74.0448 34.3243 74.0869 34.3348V34.3452C74.0342 34.3452 73.9498 34.3557 73.8549 34.3661C73.76 34.3765 73.644 34.3974 73.5069 34.4182L71.3238 34.7938L71.4609 35.5763L75.2576 34.919L75.0994 34.0218L72.4523 32.7594C72.3573 32.7177 72.273 32.6759 72.2097 32.6551C72.1464 32.6342 72.0937 32.6133 72.0515 32.5925V32.582C72.1042 32.582 72.1781 32.5716 72.273 32.5612C72.3679 32.5507 72.4839 32.5299 72.6105 32.509L74.7619 32.1334L74.6248 31.351L70.8281 32.0082L70.9758 32.8637Z" fill="#37322F"/>
<path d="M75.9022 33.7298C76.1132 33.8967 76.3768 33.9697 76.6721 33.9489L76.5877 33.4689C76.4296 33.4689 76.2925 33.4272 76.1764 33.3333C76.0604 33.2394 75.9972 33.1247 75.9655 32.9682C75.9022 32.6134 76.0393 32.3839 76.3768 32.3005L76.2925 31.8206C75.9972 31.8832 75.7862 32.0292 75.6386 32.2483C75.4909 32.4674 75.4488 32.7282 75.5015 33.0308C75.5542 33.3229 75.6808 33.5524 75.9022 33.7298Z" fill="#37322F"/>
<path d="M8.13083 41.9509L4.9353 42.0969L4.96694 42.9524L8.17301 42.8064L8.22574 43.9749L8.87961 43.9436L8.73196 40.7511L8.07809 40.7824L8.13083 41.9509Z" fill="#37322F"/>
<path d="M5.89532 45.7173L6.87613 45.5713L7.06596 46.8858L7.69874 46.7919L7.5089 45.4878L8.44752 45.3522L8.65846 46.7711L9.29123 46.6772L8.95375 44.4132L5.13599 44.9662L5.48402 47.324L6.1168 47.2301L5.89532 45.7173Z" fill="#37322F"/>
<path d="M10.2088 50.4018L9.97676 49.4837L8.74285 49.1186C8.67957 49.0977 8.62683 49.0872 8.5741 49.0768C8.52137 49.0664 8.46863 49.056 8.40536 49.056V49.0455C8.50027 48.9829 8.58465 48.9099 8.65847 48.8369L9.57599 47.9605L9.32288 46.9694L7.78313 48.5969L5.55786 47.804L5.81096 48.7743L7.18198 49.1707C7.23471 49.1811 7.28744 49.1916 7.32963 49.202C7.37182 49.2124 7.40346 49.2124 7.4351 49.2124V49.2229C7.39291 49.2542 7.35073 49.275 7.31909 49.3063C7.28745 49.3272 7.25582 49.3585 7.22418 49.3898L6.23282 50.3914L6.48594 51.3616L8.03623 49.6611L10.2088 50.4018Z" fill="#37322F"/>
<path d="M11.3064 53.1978L9.87214 53.7612L9.23935 52.1545L10.6631 51.6015L10.3467 50.7982L6.76099 52.1962L7.07738 52.9996L8.61713 52.3945L9.26045 54.0011L7.71015 54.5958L8.02654 55.3991L11.6228 54.0011L11.3064 53.1978Z" fill="#37322F"/>
<path d="M11.37 59.1861C11.6337 59.1444 11.9079 59.0505 12.1821 58.9044C12.4246 58.7688 12.6356 58.6019 12.7938 58.4037C12.952 58.2054 13.068 57.9968 13.1418 57.7673C13.2156 57.5377 13.2262 57.2978 13.1945 57.0369C13.1629 56.7761 13.0785 56.5257 12.9309 56.2753C12.7727 56.0041 12.5934 55.7745 12.3825 55.6076C12.1715 55.4407 11.9395 55.3155 11.6969 55.2529C11.4544 55.1903 11.2013 55.1694 10.9376 55.2112C10.674 55.2529 10.4103 55.3468 10.1466 55.4929C9.89353 55.6285 9.69315 55.7954 9.52441 56.0041C9.35567 56.2127 9.25022 56.4214 9.18694 56.6509C9.12366 56.8804 9.10256 57.1308 9.14475 57.3812C9.18693 57.6421 9.27131 57.8924 9.41896 58.1533C9.56661 58.4141 9.73535 58.6227 9.94628 58.7897C10.1467 58.9566 10.3681 59.0714 10.6107 59.1444C10.8427 59.207 11.0958 59.2279 11.37 59.1861ZM10.2943 58.2054C10.1783 58.1115 10.0728 57.9968 9.97791 57.8403C9.89354 57.6942 9.85135 57.5482 9.84081 57.4021C9.83026 57.256 9.85135 57.11 9.90408 56.9743C9.95681 56.8387 10.0517 56.7135 10.1677 56.5883C10.2837 56.4631 10.4314 56.3588 10.6107 56.2545C10.79 56.1606 10.9587 56.0875 11.1275 56.0562C11.2962 56.0145 11.4544 56.0145 11.602 56.0458C11.7497 56.0667 11.8868 56.1293 12.0133 56.2127C12.1399 56.2962 12.2454 56.4214 12.3297 56.5675C12.4141 56.724 12.4668 56.87 12.4774 57.0161C12.4879 57.1621 12.4668 57.2978 12.4141 57.4334C12.3614 57.569 12.2664 57.6942 12.1399 57.8194C12.0133 57.9446 11.8657 58.0489 11.6759 58.1533C11.4966 58.2576 11.3173 58.3202 11.1591 58.3619C10.9904 58.4037 10.8322 58.4037 10.6951 58.3828C10.5474 58.3619 10.4208 58.2993 10.2943 58.2054Z" fill="#37322F"/>
<path d="M14.6394 59.0924C14.4601 59.1863 14.2808 59.2802 14.1226 59.3741C13.9539 59.4575 13.7957 59.541 13.6375 59.6245C13.4793 59.708 13.3211 59.781 13.1629 59.854C13.0047 59.9271 12.8571 60.0001 12.6989 60.0731C12.4985 60.167 12.3297 60.2296 12.1926 60.2922C12.0555 60.3444 11.929 60.3757 11.8341 60.3965C11.7392 60.407 11.6548 60.407 11.581 60.3861C11.5177 60.3548 11.4544 60.3131 11.4017 60.24C11.3384 60.1566 11.2962 60.0627 11.2646 59.9479L10.7478 60.3235C10.8005 60.4696 10.8849 60.6052 10.9904 60.7512C11.1169 60.9182 11.254 61.0434 11.4017 61.106C11.5493 61.179 11.697 61.2103 11.8446 61.2103C11.9923 61.2103 12.1505 61.179 12.3086 61.1268C12.4668 61.0747 12.625 61.0016 12.7938 60.9286C12.9098 60.8765 13.0258 60.8243 13.1524 60.7617C13.2789 60.6991 13.416 60.6365 13.5531 60.5635C13.6902 60.4904 13.8484 60.4174 14.0172 60.3339C14.1754 60.2505 14.3546 60.1566 14.555 60.0523L15.0401 60.6886L12.4774 62.5979L12.9942 63.276L16.0737 60.9808L14.6394 59.0924Z" fill="#37322F"/>
<path d="M18.3506 64.9243C18.456 64.6947 18.5087 64.4548 18.5193 64.2148C18.5193 63.9749 18.4771 63.7349 18.3822 63.495C18.2873 63.255 18.1291 63.0359 17.9182 62.8273C17.6967 62.5977 17.4541 62.4308 17.2116 62.3265C16.969 62.2221 16.7053 62.1595 16.4628 62.1595C16.2097 62.1595 15.9566 62.2117 15.714 62.316C15.4714 62.4204 15.2394 62.5769 15.0285 62.7855C14.8281 62.9838 14.6699 63.2028 14.5644 63.4324C14.459 63.6619 14.4062 63.9018 14.4062 64.1418C14.4062 64.3818 14.459 64.6217 14.5644 64.8617C14.6699 65.1016 14.8281 65.3207 15.0285 65.5294C15.2394 65.7381 15.4609 65.905 15.7034 66.0093C15.946 66.1136 16.1886 66.1762 16.4417 66.1762C16.6948 66.1762 16.9374 66.1345 17.1905 66.0198C17.4436 65.905 17.6756 65.7589 17.8971 65.5398C18.0869 65.3625 18.2451 65.1538 18.3506 64.9243ZM17.5807 64.5174C17.4963 64.6635 17.3698 64.8095 17.2221 64.966C17.0745 65.1121 16.9268 65.2268 16.7792 65.2999C16.6315 65.3833 16.4839 65.4251 16.3362 65.4355C16.1886 65.4459 16.0409 65.425 15.9038 65.3729C15.7667 65.3207 15.6296 65.2268 15.5031 65.1016C15.387 64.9869 15.3027 64.8513 15.25 64.7156C15.1972 64.58 15.1867 64.4339 15.1972 64.2879C15.2183 64.1418 15.2605 63.9957 15.3449 63.8497C15.4292 63.7036 15.5452 63.5576 15.6823 63.4115C15.83 63.2759 15.9777 63.1611 16.1253 63.0881C16.2729 63.0046 16.4311 62.9629 16.5788 62.9525C16.7264 62.942 16.8741 62.9525 17.0217 63.0151C17.1694 63.0777 17.2959 63.1507 17.4225 63.2759C17.549 63.4011 17.6334 63.5367 17.6861 63.6723C17.7389 63.808 17.7494 63.954 17.7283 64.0897C17.7178 64.2253 17.665 64.3713 17.5807 64.5174Z" fill="#37322F"/>
<path d="M21.1554 66.5727L21.5562 66.072L19.7001 64.5905L17.2744 67.5534L17.9494 68.096L19.9743 65.6233L21.1554 66.5727Z" fill="#37322F"/>
<path d="M24.2251 67.804L21.5041 68.889C21.3987 68.9307 21.3249 68.962 21.2616 68.9933C21.1983 69.0246 21.1561 69.0455 21.1139 69.0663H21.1034C21.135 69.0246 21.1772 68.9725 21.2299 68.889C21.2827 68.8055 21.346 68.722 21.4198 68.6073L22.5904 66.7815L21.9155 66.3538L19.8484 69.5776L20.5866 70.0366L23.3603 68.9516C23.4552 68.9099 23.5396 68.8786 23.6134 68.8473C23.6872 68.816 23.74 68.7846 23.7821 68.7638L23.7927 68.7742C23.761 68.8159 23.7083 68.8785 23.6556 68.962C23.6029 69.0455 23.5396 69.1394 23.4658 69.2541L22.274 71.1112L22.949 71.5389L25.0161 68.3152L24.2251 67.804Z" fill="#37322F"/>
<path d="M27.8425 69.6297L27.1464 71.1217C26.9566 71.1321 26.7879 71.1217 26.6297 71.1008C26.4715 71.0799 26.3238 71.0382 26.1867 70.9756C26.0074 70.8921 25.902 70.7982 25.8598 70.673C25.8176 70.5479 25.8387 70.4018 25.9231 70.214L26.482 69.0038L25.7016 68.649L25.0899 69.9636C24.9317 70.2975 24.9106 70.5896 25.0161 70.84C25.1216 71.0904 25.343 71.299 25.6911 71.4451C25.8809 71.5285 26.0813 71.5912 26.2816 71.6225C26.482 71.6537 26.6929 71.6642 26.9039 71.6537L26.2395 73.0935L27.0199 73.4482L28.6335 69.9845L27.8425 69.6297Z" fill="#37322F"/>
<path d="M31.492 71.6118L31.6923 71.0067L29.4882 70.2869L28.2859 73.9175L30.5744 74.6583L30.7643 74.0636L29.2983 73.5837L29.6147 72.6551L30.8803 73.062L31.0807 72.4674L29.8151 72.05L30.1104 71.1632L31.492 71.6118Z" fill="#37322F"/>
<path d="M33.3584 71.4971C33.0736 71.5388 32.8205 71.6223 32.5885 71.7579C32.367 71.8935 32.1666 72.0709 32.0085 72.3004C31.8503 72.5195 31.7448 72.7803 31.671 73.0829C31.6077 73.3646 31.5971 73.6254 31.6393 73.8758C31.6815 74.1262 31.7659 74.3453 31.903 74.5435C32.0401 74.7417 32.2194 74.9087 32.4408 75.0547C32.6623 75.1904 32.926 75.2947 33.2318 75.3677C33.7064 75.4721 34.1177 75.4825 34.4446 75.4095L34.5923 74.7313C34.2759 74.8356 33.9279 74.8461 33.5482 74.7626C33.3478 74.7209 33.1791 74.6478 33.0314 74.5539C32.8838 74.4601 32.7678 74.3453 32.6834 74.2096C32.599 74.074 32.5463 73.928 32.5147 73.761C32.4936 73.5941 32.5041 73.4168 32.5463 73.2185C32.5885 73.0203 32.6623 72.8429 32.7572 72.6969C32.8521 72.5508 32.9787 72.4256 33.1158 72.3422C33.2529 72.2483 33.4216 72.1961 33.6009 72.1648C33.7802 72.1335 33.9701 72.1439 34.181 72.1857C34.5185 72.2587 34.8032 72.4047 35.0458 72.6134L35.204 71.8935C34.9614 71.737 34.6345 71.6223 34.2337 71.5284C33.949 71.4658 33.6431 71.4554 33.3584 71.4971Z" fill="#37322F"/>
<path d="M38.0403 72.1127L36.7115 73.5838C36.6798 73.6151 36.6482 73.6464 36.6271 73.6881C36.606 73.7298 36.5744 73.7611 36.5638 73.782H36.5533L36.7326 71.9875L35.8677 71.9041L35.4775 75.7017L36.3423 75.7851L36.5322 73.9176H36.5427C36.5638 73.9593 36.5744 74.0011 36.5954 74.0428C36.6165 74.0846 36.6376 74.1159 36.6482 74.1367L37.7134 75.9103L38.7363 76.0147L37.4075 73.8863L39 72.2066L38.0403 72.1127Z" fill="#37322F"/>
<path d="M42.1529 72.1439L40.5077 74.5539C40.4444 74.6478 40.4022 74.7209 40.3601 74.773C40.3284 74.8252 40.2968 74.8774 40.2757 74.9191H40.2652C40.2652 74.8669 40.2757 74.7939 40.2757 74.7C40.2757 74.6061 40.2757 74.4913 40.2757 74.3557L40.2124 72.1961L39.4109 72.217L39.5269 76.0354L40.3917 76.0145L42.0686 73.5837C42.1318 73.5002 42.174 73.4168 42.2162 73.3542C42.2584 73.2811 42.29 73.229 42.3006 73.1872H42.3111C42.3111 73.2394 42.3006 73.3229 42.3006 73.4168C42.3006 73.5107 42.3006 73.6358 42.3006 73.761L42.3639 75.9624L43.1654 75.9415L43.0599 72.123L42.1529 72.1439Z" fill="#37322F"/>
<path d="M46.6239 71.5703L45.3373 74.1785C45.2951 74.2724 45.2529 74.3559 45.2318 74.4185C45.2107 74.4811 45.1896 74.5333 45.1685 74.575H45.158C45.158 74.5228 45.1474 74.4498 45.1369 74.3559C45.1263 74.262 45.1052 74.1472 45.0842 74.022L44.715 71.8937L43.9241 72.0294L44.5779 75.7957L45.4322 75.6496L46.7505 72.9996C46.7927 72.9057 46.8348 72.8223 46.8665 72.7492C46.8981 72.6762 46.9192 72.6136 46.9298 72.5719H46.9403C46.9403 72.6241 46.9508 72.7075 46.9614 72.8014C46.9719 72.8953 46.993 73.0101 47.0141 73.1457L47.3938 75.3158L48.1848 75.1801L47.5309 71.4138L46.6239 71.5703Z" fill="#37322F"/>
<path d="M45.5595 70.7146C45.1904 70.7772 44.9689 70.6416 44.8845 70.3077L44.3994 70.3912C44.4627 70.6834 44.6103 70.892 44.8318 71.0381C45.0533 71.1841 45.3169 71.2259 45.6228 71.1737C45.9181 71.1215 46.1395 70.9963 46.3188 70.7772C46.4876 70.5686 46.5614 70.3077 46.5403 70.0156L46.0552 70.0991C46.0552 70.2556 46.013 70.3912 45.9181 70.506C45.8337 70.6207 45.7071 70.6938 45.5595 70.7146Z" fill="#37322F"/>
<path d="M52.3621 71.4658C52.3516 71.5597 52.3516 71.664 52.341 71.7474C52.341 71.8413 52.3305 71.9352 52.3305 72.0291C52.2988 71.9874 52.2672 71.9457 52.2356 71.9039C52.2039 71.8622 52.1723 71.8309 52.1407 71.7996L50.7169 70.4746L49.8416 70.798L52.1407 72.8116C52.1196 72.9368 52.0985 73.0411 52.0668 73.1246C52.0352 73.2081 52.0035 73.2915 51.9508 73.3541C51.9086 73.4167 51.8559 73.4689 51.8032 73.5002C51.7504 73.5419 51.6977 73.5732 51.6344 73.5941C51.4657 73.6567 51.2864 73.6671 51.1071 73.6463L51.3497 74.3035C51.4235 74.3035 51.5079 74.2931 51.6028 74.2722C51.6977 74.2514 51.8137 74.2201 51.9508 74.1679C52.1406 74.0949 52.2989 74.0114 52.4254 73.9071C52.552 73.8027 52.6469 73.688 52.7312 73.5419C52.8051 73.4063 52.8683 73.2394 52.9105 73.062C52.9527 72.8846 52.9843 72.676 53.0054 72.4465L53.3113 69.5148L52.4676 69.8278L52.3621 71.4658Z" fill="#37322F"/>
<path d="M55.9056 68.1689L56.6122 69.5043L55.0724 70.3076L54.3553 68.9617L53.5959 69.3686L55.3994 72.7385L56.1587 72.3421L55.3888 70.8919L56.9286 70.0885L57.6985 71.5387L58.4683 71.1423L56.6649 67.762L55.9056 68.1689Z" fill="#37322F"/>
<path d="M59.6388 65.7172L59.6493 68.6176C59.6493 68.7219 59.6493 68.8158 59.6493 68.8784C59.6493 68.941 59.6599 68.9932 59.6599 69.0453L59.6493 69.0558C59.6282 69.014 59.5861 68.9514 59.5333 68.8679C59.4806 68.7845 59.4173 68.6906 59.3435 68.5863L58.0674 66.8335L57.4241 67.303L59.681 70.3912L60.3876 69.8904V66.9483C60.3876 66.844 60.3876 66.75 60.377 66.677C60.3665 66.5936 60.3665 66.531 60.3559 66.4892L60.3665 66.4788C60.3981 66.531 60.4298 66.5936 60.493 66.677C60.5458 66.7605 60.6196 66.8544 60.6934 66.9692L61.9906 68.7532L62.6339 68.2837L60.377 65.1956L59.6388 65.7172Z" fill="#37322F"/>
<path d="M65.0696 64.5696C64.9853 64.4861 64.8904 64.4131 64.7954 64.3713C64.69 64.3192 64.5845 64.2983 64.4685 64.2983C64.3525 64.2983 64.2365 64.3192 64.1099 64.3609C63.9834 64.4026 63.8568 64.4757 63.7303 64.5696L63.7197 64.5591C63.8568 64.34 63.9201 64.1209 63.9096 63.9227C63.899 63.7141 63.8252 63.5367 63.6775 63.3802C63.4877 63.182 63.2557 63.0985 62.9815 63.1402C62.7073 63.182 62.412 63.3489 62.085 63.6514L61.0515 64.6113L63.6881 67.3969L64.7638 66.3953C64.922 66.2493 65.0486 66.0928 65.1435 65.9363C65.2384 65.7798 65.3017 65.6129 65.3228 65.4564C65.3439 65.2999 65.3438 65.1434 65.3017 64.9973C65.2595 64.8304 65.1857 64.6948 65.0696 64.5696ZM62.7495 65.1538L62.085 64.4548L62.3382 64.2253C62.4964 64.0688 62.644 63.9853 62.76 63.954C62.876 63.9227 62.992 63.9749 63.108 64.0896C63.2346 64.2253 63.2873 64.3609 63.2662 64.507C63.2451 64.653 63.1608 64.7991 63.0026 64.9347L62.7495 65.1538ZM64.247 66.0615L63.9096 66.3745L63.1608 65.5816L63.4666 65.2999C63.6565 65.1225 63.8252 65.0182 63.9834 64.9973C64.1416 64.9764 64.2787 65.0286 64.4158 65.1747C64.5529 65.3103 64.5951 65.4563 64.5634 65.6024C64.5212 65.7485 64.4158 65.905 64.247 66.0615Z" fill="#37322F"/>
<path d="M66.6307 63.5471L65.8819 62.9107L66.7467 61.9091L66.2616 61.4918L65.3968 62.5038L64.6691 61.8882L65.6182 60.7928L65.1331 60.3859L63.625 62.1177L66.5463 64.6112L68.1177 62.8063L67.6431 62.389L66.6307 63.5471Z" fill="#37322F"/>
<path d="M68.3725 60.1774C68.5096 59.9896 68.6045 59.7914 68.6677 59.6036C68.731 59.4158 68.7521 59.228 68.731 59.0506C68.7205 58.8733 68.6678 58.7063 68.5728 58.5603C68.4885 58.4038 68.3619 58.2786 68.2037 58.1743C67.8873 57.9552 67.5604 57.8926 67.244 57.9865C66.9276 58.0804 66.6218 58.3308 66.337 58.7481L65.5671 59.8435L68.731 62.024L69.2267 61.325L68.1088 60.5634L68.3725 60.1774ZM67.8135 59.927L67.6237 60.2087L66.569 59.4784L66.78 59.1758C66.9276 58.9672 67.0753 58.8524 67.2229 58.8002C67.3706 58.7585 67.5393 58.7898 67.708 58.915C67.8979 59.0402 67.9928 59.1967 68.0139 59.3636C68.0244 59.5306 67.9611 59.7184 67.8135 59.927Z" fill="#37322F"/>
<path d="M71.2927 56.8702C71.1978 57.0476 71.0818 57.1936 70.9552 57.298C70.8287 57.4127 70.681 57.4857 70.5334 57.5275C70.3752 57.5692 70.217 57.5796 70.0482 57.5588C69.8795 57.5379 69.7002 57.4753 69.5315 57.3814C69.3522 57.2875 69.194 57.1623 69.078 57.0267C68.962 56.8911 68.8776 56.745 68.8354 56.5781C68.7932 56.4216 68.7827 56.2547 68.8038 56.0669C68.8249 55.8895 68.8882 55.7122 68.9936 55.5244C69.1624 55.2218 69.3733 54.9923 69.6475 54.8254L69.0042 54.4811C68.7827 54.6689 68.5718 54.9401 68.3819 55.3053C68.2237 55.5869 68.1288 55.8686 68.0866 56.1503C68.0445 56.432 68.0656 56.7033 68.1288 56.9537C68.2027 57.2041 68.3187 57.444 68.4874 57.6527C68.6561 57.8613 68.8776 58.0491 69.1518 58.1848C69.4049 58.3204 69.658 58.4038 69.9112 58.4351C70.1643 58.4664 70.4068 58.4456 70.6283 58.3725C70.8603 58.2995 71.0712 58.1743 71.2716 58.0074C71.472 57.83 71.6513 57.611 71.7989 57.3397C72.0309 56.9119 72.1575 56.5364 72.1786 56.1921L71.5669 55.8582C71.5669 56.2025 71.472 56.5363 71.2927 56.8702Z" fill="#37322F"/>
<path d="M70.1751 51.3824L71.7782 53.8133C71.8415 53.9072 71.8836 53.9802 71.9258 54.0324C71.968 54.0845 71.9997 54.1263 72.0313 54.168V54.1784C71.9891 54.1576 71.9258 54.1263 71.8309 54.0846C71.7465 54.0428 71.6411 54.0011 71.5145 53.9594L69.4791 53.1769L69.1943 53.9176L72.7906 55.3052L73.107 54.5019L71.4934 52.0293C71.4407 51.9458 71.388 51.8623 71.3352 51.7997C71.2825 51.7371 71.2509 51.685 71.2192 51.6537V51.6432C71.272 51.6745 71.3352 51.7058 71.4301 51.7371C71.5251 51.7789 71.6305 51.8206 71.7571 51.8728L73.8242 52.6657L74.1089 51.9249L70.5126 50.5374L70.1751 51.3824Z" fill="#37322F"/>
<path d="M71.5462 49.1706L74.6468 49.9427L74.8577 49.1185L71.7572 48.336L72.0419 47.2093L71.4091 47.0527L70.6182 50.1409L71.2509 50.2974L71.5462 49.1706Z" fill="#37322F"/>
<path d="M74.7825 46.2286L73.8017 46.0826L74.0021 44.768L73.3693 44.6741L73.1689 45.9887L72.2303 45.8426L72.4517 44.4237L71.819 44.3298L71.4709 46.5938L75.2887 47.1676L75.6473 44.7993L75.0145 44.7054L74.7825 46.2286Z" fill="#37322F"/>
<path d="M72.5787 42.9214L75.7743 43.0675L75.8164 42.2119L72.6209 42.0659L72.6736 40.8974L72.0198 40.8661L71.8616 44.0482L72.5154 44.0795L72.5787 42.9214Z" fill="#37322F"/>
<path d="M73.6453 38.696C73.6453 39.2281 74.0882 39.6663 74.6261 39.6663C75.1639 39.6663 75.6069 39.2281 75.6069 38.696C75.6069 38.1639 75.1639 37.7257 74.6261 37.7257C74.0882 37.7257 73.6453 38.1535 73.6453 38.696Z" fill="#37322F"/>
<path d="M45.086 38.5603H42.9978V45.0914H45.086V38.5603Z" fill="#37322F"/>
<path d="M48.2398 38.5603H46.1516V45.0914H48.2398V38.5603Z" fill="#37322F"/>
<path d="M51.3804 38.5603H49.2922V45.0914H51.3804V38.5603Z" fill="#37322F"/>
<path d="M54.5235 38.5603H52.4353V45.0914H54.5235V38.5603Z" fill="#37322F"/>
<path d="M30.1618 27.9082H27.7678V45.1435H30.1618V27.9082Z" fill="#37322F"/>
<path d="M34.0122 27.9082H31.6182V45.1435H34.0122V27.9082Z" fill="#37322F"/>
<path d="M37.8606 27.9082H35.4666V45.1435H37.8606V27.9082Z" fill="#37322F"/>
<path d="M43.3882 30.965C43.1773 31.0589 42.9453 31.1215 42.6921 31.1632V32.0396C42.8714 32.0187 43.0296 31.9979 43.1667 31.9561C43.3038 31.9144 43.4409 31.8623 43.5675 31.7892V34.6166H44.7487V30.5999H44.0526C43.8311 30.7459 43.6097 30.8711 43.3882 30.965Z" fill="#37322F"/>
<path d="M47.9637 30.84C47.7317 30.6835 47.4681 30.6105 47.1622 30.6105C46.8669 30.6105 46.6138 30.6731 46.3923 30.7878C46.1709 30.9026 45.9916 31.0695 45.8756 31.2886C45.7596 31.5077 45.6963 31.7581 45.6963 32.0502C45.6963 32.2798 45.7385 32.4884 45.8334 32.6762C45.9283 32.8535 46.0549 32.9996 46.2236 33.1039C46.3923 33.2083 46.5716 33.2604 46.772 33.2604C47.1095 33.2604 47.3626 33.1457 47.5313 32.9266H47.5524C47.5524 33.2187 47.4786 33.4482 47.331 33.5943C47.1833 33.7403 46.9724 33.8238 46.6982 33.8238C46.5822 33.8238 46.4451 33.803 46.2974 33.7612C46.1498 33.7195 46.0338 33.6778 45.9494 33.6256V34.5228C46.2131 34.6272 46.5084 34.6793 46.8564 34.6793C47.4259 34.6793 47.8688 34.4811 48.1958 34.0951C48.5227 33.7091 48.6809 33.1665 48.6809 32.478C48.6809 32.0919 48.6282 31.7685 48.5121 31.4868C48.375 31.2156 48.1958 30.9965 47.9637 30.84ZM47.4048 32.3111C47.3521 32.3945 47.2677 32.4467 47.1517 32.4467C47.0568 32.4467 46.9724 32.4049 46.9091 32.3215C46.8458 32.238 46.8142 32.1232 46.8142 31.9667C46.8142 31.7998 46.8458 31.6746 46.9091 31.6016C46.9724 31.5286 47.0568 31.4868 47.1622 31.4868C47.2677 31.4868 47.3415 31.5286 47.4048 31.6225C47.4681 31.7164 47.4997 31.8311 47.4997 31.9667C47.4892 32.1128 47.4575 32.2276 47.4048 32.3111Z" fill="#37322F"/>
<path d="M51.4013 32.0188C51.0533 32.0188 50.7896 32.1335 50.5998 32.3526H50.5787C50.5998 32.0813 50.6842 31.8727 50.8424 31.7057C51.0005 31.5388 51.2009 31.4554 51.454 31.4554C51.7071 31.4554 51.9181 31.5075 52.0974 31.6223V30.7042C51.9181 30.6416 51.665 30.5999 51.3697 30.5999C50.9689 30.5999 50.6314 30.6833 50.3467 30.8607C50.0619 31.038 49.8405 31.2989 49.6823 31.6432C49.5241 31.9874 49.4397 32.3839 49.4397 32.8221C49.4397 33.4063 49.5768 33.8549 49.8299 34.1784C50.0936 34.5018 50.4627 34.6583 50.9478 34.6583C51.222 34.6583 51.4751 34.5957 51.6966 34.4705C51.9181 34.3453 52.0973 34.1784 52.2134 33.9593C52.3399 33.7402 52.3927 33.5002 52.3927 33.2394C52.3927 32.8742 52.2977 32.5821 52.1184 32.3526C51.9602 32.1335 51.7071 32.0188 51.4013 32.0188ZM51.2009 33.6567C51.1376 33.7402 51.0533 33.7923 50.9478 33.7923C50.8529 33.7923 50.7685 33.7506 50.7052 33.6567C50.642 33.5628 50.6103 33.4481 50.6103 33.3124C50.6103 33.1664 50.642 33.0516 50.6947 32.9577C50.758 32.8743 50.8423 32.8221 50.9478 32.8221C51.0638 32.8221 51.1482 32.8638 51.2009 32.9473C51.2537 33.0307 51.2853 33.1455 51.2853 33.2915C51.2958 33.448 51.2642 33.5732 51.2009 33.6567Z" fill="#37322F"/>
<path d="M54.6403 32.1231C54.5454 32.1231 54.4505 32.1231 54.3345 32.144L54.3766 31.591H55.7055V30.6833H53.4591L53.3115 33.0412C53.5224 32.9995 53.7439 32.9682 53.9864 32.9682C54.4716 32.9682 54.7141 33.1142 54.7141 33.4064C54.7141 33.542 54.6614 33.6463 54.5559 33.7193C54.4505 33.7924 54.2923 33.8341 54.0919 33.8341C53.7861 33.8341 53.4908 33.7611 53.2166 33.615V34.5227C53.3431 34.5749 53.5118 34.6062 53.7017 34.6375C53.9021 34.6688 54.0919 34.6792 54.2712 34.6792C54.5981 34.6792 54.8829 34.6166 55.1254 34.5018C55.368 34.3871 55.5578 34.2202 55.6844 34.0011C55.8109 33.7924 55.8742 33.5524 55.8742 33.2812C55.8742 32.9265 55.7687 32.6448 55.5473 32.4361C55.3363 32.2275 55.0305 32.1231 54.6403 32.1231Z" fill="#37322F"/>
<path d="M20.0262 53.0413L39.5368 52.9996L40.1907 53.7403H41.8148L42.4687 52.9996L61.895 53.0935L61.9055 33.6047L59.6381 33.5212L59.6697 27.7518L41.3508 27.8248V24.1733H39.4103L37.2799 22.6814H33.5149V23.7873H32.3232V22.6918H28.4949L26.3856 24.2046H24.4345V28.117H22.2409L22.2093 33.4273L20.0156 33.5943L20.0262 53.0413ZM25.6052 25.3522H26.7758L28.8851 23.8394H31.1736V24.9349H34.6855V23.8394H36.9213L39.0517 25.3314H40.2012L40.1907 45.154H41.3508V37.0059L56.2527 37.0372V47.0632H25.6052V25.3522ZM23.401 29.2646H24.4345V48.2004H57.4128V35.8895L41.3508 35.8582V28.9829L58.4991 28.9099L58.383 49.4628H23.285L23.401 29.2646ZM22.2093 34.575L22.1143 50.6104H59.5326L59.6275 34.6793L60.7349 34.7211L60.7243 51.9459L41.9308 51.852L41.277 52.5927H40.718L40.0641 51.852L21.1863 51.8937L21.1757 34.648L22.2093 34.575Z" fill="#37322F"/>
<path d="M42.2692 58.4768L49.3669 58.4873V57.2353L41.879 57.2249L40.8771 57.9134L39.8752 57.2249H32.4084V58.4768H39.485L40.8877 59.4367L42.2692 58.4768Z" fill="#37322F"/>
</svg>
