<svg width="320" height="80" viewBox="0 0 320 80" fill="none" xmlns="http://www.w3.org/2000/svg">
<path d="M100.051 49.7007L101.94 52.6084H100.908L98.7471 49.7666V49.6274L100.908 46.7783H101.94L100.051 49.7007ZM102.468 49.7007L104.357 52.6084H103.325L101.164 49.7666V49.6274L103.325 46.7783H104.357L102.468 49.7007ZM113.652 44.2075H110.224V53.7144H108.825V44.2075H105.405V43.0503H113.652V44.2075ZM117.578 53.8608C116.503 53.8608 115.629 53.5093 114.956 52.8062C114.282 52.0981 113.945 51.1533 113.945 49.9717V49.7227C113.945 48.9365 114.094 48.2358 114.392 47.6206C114.694 47.0005 115.114 46.5171 115.651 46.1704C116.193 45.8188 116.779 45.6431 117.409 45.6431C118.439 45.6431 119.24 45.9824 119.812 46.6611C120.383 47.3398 120.668 48.3115 120.668 49.5762V50.1401H115.3C115.319 50.9214 115.546 51.5537 115.981 52.0371C116.42 52.5156 116.977 52.7549 117.651 52.7549C118.129 52.7549 118.535 52.6572 118.867 52.4619C119.199 52.2666 119.489 52.0078 119.738 51.6855L120.566 52.3301C119.902 53.3506 118.906 53.8608 117.578 53.8608ZM117.409 46.7563C116.862 46.7563 116.403 46.9565 116.032 47.3569C115.661 47.7524 115.432 48.3091 115.344 49.0269H119.313V48.9243C119.274 48.2358 119.089 47.7036 118.757 47.3276C118.425 46.9468 117.976 46.7563 117.409 46.7563ZM124.902 48.6826L126.66 45.7896H128.242L125.649 49.708L128.322 53.7144H126.755L124.924 50.748L123.093 53.7144H121.518L124.191 49.708L121.599 45.7896H123.166L124.902 48.6826ZM136.159 53.7144H134.804V50.3306H131.164V53.7144H129.802V45.7896H131.164V49.2246H134.804V45.7896H136.159V53.7144ZM137.983 49.6787C137.983 48.9023 138.134 48.2041 138.437 47.584C138.745 46.9639 139.169 46.4854 139.711 46.1484C140.258 45.8115 140.881 45.6431 141.579 45.6431C142.658 45.6431 143.53 46.0166 144.194 46.7637C144.863 47.5107 145.197 48.5044 145.197 49.7446V49.8398C145.197 50.6113 145.048 51.3047 144.75 51.9199C144.458 52.5303 144.035 53.0063 143.483 53.3481C142.937 53.6899 142.307 53.8608 141.594 53.8608C140.52 53.8608 139.648 53.4873 138.979 52.7402C138.315 51.9932 137.983 51.0044 137.983 49.7739V49.6787ZM139.345 49.8398C139.345 50.7188 139.548 51.4243 139.953 51.9565C140.363 52.4888 140.91 52.7549 141.594 52.7549C142.282 52.7549 142.829 52.4863 143.234 51.9492C143.64 51.4072 143.842 50.6504 143.842 49.6787C143.842 48.8096 143.635 48.1064 143.22 47.5693C142.81 47.0273 142.263 46.7563 141.579 46.7563C140.91 46.7563 140.371 47.0225 139.96 47.5547C139.55 48.0869 139.345 48.8486 139.345 49.8398ZM153.276 45.7896V53.7144H151.914V46.9102H149.218L149.057 49.8765C148.969 51.2388 148.74 52.2129 148.369 52.7988C148.002 53.3848 147.419 53.6899 146.618 53.7144H146.076V52.5205L146.464 52.4912C146.904 52.4424 147.219 52.1885 147.409 51.7295C147.6 51.2705 147.722 50.4209 147.775 49.1807L147.922 45.7896H153.276ZM155.092 49.6787C155.092 48.9023 155.244 48.2041 155.546 47.584C155.854 46.9639 156.279 46.4854 156.821 46.1484C157.368 45.8115 157.99 45.6431 158.688 45.6431C159.768 45.6431 160.639 46.0166 161.303 46.7637C161.972 47.5107 162.307 48.5044 162.307 49.7446V49.8398C162.307 50.6113 162.158 51.3047 161.86 51.9199C161.567 52.5303 161.145 53.0063 160.593 53.3481C160.046 53.6899 159.416 53.8608 158.703 53.8608C157.629 53.8608 156.757 53.4873 156.088 52.7402C155.424 51.9932 155.092 51.0044 155.092 49.7739V49.6787ZM156.455 49.8398C156.455 50.7188 156.657 51.4243 157.062 51.9565C157.473 52.4888 158.02 52.7549 158.703 52.7549C159.392 52.7549 159.938 52.4863 160.344 51.9492C160.749 51.4072 160.952 50.6504 160.952 49.6787C160.952 48.8096 160.744 48.1064 160.329 47.5693C159.919 47.0273 159.372 46.7563 158.688 46.7563C158.02 46.7563 157.48 47.0225 157.07 47.5547C156.66 48.0869 156.455 48.8486 156.455 49.8398ZM169.125 46.9102H165.471V53.7144H164.108V45.7896H169.125V46.9102ZM175.432 45.7896H176.787V53.7144H175.432V47.9355L171.777 53.7144H170.422V45.7896H171.777V51.5757L175.432 45.7896ZM185.019 45.7896V53.7144H183.657V50.6309H181.613L179.746 53.7144H178.281L180.273 50.4258C179.765 50.2402 179.375 49.9546 179.101 49.5688C178.833 49.1782 178.698 48.7241 178.698 48.2065C178.698 47.4839 178.969 46.9028 179.511 46.4634C180.053 46.019 180.778 45.7944 181.687 45.7896H185.019ZM180.061 48.2212C180.061 48.6069 180.192 48.9194 180.456 49.1587C180.72 49.3931 181.069 49.5127 181.503 49.5176H183.657V46.8882H181.708C181.206 46.8882 180.805 47.0127 180.507 47.2617C180.209 47.5059 180.061 47.8257 180.061 48.2212ZM195.478 51.9199L198.173 45.7896H199.865V53.7144H198.51V47.9502L195.947 53.7144H195.009L192.395 47.8257V53.7144H191.04V45.7896H192.797L195.478 51.9199ZM206.94 53.7144C206.862 53.5581 206.799 53.2798 206.75 52.8794C206.12 53.5337 205.368 53.8608 204.494 53.8608C203.713 53.8608 203.071 53.6411 202.568 53.2017C202.07 52.7573 201.821 52.1958 201.821 51.5171C201.821 50.6919 202.133 50.0522 202.758 49.5981C203.388 49.1392 204.272 48.9097 205.41 48.9097H206.728V48.2871C206.728 47.8135 206.586 47.4375 206.303 47.1592C206.02 46.876 205.603 46.7344 205.051 46.7344C204.567 46.7344 204.162 46.8564 203.835 47.1006C203.508 47.3447 203.344 47.6401 203.344 47.9868H201.982C201.982 47.5913 202.121 47.2104 202.399 46.8442C202.683 46.4731 203.063 46.1802 203.542 45.9653C204.025 45.7505 204.555 45.6431 205.131 45.6431C206.044 45.6431 206.76 45.8726 207.277 46.3315C207.795 46.7856 208.063 47.4131 208.083 48.2139V51.8613C208.083 52.5889 208.176 53.1675 208.361 53.5972V53.7144H206.94ZM204.692 52.6816C205.117 52.6816 205.52 52.5718 205.9 52.3521C206.281 52.1323 206.557 51.8467 206.728 51.4951V49.8691H205.666C204.006 49.8691 203.176 50.355 203.176 51.3267C203.176 51.7515 203.317 52.0835 203.601 52.3228C203.884 52.562 204.248 52.6816 204.692 52.6816ZM211.687 45.7896V52.6084H214.587V45.7896H215.942V52.6084H218.835V45.7896H220.197V53.7144H210.324V45.7896H211.687ZM227.463 45.7896H228.818V53.7144H227.463V47.9355L223.808 53.7144H222.453V45.7896H223.808V51.5757L227.463 45.7896ZM237.468 53.7144H236.113V50.3306H232.473V53.7144H231.11V45.7896H232.473V49.2246H236.113V45.7896H237.468V53.7144ZM239.292 49.6787C239.292 48.9023 239.443 48.2041 239.746 47.584C240.053 46.9639 240.478 46.4854 241.02 46.1484C241.567 45.8115 242.189 45.6431 242.888 45.6431C243.967 45.6431 244.838 46.0166 245.502 46.7637C246.171 47.5107 246.506 48.5044 246.506 49.7446V49.8398C246.506 50.6113 246.357 51.3047 246.059 51.9199C245.766 52.5303 245.344 53.0063 244.792 53.3481C244.245 53.6899 243.615 53.8608 242.902 53.8608C241.828 53.8608 240.957 53.4873 240.288 52.7402C239.624 51.9932 239.292 51.0044 239.292 49.7739V49.6787ZM240.654 49.8398C240.654 50.7188 240.856 51.4243 241.262 51.9565C241.672 52.4888 242.219 52.7549 242.902 52.7549C243.591 52.7549 244.138 52.4863 244.543 51.9492C244.948 51.4072 245.151 50.6504 245.151 49.6787C245.151 48.8096 244.943 48.1064 244.528 47.5693C244.118 47.0273 243.571 46.7563 242.888 46.7563C242.219 46.7563 241.679 47.0225 241.269 47.5547C240.859 48.0869 240.654 48.8486 240.654 49.8398ZM251.384 52.7549C251.867 52.7549 252.29 52.6084 252.651 52.3154C253.012 52.0225 253.212 51.6562 253.251 51.2168H254.533C254.509 51.6709 254.353 52.103 254.064 52.5132C253.776 52.9233 253.391 53.2505 252.907 53.4946C252.429 53.7388 251.921 53.8608 251.384 53.8608C250.305 53.8608 249.445 53.502 248.806 52.7842C248.171 52.0615 247.854 51.0752 247.854 49.8252V49.5981C247.854 48.8267 247.995 48.1406 248.278 47.54C248.562 46.9395 248.967 46.4731 249.494 46.1411C250.026 45.8091 250.654 45.6431 251.376 45.6431C252.265 45.6431 253.002 45.9092 253.588 46.4414C254.179 46.9736 254.494 47.6646 254.533 48.5142H253.251C253.212 48.0015 253.017 47.5815 252.666 47.2544C252.319 46.9224 251.889 46.7563 251.376 46.7563C250.688 46.7563 250.153 47.0054 249.772 47.5034C249.396 47.9966 249.208 48.7119 249.208 49.6494V49.9058C249.208 50.8188 249.396 51.522 249.772 52.0151C250.148 52.5083 250.686 52.7549 251.384 52.7549ZM261.945 46.8882H259.287V53.7144H257.932V46.8882H255.324V45.7896H261.945V46.8882ZM269.958 49.8398C269.958 51.0459 269.682 52.0176 269.13 52.7549C268.579 53.4922 267.832 53.8608 266.889 53.8608C265.927 53.8608 265.17 53.5557 264.619 52.9453V56.7612H263.264V45.7896H264.501L264.567 46.6685C265.119 45.9849 265.886 45.6431 266.867 45.6431C267.819 45.6431 268.571 46.002 269.123 46.7197C269.68 47.4375 269.958 48.436 269.958 49.7153V49.8398ZM268.603 49.686C268.603 48.7925 268.413 48.0869 268.032 47.5693C267.651 47.0518 267.128 46.793 266.464 46.793C265.644 46.793 265.029 47.1567 264.619 47.8843V51.6709C265.024 52.3936 265.644 52.7549 266.479 52.7549C267.128 52.7549 267.644 52.4985 268.024 51.9858C268.41 51.4683 268.603 50.7017 268.603 49.686ZM271.328 49.6787C271.328 48.9023 271.479 48.2041 271.782 47.584C272.089 46.9639 272.514 46.4854 273.056 46.1484C273.603 45.8115 274.226 45.6431 274.924 45.6431C276.003 45.6431 276.875 46.0166 277.539 46.7637C278.208 47.5107 278.542 48.5044 278.542 49.7446V49.8398C278.542 50.6113 278.393 51.3047 278.095 51.9199C277.802 52.5303 277.38 53.0063 276.828 53.3481C276.281 53.6899 275.651 53.8608 274.938 53.8608C273.864 53.8608 272.993 53.4873 272.324 52.7402C271.66 51.9932 271.328 51.0044 271.328 49.7739V49.6787ZM272.69 49.8398C272.69 50.7188 272.893 51.4243 273.298 51.9565C273.708 52.4888 274.255 52.7549 274.938 52.7549C275.627 52.7549 276.174 52.4863 276.579 51.9492C276.984 51.4072 277.187 50.6504 277.187 49.6787C277.187 48.8096 276.979 48.1064 276.564 47.5693C276.154 47.0273 275.607 46.7563 274.924 46.7563C274.255 46.7563 273.715 47.0225 273.305 47.5547C272.895 48.0869 272.69 48.8486 272.69 49.8398ZM283.53 53.8608C282.456 53.8608 281.582 53.5093 280.908 52.8062C280.234 52.0981 279.897 51.1533 279.897 49.9717V49.7227C279.897 48.9365 280.046 48.2358 280.344 47.6206C280.646 47.0005 281.066 46.5171 281.604 46.1704C282.146 45.8188 282.731 45.6431 283.361 45.6431C284.392 45.6431 285.192 45.9824 285.764 46.6611C286.335 47.3398 286.621 48.3115 286.621 49.5762V50.1401H281.252C281.271 50.9214 281.499 51.5537 281.933 52.0371C282.373 52.5156 282.929 52.7549 283.603 52.7549C284.082 52.7549 284.487 52.6572 284.819 52.4619C285.151 52.2666 285.441 52.0078 285.69 51.6855L286.518 52.3301C285.854 53.3506 284.858 53.8608 283.53 53.8608ZM283.361 46.7563C282.814 46.7563 282.355 46.9565 281.984 47.3569C281.613 47.7524 281.384 48.3091 281.296 49.0269H285.266V48.9243C285.227 48.2358 285.041 47.7036 284.709 47.3276C284.377 46.9468 283.928 46.7563 283.361 46.7563ZM294.67 53.7144H293.315V50.3306H289.675V53.7144H288.312V45.7896H289.675V49.2246H293.315V45.7896H294.67V53.7144ZM301.979 45.7896H303.334V53.7144H301.979V47.9355L298.325 53.7144H296.97V45.7896H298.325V51.5757L301.979 45.7896ZM311.567 45.7896V53.7144H310.205V50.6309H308.161L306.293 53.7144H304.829L306.821 50.4258C306.313 50.2402 305.922 49.9546 305.649 49.5688C305.38 49.1782 305.246 48.7241 305.246 48.2065C305.246 47.4839 305.517 46.9028 306.059 46.4634C306.601 46.019 307.326 45.7944 308.234 45.7896H311.567ZM306.608 48.2212C306.608 48.6069 306.74 48.9194 307.004 49.1587C307.268 49.3931 307.617 49.5127 308.051 49.5176H310.205V46.8882H308.256C307.753 46.8882 307.353 47.0127 307.055 47.2617C306.757 47.5059 306.608 47.8257 306.608 48.2212ZM314.504 46.7637L316.665 49.6128V49.752L314.504 52.6011H313.464L315.354 49.686L313.464 46.7637H314.504ZM317.06 46.7637L319.221 49.6128V49.752L317.06 52.6011H316.02L317.91 49.686L316.02 46.7637H317.06Z" fill="#2E2E2E"/>
<path d="M101.205 30.168H100.168V34H99.043V25.4688H100.168V29.2305H101.047L104.029 25.4688H105.43L102.172 29.6055L105.67 34H104.293L101.205 30.168ZM110.445 34C110.383 33.875 110.332 33.6523 110.293 33.332C109.789 33.8555 109.188 34.1172 108.488 34.1172C107.863 34.1172 107.35 33.9414 106.947 33.5898C106.549 33.2344 106.35 32.7852 106.35 32.2422C106.35 31.582 106.6 31.0703 107.1 30.707C107.604 30.3398 108.311 30.1562 109.221 30.1562H110.275V29.6582C110.275 29.2793 110.162 28.9785 109.936 28.7559C109.709 28.5293 109.375 28.416 108.934 28.416C108.547 28.416 108.223 28.5137 107.961 28.709C107.699 28.9043 107.568 29.1406 107.568 29.418H106.479C106.479 29.1016 106.59 28.7969 106.812 28.5039C107.039 28.207 107.344 27.9727 107.727 27.8008C108.113 27.6289 108.537 27.543 108.998 27.543C109.729 27.543 110.301 27.7266 110.715 28.0938C111.129 28.457 111.344 28.959 111.359 29.5996V32.5176C111.359 33.0996 111.434 33.5625 111.582 33.9062V34H110.445ZM108.646 33.1738C108.986 33.1738 109.309 33.0859 109.613 32.9102C109.918 32.7344 110.139 32.5059 110.275 32.2246V30.9238H109.426C108.098 30.9238 107.434 31.3125 107.434 32.0898C107.434 32.4297 107.547 32.6953 107.773 32.8867C108 33.0781 108.291 33.1738 108.646 33.1738ZM112.824 30.9473C112.824 29.8887 113.029 29.0566 113.439 28.4512C113.85 27.8457 114.412 27.543 115.127 27.543C115.459 27.543 115.75 27.5996 116 27.7129V25H117.084V27.748C117.357 27.6113 117.678 27.543 118.045 27.543C118.764 27.543 119.328 27.8457 119.738 28.4512C120.148 29.0566 120.354 29.9297 120.354 31.0703C120.354 32.0039 120.148 32.7461 119.738 33.2969C119.332 33.8477 118.771 34.123 118.057 34.123C117.678 34.123 117.354 34.0605 117.084 33.9355V36.4375H116V33.9531C115.742 34.0664 115.447 34.123 115.115 34.123C114.404 34.123 113.844 33.8477 113.434 33.2969C113.027 32.7461 112.824 31.9922 112.824 31.0352V30.9473ZM119.27 30.9473C119.27 30.1504 119.133 29.5332 118.859 29.0957C118.586 28.6543 118.209 28.4336 117.729 28.4336C117.482 28.4336 117.268 28.4727 117.084 28.5508V33.1387C117.26 33.2051 117.479 33.2383 117.74 33.2383C118.225 33.2383 118.6 33.0508 118.865 32.6758C119.135 32.3008 119.27 31.7246 119.27 30.9473ZM113.908 31.0703C113.908 31.7812 114.035 32.3203 114.289 32.6875C114.543 33.0547 114.908 33.2383 115.385 33.2383C115.611 33.2383 115.816 33.2031 116 33.1328V28.5332C115.836 28.4668 115.635 28.4336 115.396 28.4336C114.92 28.4336 114.553 28.6465 114.295 29.0723C114.037 29.498 113.908 30.1641 113.908 31.0703ZM124.396 34.1172C123.537 34.1172 122.838 33.8359 122.299 33.2734C121.76 32.707 121.49 31.9512 121.49 31.0059V30.8066C121.49 30.1777 121.609 29.6172 121.848 29.125C122.09 28.6289 122.426 28.2422 122.855 27.9648C123.289 27.6836 123.758 27.543 124.262 27.543C125.086 27.543 125.727 27.8145 126.184 28.3574C126.641 28.9004 126.869 29.6777 126.869 30.6895V31.1406H122.574C122.59 31.7656 122.771 32.2715 123.119 32.6582C123.471 33.041 123.916 33.2324 124.455 33.2324C124.838 33.2324 125.162 33.1543 125.428 32.998C125.693 32.8418 125.926 32.6348 126.125 32.377L126.787 32.8926C126.256 33.709 125.459 34.1172 124.396 34.1172ZM124.262 28.4336C123.824 28.4336 123.457 28.5938 123.16 28.9141C122.863 29.2305 122.68 29.6758 122.609 30.25H125.785V30.168C125.754 29.6172 125.605 29.1914 125.34 28.8906C125.074 28.5859 124.715 28.4336 124.262 28.4336ZM128.076 33.1152L128.451 32.6523C128.873 32.1055 129.113 31.2852 129.172 30.1914L129.271 27.6602H133.355V33.1152H134.17V35.8633H133.086V34H128.662V35.8633H127.578L127.584 33.1152H128.076ZM129.359 33.1152H132.271V28.6621H130.32L130.256 30.1738C130.189 31.4355 129.891 32.416 129.359 33.1152ZM140.727 30.9004C140.727 31.8652 140.506 32.6426 140.064 33.2324C139.623 33.8223 139.025 34.1172 138.271 34.1172C137.502 34.1172 136.896 33.873 136.455 33.3848V36.4375H135.371V27.6602H136.361L136.414 28.3633C136.855 27.8164 137.469 27.543 138.254 27.543C139.016 27.543 139.617 27.8301 140.059 28.4043C140.504 28.9785 140.727 29.7773 140.727 30.8008V30.9004ZM139.643 30.7773C139.643 30.0625 139.49 29.498 139.186 29.084C138.881 28.6699 138.463 28.4629 137.932 28.4629C137.275 28.4629 136.783 28.7539 136.455 29.3359V32.3652C136.779 32.9434 137.275 33.2324 137.943 33.2324C138.463 33.2324 138.875 33.0273 139.18 32.6172C139.488 32.2031 139.643 31.5898 139.643 30.7773ZM146.023 34C145.961 33.875 145.91 33.6523 145.871 33.332C145.367 33.8555 144.766 34.1172 144.066 34.1172C143.441 34.1172 142.928 33.9414 142.525 33.5898C142.127 33.2344 141.928 32.7852 141.928 32.2422C141.928 31.582 142.178 31.0703 142.678 30.707C143.182 30.3398 143.889 30.1562 144.799 30.1562H145.854V29.6582C145.854 29.2793 145.74 28.9785 145.514 28.7559C145.287 28.5293 144.953 28.416 144.512 28.416C144.125 28.416 143.801 28.5137 143.539 28.709C143.277 28.9043 143.146 29.1406 143.146 29.418H142.057C142.057 29.1016 142.168 28.7969 142.391 28.5039C142.617 28.207 142.922 27.9727 143.305 27.8008C143.691 27.6289 144.115 27.543 144.576 27.543C145.307 27.543 145.879 27.7266 146.293 28.0938C146.707 28.457 146.922 28.959 146.938 29.5996V32.5176C146.938 33.0996 147.012 33.5625 147.16 33.9062V34H146.023ZM144.225 33.1738C144.564 33.1738 144.887 33.0859 145.191 32.9102C145.496 32.7344 145.717 32.5059 145.854 32.2246V30.9238H145.004C143.676 30.9238 143.012 31.3125 143.012 32.0898C143.012 32.4297 143.125 32.6953 143.352 32.8867C143.578 33.0781 143.869 33.1738 144.225 33.1738Z" fill="#E4A869"/>
<path d="M90 23.1428H89V56.1428H90V23.1428Z" fill="#37322F"/>
<path d="M5.31458 38.696C5.31458 39.2281 5.75751 39.6663 6.29537 39.6663C6.83323 39.6663 7.27618 39.2281 7.27618 38.696C7.27618 38.1639 6.83323 37.7257 6.29537 37.7257C5.74697 37.7257 5.31458 38.1535 5.31458 38.696Z" fill="#37322F"/>
<path d="M40.4344 0C18.1396 0 0 17.9447 0 40C0 62.0553 18.1396 80 40.4344 80C62.7293 80 80.8689 62.0553 80.8689 40C80.8689 17.9447 62.7293 0 40.4344 0ZM40.4344 78.9567C18.7197 78.9567 1.05463 61.4815 1.05463 40C1.05463 18.5185 18.7197 1.0433 40.4344 1.0433C62.1492 1.0433 79.8143 18.5185 79.8143 40C79.8143 61.4815 62.1492 78.9567 40.4344 78.9567Z" fill="#37322F"/>
<path d="M11.7052 39.9687C11.7052 55.6599 24.6139 68.4298 40.4755 68.4298C56.3371 68.4298 69.2457 55.6599 69.2457 39.9687C69.2457 24.2775 56.3371 11.5075 40.4755 11.5075C24.6139 11.5075 11.7052 24.2775 11.7052 39.9687ZM40.4755 12.6551C55.6937 12.6551 68.0856 24.9035 68.0856 39.9687C68.0856 55.0339 55.7043 67.2822 40.4755 67.2822C25.2466 67.2822 12.8653 55.0339 12.8653 39.9687C12.8653 24.9035 25.2466 12.6551 40.4755 12.6551Z" fill="#37322F"/>
<path d="M9.11097 33.7402C9.14261 33.5315 9.15316 33.3333 9.13206 33.1455C9.11097 32.9577 9.05824 32.7907 8.98442 32.6551C8.91059 32.5091 8.80512 32.3943 8.67857 32.3004C8.55201 32.2065 8.40436 32.1439 8.23562 32.1126C8.11961 32.0917 8.0036 32.0917 7.88759 32.1126C7.77159 32.1335 7.67668 32.1856 7.58176 32.2482C7.48684 32.3108 7.40247 32.4047 7.32864 32.509C7.25482 32.6238 7.19154 32.749 7.14936 32.9055H7.13882C7.11772 32.6447 7.03335 32.436 6.9068 32.2795C6.78024 32.1231 6.6115 32.0291 6.39002 31.9874C6.11582 31.9457 5.8838 32.0187 5.68342 32.2065C5.49359 32.4047 5.35648 32.7177 5.28266 33.1455L5.0401 34.533L8.84731 35.1799L9.11097 33.7402ZM6.81188 33.6358L6.75915 33.9592L5.79943 33.7923L5.86271 33.4584C5.90489 33.2394 5.95763 33.0829 6.03145 32.989C6.10528 32.8951 6.23183 32.8638 6.39002 32.8951C6.56931 32.9264 6.69587 33.0098 6.76969 33.135C6.83297 33.2498 6.84352 33.4272 6.81188 33.6358ZM8.49928 33.7819L8.42547 34.2305L7.34974 34.0531L7.42357 33.6463C7.46576 33.3959 7.53957 33.2081 7.65557 33.1037C7.76104 32.989 7.9087 32.9577 8.09853 32.989C8.28837 33.0203 8.41492 33.1037 8.4782 33.2394C8.53093 33.375 8.54147 33.5523 8.49928 33.7819Z" fill="#37322F"/>
<path d="M9.7344 30.9442L7.94154 28.5968C7.87826 28.5133 7.82552 28.4403 7.77279 28.3777C7.72006 28.3151 7.67788 28.2733 7.64624 28.242V28.2316C7.69897 28.2525 7.7728 28.2838 7.86772 28.3151C7.96264 28.3464 8.07864 28.3881 8.20519 28.4194L10.325 29.0663L10.557 28.3046L6.86581 27.1883L6.59161 28.0647L8.3634 30.3808C8.42668 30.4643 8.4794 30.5373 8.52159 30.5895C8.56377 30.6416 8.60596 30.6834 8.6376 30.7147V30.7251C8.59541 30.7042 8.52158 30.673 8.43721 30.6417C8.35284 30.6104 8.23684 30.579 8.11028 30.5373L6.02212 29.9009L5.7901 30.6521L9.4813 31.7788L9.7344 30.9442Z" fill="#37322F"/>
<path d="M9.09129 23.7558L8.49016 23.495L7.17188 26.4058L7.773 26.6666L8.25814 25.6024L11.1795 26.8961L11.538 26.1137L8.60617 24.82L9.09129 23.7558Z" fill="#37322F"/>
<path d="M13.4361 22.5873L12.8877 22.2743L12.1178 23.6097L11.253 23.1193L11.9174 21.9717L11.369 21.6587L10.7046 22.8064L9.87142 22.3369L10.5991 21.0954L10.0402 20.7824L8.89062 22.7646L12.2443 24.6634L13.4361 22.5873Z" fill="#37322F"/>
<path d="M14.638 20.8867C14.7751 20.6989 14.8701 20.5215 14.9333 20.3442C14.9966 20.1668 15.0177 19.9998 15.0072 19.8329C14.9966 19.6764 14.9544 19.5199 14.8701 19.3843C14.7857 19.2487 14.6697 19.1235 14.522 19.0087C14.3849 18.9148 14.2373 18.8522 14.0896 18.8209C13.942 18.7896 13.7943 18.8001 13.6467 18.8418C13.499 18.8835 13.3514 18.9566 13.2037 19.0609C13.0561 19.1652 12.919 19.3113 12.7924 19.4886L12.3917 20.0416L11.664 19.5199L12.6342 18.195L12.1175 17.8298L10.6516 19.8538L13.7838 22.0864L14.638 20.8867ZM13.1827 19.979C13.3408 19.7703 13.4885 19.6347 13.6256 19.593C13.7627 19.5408 13.9209 19.5825 14.0791 19.6973C14.2478 19.812 14.3217 19.9477 14.3217 20.1042C14.3217 20.2607 14.2373 20.438 14.0896 20.6467L13.7943 21.0536L12.8874 20.4067L13.1827 19.979Z" fill="#37322F"/>
<path d="M14.2789 18.2993C14.4898 18.4871 14.7218 18.6332 14.9539 18.7166C15.1964 18.8001 15.4284 18.8418 15.671 18.8209C15.9136 18.8001 16.1456 18.7375 16.3882 18.6123C16.6202 18.4871 16.8416 18.3097 17.0526 18.0802C17.3795 17.7255 17.5904 17.3812 17.6959 17.0578L17.1791 16.5987C17.1053 16.9221 16.9471 17.2247 16.694 17.5064C16.5569 17.6525 16.4092 17.7672 16.2616 17.8507C16.1139 17.9342 15.9558 17.9759 15.7976 17.9759C15.6394 17.9863 15.4812 17.955 15.3124 17.8924C15.1437 17.8298 14.996 17.7359 14.8484 17.6003C14.6902 17.4647 14.5742 17.3082 14.4898 17.1517C14.4055 16.9952 14.3633 16.8283 14.3527 16.6613C14.3422 16.4944 14.3738 16.3275 14.4371 16.1606C14.5004 15.9936 14.6058 15.8267 14.7429 15.6806C14.9749 15.4303 15.2386 15.2529 15.5445 15.1486L14.996 14.6582C14.7429 14.7938 14.4687 15.0129 14.1945 15.3155C13.9731 15.5554 13.8149 15.8058 13.7094 16.0667C13.6039 16.3275 13.5512 16.5987 13.5617 16.8595C13.5723 17.1204 13.6356 17.3812 13.7516 17.6212C13.8781 17.8716 14.0574 18.0906 14.2789 18.2993Z" fill="#37322F"/>
<path d="M18.8881 16.1921L17.6331 14.7941L17.6436 14.7836C17.6858 14.8045 17.728 14.8149 17.7807 14.8254C17.8229 14.8358 17.8651 14.8462 17.8862 14.8567L19.9322 15.2948L20.7021 14.6167L18.2237 14.1368L18.0549 11.8415L17.3378 12.4675L17.5171 14.4289C17.5171 14.4706 17.5276 14.5124 17.5382 14.5645C17.5487 14.6063 17.5487 14.648 17.5593 14.6793L17.5487 14.6897L16.3464 13.3439L15.7031 13.9073L18.2659 16.7659L18.8881 16.1921Z" fill="#37322F"/>
<path d="M21.6203 13.9696L21.7047 11.0275C21.7047 10.9232 21.7047 10.8293 21.7047 10.7458C21.7047 10.6623 21.6941 10.5998 21.6941 10.558L21.7047 10.5476C21.7257 10.5997 21.7679 10.6623 21.8207 10.7458C21.8734 10.8293 21.9367 10.9232 22.0105 11.0379L23.2655 12.8533L23.9299 12.4046L21.7574 9.25391L20.9981 9.76511L20.9242 12.6655C20.9242 12.7698 20.9242 12.8637 20.9242 12.9263C20.9242 12.9889 20.9242 13.0515 20.9348 13.0932L20.9242 13.1037C20.9031 13.0619 20.861 12.9993 20.8188 12.9159C20.766 12.8324 20.7028 12.7385 20.6289 12.6342L19.4056 10.8501L18.7411 11.2988L20.9137 14.4495L21.6203 13.9696Z" fill="#37322F"/>
<path d="M24.8987 10.4957C24.8882 10.5583 24.8882 10.6209 24.8882 10.6626H24.8776C24.8565 10.6209 24.8354 10.5478 24.7933 10.4644C24.7511 10.3809 24.7089 10.2766 24.6456 10.1618L23.6859 8.22124L22.9688 8.56555L24.6667 11.998L25.4471 11.6224L25.9534 8.72204C25.9744 8.61771 25.985 8.53423 25.9955 8.45077C26.0061 8.36731 26.0061 8.30472 26.0061 8.26298L26.0166 8.25254C26.0377 8.30471 26.0588 8.37775 26.101 8.46121C26.1432 8.55511 26.1959 8.65943 26.2486 8.77419L27.2295 10.746L27.9466 10.4018L26.2486 6.96931L25.4155 7.36576L24.9198 10.2348C24.9198 10.3392 24.8987 10.4331 24.8987 10.4957Z" fill="#37322F"/>
<path d="M23.5496 7.35533C23.8027 7.42836 24.0663 7.39708 24.3511 7.27188C24.6147 7.14669 24.8046 6.95888 24.91 6.69805C25.0155 6.44766 25.0155 6.18683 24.91 5.90514L24.4671 6.11381C24.5198 6.2703 24.5093 6.40593 24.4566 6.54156C24.4038 6.67719 24.2984 6.7711 24.1613 6.84413C23.8343 7.00062 23.5707 6.93801 23.3914 6.63546L22.9484 6.84413C23.0961 7.11539 23.2965 7.2823 23.5496 7.35533Z" fill="#37322F"/>
<path d="M31.343 9.27498L30.4571 6.21813L31.923 5.80081L31.7437 5.18527L29.4552 5.84252L30.5204 9.5045L31.343 9.27498Z" fill="#37322F"/>
<path d="M32.7465 7.74115C32.8836 7.96024 33.0524 8.13761 33.2528 8.27324C33.4531 8.40887 33.6852 8.50275 33.9383 8.55492C34.1914 8.60708 34.4656 8.60708 34.7609 8.55492C35.0562 8.50275 35.3198 8.40887 35.5519 8.27324C35.7839 8.13761 35.9632 7.97067 36.1108 7.77244C36.2585 7.57422 36.3534 7.33428 36.4061 7.07345C36.4588 6.81263 36.4588 6.53094 36.4061 6.22838C36.3534 5.95713 36.269 5.70671 36.1424 5.48762C36.0159 5.26853 35.8472 5.09118 35.6468 4.94512C35.4464 4.79906 35.2249 4.70516 34.9718 4.653C34.7187 4.60083 34.4445 4.59039 34.1597 4.64255C33.8434 4.69472 33.5692 4.78861 33.3371 4.93467C33.1051 5.0703 32.9153 5.24766 32.7676 5.45632C32.62 5.66498 32.5251 5.89452 32.4723 6.15535C32.4196 6.41617 32.4196 6.68744 32.4723 6.97956C32.5251 7.28211 32.6094 7.52205 32.7465 7.74115ZM33.4848 5.81104C33.5586 5.67541 33.6641 5.57108 33.7906 5.48762C33.9172 5.40416 34.0648 5.34158 34.2336 5.31028C34.4129 5.27898 34.5711 5.27896 34.7082 5.32069C34.8558 5.35199 34.9824 5.42502 35.0878 5.51892C35.1933 5.61281 35.2882 5.74844 35.362 5.90493C35.4358 6.06143 35.4886 6.23881 35.5308 6.44747C35.5624 6.65613 35.573 6.83349 35.5519 7.00041C35.5308 7.16734 35.4886 7.31338 35.4148 7.43858C35.3409 7.56378 35.246 7.66812 35.1195 7.75159C34.9929 7.83505 34.8452 7.88722 34.666 7.91852C34.4972 7.94982 34.3496 7.93938 34.2019 7.90808C34.0543 7.86634 33.9277 7.80373 33.8223 7.6994C33.7063 7.60551 33.6113 7.48033 33.5375 7.32383C33.4637 7.16734 33.4004 7.00041 33.3688 6.80218C33.3371 6.60396 33.3266 6.4266 33.3477 6.24924C33.3688 6.07188 33.411 5.93624 33.4848 5.81104Z" fill="#37322F"/>
<path d="M37.5123 7.67859C37.6916 7.83508 37.9131 7.94984 38.1662 8.0333C38.4193 8.10634 38.7041 8.14806 39.0204 8.1272C39.5056 8.10633 39.8958 8.01246 40.2122 7.85596L40.1805 7.16738C39.8958 7.34474 39.5689 7.44907 39.1892 7.4595C38.9888 7.46994 38.799 7.44907 38.6408 7.39691C38.472 7.34474 38.3349 7.26127 38.2189 7.15694C38.1029 7.05261 38.008 6.91698 37.9447 6.76048C37.8814 6.60399 37.8393 6.42665 37.8287 6.22842C37.8182 6.01976 37.8393 5.83196 37.9025 5.66503C37.9553 5.4981 38.0396 5.35203 38.1557 5.22683C38.2717 5.10164 38.4088 5.00774 38.5775 4.93471C38.7462 4.86168 38.9361 4.81995 39.147 4.80952C39.495 4.78865 39.8114 4.85124 40.0962 4.99731L40.0645 4.26702C39.7903 4.18355 39.4423 4.14181 39.031 4.16268C38.704 4.17311 38.4088 4.24614 38.1451 4.35047C37.8814 4.46523 37.66 4.61128 37.4807 4.79908C37.2909 4.98687 37.1537 5.20598 37.0588 5.4668C36.9639 5.72763 36.9217 5.99888 36.9428 6.31187C36.9534 6.59356 37.0166 6.85437 37.1221 7.0839C37.1854 7.33429 37.333 7.52209 37.5123 7.67859Z" fill="#37322F"/>
<path d="M41.1721 8.11688C41.383 8.12732 41.5623 8.11688 41.71 8.07514C41.8576 8.03341 42.0053 7.96037 42.1318 7.86647C42.2584 7.77257 42.3744 7.6474 42.4904 7.50134C42.6064 7.35528 42.7119 7.17792 42.8384 6.97969L44.336 4.4236L43.429 4.37145L42.6486 5.83206C42.6064 5.91553 42.5537 6.00941 42.5115 6.08244C42.4693 6.16591 42.4271 6.24936 42.3849 6.33282C42.3744 6.28066 42.3638 6.22851 42.3427 6.18678C42.3217 6.14505 42.3111 6.09288 42.3006 6.05115L41.5518 4.26712L40.6237 4.20452L41.8892 6.96925C41.826 7.07358 41.7521 7.15704 41.6889 7.23008C41.6256 7.30311 41.5623 7.35526 41.4885 7.38656C41.4252 7.4283 41.3619 7.44915 41.2987 7.47001C41.2354 7.48045 41.1721 7.49089 41.1088 7.48046C40.9295 7.47002 40.7608 7.40742 40.6026 7.31353L40.5604 8.01255C40.6342 8.04385 40.7081 8.07513 40.803 8.096C40.9084 8.096 41.0245 8.10645 41.1721 8.11688Z" fill="#37322F"/>
<path d="M43.5562 7.52214L43.2609 9.16012L44.0308 9.29572L44.2101 8.27331L46.8889 8.74278L46.7096 9.75478L47.4794 9.89041L47.6587 8.88885L48.4708 9.13923L49.0297 8.37765L50.4218 8.8054L50.464 9.74436L51.3605 10.0156L51.0863 5.93634L50.1582 5.65463L47.6904 8.73237L47.7747 8.25243L47.1947 8.14812L47.7536 5.00779L45.4546 4.61133C45.3913 4.89302 45.3069 5.16428 45.2014 5.43554C45.096 5.7068 44.98 5.96762 44.8534 6.21801C44.7163 6.46841 44.5792 6.70837 44.421 6.93789C44.2628 7.16742 44.0941 7.37606 43.9253 7.57429L43.5562 7.52214ZM50.1687 6.83356C50.2109 6.77096 50.2531 6.70837 50.2953 6.64577C50.3375 6.58317 50.3691 6.531 50.3902 6.47884L50.4113 6.48928C50.4008 6.54145 50.3902 6.61445 50.3902 6.68748C50.3902 6.76051 50.3902 6.83355 50.3902 6.89615L50.4324 8.17942L49.4305 7.87685L50.1687 6.83356ZM45.1909 7.20913C45.3175 7.0109 45.444 6.80225 45.56 6.59359C45.676 6.38493 45.7815 6.16585 45.8659 5.95719C45.9502 5.74853 46.0241 5.55031 46.0662 5.37295L46.7939 5.49814L46.351 8.01249L44.8112 7.74122C44.9378 7.58473 45.0643 7.40735 45.1909 7.20913Z" fill="#37322F"/>
<path d="M52.9535 9.27481L53.3648 9.45219C53.5862 9.54609 53.7866 9.59825 53.9975 9.61912C54.1979 9.63999 54.3877 9.61911 54.5565 9.57738C54.7252 9.53565 54.8834 9.44176 55.01 9.327C55.1365 9.21224 55.2526 9.06616 55.3264 8.8888C55.4846 8.53408 55.4846 8.21064 55.3264 7.92895C55.1682 7.63683 54.8623 7.39689 54.3983 7.19866L53.1644 6.66657L51.6141 10.1616L52.405 10.5059L52.9535 9.27481ZM53.7128 7.56382L54.0503 7.70987C54.2823 7.8142 54.4299 7.92896 54.5038 8.06459C54.5776 8.20022 54.567 8.36715 54.4827 8.56538C54.3878 8.77404 54.2612 8.89923 54.103 8.9514C53.9448 9.00356 53.7444 8.97228 53.5019 8.86795L53.1855 8.73231L53.7128 7.56382Z" fill="#37322F"/>
<path d="M55.1469 10.5893C55.1048 10.8397 55.1258 11.0797 55.1891 11.3092C55.2524 11.5387 55.3684 11.7578 55.5477 11.956C55.7164 12.1543 55.9379 12.3421 56.2121 12.4881C56.634 12.7281 57.0136 12.8637 57.3511 12.895L57.6992 12.3003C57.3617 12.3003 57.0347 12.2064 56.6972 12.0186C56.518 11.9143 56.3809 11.7996 56.2649 11.6744C56.1594 11.5387 56.0856 11.4031 56.0434 11.2466C56.0012 11.0901 56.0012 10.9336 56.0223 10.7667C56.0539 10.5997 56.1172 10.4328 56.2121 10.2555C56.3176 10.0781 56.4336 9.93203 56.5812 9.81726C56.7183 9.7025 56.8765 9.6295 57.0347 9.58777C57.1929 9.54604 57.3722 9.53558 57.5515 9.56688C57.7308 9.59818 57.9101 9.66078 58.0894 9.76511C58.3847 9.94247 58.6167 10.1616 58.7854 10.4328L59.1545 9.79641C58.9647 9.57732 58.7011 9.35824 58.3425 9.16001C58.0577 8.99309 57.773 8.88874 57.4988 8.84701C57.214 8.79484 56.9504 8.80529 56.6867 8.86789C56.423 8.93049 56.191 9.04523 55.9696 9.20172C55.7481 9.35822 55.5688 9.57734 55.4106 9.84859C55.2841 10.099 55.1891 10.3494 55.1469 10.5893Z" fill="#37322F"/>
<path d="M62.2446 11.8832L59.6502 10.0053L59.26 10.527L60.2091 11.2155L58.3214 13.7716L59.0174 14.2828L60.9052 11.7163L61.8649 12.4049L62.2446 11.8832Z" fill="#37322F"/>
<path d="M61.4005 16.2336C61.5587 16.3796 61.7274 16.4944 61.8961 16.5778C62.0649 16.6613 62.2336 16.7031 62.3918 16.7239C62.55 16.7343 62.7082 16.7135 62.8558 16.6613C63.0035 16.6092 63.13 16.5152 63.2461 16.3901C63.3304 16.3066 63.3832 16.2023 63.4253 16.0979C63.4675 15.9936 63.4781 15.8788 63.4781 15.7641C63.4675 15.6493 63.4464 15.5345 63.3832 15.4094C63.3304 15.2842 63.246 15.1694 63.1406 15.0546L63.1511 15.0442C63.3832 15.159 63.6046 15.2111 63.8155 15.1903C64.0159 15.1694 64.1952 15.0755 64.3429 14.919C64.5327 14.7103 64.596 14.4808 64.5327 14.2096C64.4694 13.9383 64.2796 13.6671 63.9527 13.3645L62.898 12.4255L60.3036 15.2529L61.4005 16.2336ZM63.1406 13.4375L63.3937 13.667C63.5624 13.8131 63.6679 13.9487 63.6996 14.0635C63.7417 14.1783 63.6995 14.293 63.5941 14.4078C63.4675 14.5434 63.3304 14.606 63.1933 14.5956C63.0457 14.5851 62.898 14.5121 62.7398 14.3661L62.4973 14.147L63.1406 13.4375ZM62.3813 14.8668C62.5711 15.0442 62.6871 15.2007 62.7293 15.3572C62.7609 15.5033 62.7187 15.6493 62.5922 15.7954C62.4656 15.9414 62.3285 15.9936 62.1809 15.9727C62.0332 15.9519 61.875 15.858 61.6958 15.7119L61.3477 15.4094L62.086 14.606L62.3813 14.8668Z" fill="#37322F"/>
<path d="M64.5021 19.4365L64.9767 19.0192L63.9432 17.8716L64.6814 17.2248L65.5673 18.2055L66.0524 17.7777L65.156 16.797L65.8626 16.171L66.8328 17.2352L67.3074 16.8179L65.7677 15.1069L62.8885 17.6525L64.5021 19.4365Z" fill="#37322F"/>
<path d="M68.0236 17.6629L64.8703 19.8643L65.366 20.5633L66.7265 19.6139L67.7283 21.0224L66.3679 21.9613L66.8636 22.6708L70.0169 20.4694L69.5212 19.7704L68.2662 20.6468L67.2643 19.2383L68.5193 18.3619L68.0236 17.6629Z" fill="#37322F"/>
<path d="M67.7065 24.1419L69.183 23.3907L69.9845 24.9139L68.508 25.6755L68.8982 26.4267L72.3257 24.674L71.9355 23.9123L70.5645 24.6114L69.763 23.0881L71.134 22.3891L70.7333 21.6275L67.3057 23.3802L67.7065 24.1419Z" fill="#37322F"/>
<path d="M74.0307 29.1907L70.375 30.416L70.6525 31.2263L74.3083 30.0009L74.0307 29.1907Z" fill="#37322F"/>
<path d="M69.733 28.5655C69.8069 28.7741 69.9018 28.962 70.0073 29.108C70.1233 29.2645 70.2498 29.3793 70.3869 29.4627C70.524 29.5462 70.6822 29.5984 70.8404 29.6192C70.9986 29.6401 71.1674 29.6192 71.3466 29.5566C71.5048 29.5045 71.6419 29.421 71.7474 29.3167C71.8529 29.2123 71.9372 29.0871 71.99 28.9411C72.0427 28.795 72.0638 28.6385 72.0638 28.4612C72.0532 28.2838 72.0216 28.0856 71.9478 27.8769L71.7263 27.2301L73.1817 26.7397L72.9075 25.9364L69.2479 27.1571L69.733 28.5655ZM71.1673 27.4387L71.3361 27.9186C71.4205 28.1586 71.4415 28.3464 71.3994 28.4925C71.3572 28.6385 71.2412 28.7429 71.0513 28.8055C70.8615 28.868 70.7033 28.8576 70.5768 28.7637C70.4502 28.6698 70.3447 28.5029 70.2709 28.2629L70.1127 27.7935L71.1673 27.4387Z" fill="#37322F"/>
<path d="M70.9758 32.8638L73.6545 34.1575C73.7495 34.1992 73.8338 34.2409 73.9077 34.2722C73.9815 34.3035 74.0448 34.3244 74.0869 34.3348V34.3453C74.0342 34.3453 73.9498 34.3557 73.8549 34.3662C73.76 34.3766 73.644 34.3974 73.5069 34.4183L71.3238 34.7939L71.4609 35.5763L75.2576 34.9191L75.0994 34.0218L72.4523 32.7595C72.3573 32.7177 72.273 32.676 72.2097 32.6551C72.1464 32.6343 72.0937 32.6134 72.0515 32.5925V32.5821C72.1042 32.5821 72.1781 32.5717 72.273 32.5612C72.3679 32.5508 72.4839 32.5299 72.6105 32.5091L74.7619 32.1335L74.6248 31.351L70.8281 32.0083L70.9758 32.8638Z" fill="#37322F"/>
<path d="M75.9022 33.7298C76.1131 33.8967 76.3768 33.9698 76.6721 33.9489L76.5877 33.469C76.4295 33.469 76.2924 33.4273 76.1764 33.3334C76.0604 33.2395 75.9971 33.1247 75.9655 32.9682C75.9022 32.6135 76.0393 32.384 76.3768 32.3005L76.2924 31.8206C75.9971 31.8832 75.7862 32.0292 75.6385 32.2483C75.4909 32.4674 75.4487 32.7282 75.5014 33.0308C75.5542 33.3229 75.6807 33.5525 75.9022 33.7298Z" fill="#37322F"/>
<path d="M8.13095 41.9509L4.93542 42.097L4.96706 42.9525L8.17313 42.8064L8.22586 43.9749L8.87973 43.9436L8.73208 40.7511L8.07821 40.7824L8.13095 41.9509Z" fill="#37322F"/>
<path d="M5.89526 45.7173L6.87607 45.5713L7.0659 46.8859L7.69868 46.7919L7.50884 45.4878L8.44746 45.3522L8.6584 46.7711L9.29116 46.6772L8.95369 44.4132L5.13593 44.9662L5.48395 47.324L6.11674 47.2301L5.89526 45.7173Z" fill="#37322F"/>
<path d="M10.2087 50.4018L9.9767 49.4837L8.74278 49.1185C8.67951 49.0976 8.62677 49.0872 8.57404 49.0768C8.52131 49.0663 8.46857 49.0559 8.40529 49.0559V49.0455C8.50021 48.9829 8.58459 48.9099 8.65841 48.8368L9.57593 47.9605L9.32282 46.9693L7.78307 48.5969L5.5578 47.8039L5.8109 48.7742L7.18192 49.1707C7.23465 49.1811 7.28738 49.1915 7.32957 49.202C7.37175 49.2124 7.4034 49.2124 7.43504 49.2124V49.2228C7.39285 49.2541 7.35067 49.275 7.31903 49.3063C7.28739 49.3272 7.25575 49.3585 7.22412 49.3898L6.23276 50.3913L6.48588 51.3616L8.03617 49.661L10.2087 50.4018Z" fill="#37322F"/>
<path d="M11.3064 53.1979L9.87208 53.7612L9.23929 52.1546L10.663 51.6016L10.3467 50.7983L6.76093 52.1963L7.07732 52.9996L8.61707 52.3945L9.26039 54.0012L7.71008 54.5959L8.02648 55.3992L11.6228 54.0012L11.3064 53.1979Z" fill="#37322F"/>
<path d="M11.3701 59.1861C11.6338 59.1444 11.908 59.0505 12.1822 58.9044C12.4248 58.7688 12.6357 58.6019 12.7939 58.4037C12.9521 58.2054 13.0681 57.9968 13.1419 57.7673C13.2157 57.5377 13.2263 57.2978 13.1946 57.0369C13.163 56.7761 13.0786 56.5257 12.931 56.2753C12.7728 56.0041 12.5935 55.7745 12.3826 55.6076C12.1717 55.4407 11.9396 55.3155 11.6971 55.2529C11.4545 55.1903 11.2014 55.1694 10.9377 55.2112C10.6741 55.2529 10.4104 55.3468 10.1468 55.4929C9.89365 55.6285 9.69328 55.7954 9.52454 56.0041C9.3558 56.2127 9.25034 56.4214 9.18706 56.6509C9.12379 56.8804 9.10268 57.1308 9.14487 57.3812C9.18705 57.6421 9.27144 57.8924 9.41908 58.1533C9.56673 58.4141 9.73547 58.6227 9.9464 58.7897C10.1468 58.9566 10.3682 59.0714 10.6108 59.1444C10.8428 59.207 11.0959 59.2279 11.3701 59.1861ZM10.2944 58.2054C10.1784 58.1115 10.073 57.9968 9.97803 57.8403C9.89366 57.6942 9.85147 57.5482 9.84093 57.4021C9.83038 57.256 9.85147 57.11 9.9042 56.9743C9.95693 56.8387 10.0519 56.7135 10.1679 56.5883C10.2839 56.4631 10.4315 56.3588 10.6108 56.2545C10.7901 56.1606 10.9588 56.0875 11.1276 56.0562C11.2963 56.0145 11.4545 56.0145 11.6022 56.0458C11.7498 56.0667 11.8869 56.1293 12.0135 56.2127C12.14 56.2962 12.2455 56.4214 12.3299 56.5675C12.4142 56.724 12.467 56.87 12.4775 57.0161C12.488 57.1621 12.467 57.2978 12.4142 57.4334C12.3615 57.569 12.2666 57.6942 12.14 57.8194C12.0135 57.9446 11.8658 58.0489 11.676 58.1533C11.4967 58.2576 11.3174 58.3202 11.1592 58.3619C10.9905 58.4037 10.8323 58.4037 10.6952 58.3828C10.5475 58.3619 10.421 58.2993 10.2944 58.2054Z" fill="#37322F"/>
<path d="M14.6395 59.0924C14.4602 59.1863 14.2809 59.2801 14.1227 59.374C13.954 59.4575 13.7958 59.541 13.6376 59.6245C13.4794 59.7079 13.3212 59.7809 13.163 59.854C13.0048 59.927 12.8572 60 12.699 60.0731C12.4986 60.167 12.3299 60.2295 12.1928 60.2921C12.0557 60.3443 11.9291 60.3756 11.8342 60.3965C11.7393 60.4069 11.6549 60.4069 11.5811 60.386C11.5178 60.3547 11.4545 60.313 11.4018 60.24C11.3385 60.1565 11.2963 60.0626 11.2647 59.9479L10.7479 60.3234C10.8007 60.4695 10.885 60.6051 10.9905 60.7512C11.117 60.9181 11.2541 61.0433 11.4018 61.1059C11.5494 61.1789 11.6971 61.2103 11.8447 61.2103C11.9924 61.2103 12.1506 61.179 12.3088 61.1268C12.467 61.0746 12.6252 61.0016 12.7939 60.9286C12.9099 60.8764 13.0259 60.8242 13.1525 60.7616C13.279 60.699 13.4161 60.6364 13.5532 60.5634C13.6903 60.4904 13.8485 60.4174 14.0173 60.3339C14.1755 60.2504 14.3548 60.1565 14.5551 60.0522L15.0403 60.6886L12.4775 62.5979L12.9943 63.276L16.0738 60.9807L14.6395 59.0924Z" fill="#37322F"/>
<path d="M18.3506 64.9243C18.456 64.6948 18.5087 64.4549 18.5193 64.2149C18.5193 63.9749 18.4771 63.735 18.3822 63.495C18.2873 63.2551 18.1291 63.036 17.9182 62.8273C17.6967 62.5978 17.4541 62.4309 17.2116 62.3265C16.969 62.2222 16.7053 62.1596 16.4628 62.1596C16.2097 62.1596 15.9566 62.2118 15.714 62.3161C15.4714 62.4204 15.2394 62.5769 15.0285 62.7856C14.8281 62.9838 14.6699 63.2029 14.5644 63.4324C14.459 63.662 14.4062 63.9019 14.4062 64.1419C14.4062 64.3818 14.459 64.6218 14.5644 64.8617C14.6699 65.1017 14.8281 65.3208 15.0285 65.5295C15.2394 65.7381 15.4609 65.905 15.7034 66.0094C15.946 66.1137 16.1886 66.1763 16.4417 66.1763C16.6948 66.1763 16.9374 66.1346 17.1905 66.0198C17.4436 65.9051 17.6756 65.759 17.8971 65.5399C18.0869 65.3625 18.2451 65.1539 18.3506 64.9243ZM17.5807 64.5175C17.4963 64.6635 17.3698 64.8096 17.2221 64.9661C17.0745 65.1121 16.9268 65.2269 16.7792 65.2999C16.6315 65.3834 16.4839 65.4251 16.3362 65.4356C16.1886 65.446 16.0409 65.4251 15.9038 65.3729C15.7667 65.3208 15.6296 65.2269 15.5031 65.1017C15.387 64.9869 15.3027 64.8513 15.25 64.7157C15.1972 64.5801 15.1867 64.434 15.1972 64.2879C15.2183 64.1419 15.2605 63.9958 15.3449 63.8497C15.4292 63.7037 15.5452 63.5576 15.6823 63.4116C15.83 63.2759 15.9777 63.1612 16.1253 63.0882C16.2729 63.0047 16.4311 62.963 16.5788 62.9525C16.7264 62.9421 16.8741 62.9525 17.0217 63.0151C17.1694 63.0777 17.2959 63.1507 17.4225 63.2759C17.549 63.4011 17.6334 63.5368 17.6861 63.6724C17.7389 63.808 17.7494 63.9541 17.7283 64.0897C17.7178 64.2253 17.665 64.3714 17.5807 64.5175Z" fill="#37322F"/>
<path d="M21.1555 66.5727L21.5563 66.0719L19.7001 64.5904L17.2745 67.5534L17.9494 68.0959L19.9743 65.6233L21.1555 66.5727Z" fill="#37322F"/>
<path d="M24.2251 67.804L21.5042 68.889C21.3987 68.9308 21.3249 68.962 21.2616 68.9933C21.1984 69.0246 21.1562 69.0455 21.114 69.0664H21.1034C21.1351 69.0246 21.1773 68.9725 21.23 68.889C21.2827 68.8056 21.346 68.7221 21.4198 68.6073L22.5905 66.7815L21.9155 66.3538L19.8484 69.5776L20.5867 70.0366L23.3604 68.9516C23.4553 68.9099 23.5396 68.8786 23.6135 68.8473C23.6873 68.816 23.74 68.7847 23.7822 68.7638L23.7927 68.7742C23.7611 68.816 23.7084 68.8786 23.6557 68.962C23.6029 69.0455 23.5396 69.1394 23.4658 69.2542L22.2741 71.1112L22.949 71.539L25.0161 68.3152L24.2251 67.804Z" fill="#37322F"/>
<path d="M27.8426 69.6297L27.1466 71.1216C26.9567 71.132 26.788 71.1216 26.6298 71.1008C26.4716 71.0799 26.324 71.0382 26.1869 70.9756C26.0076 70.8921 25.9021 70.7982 25.8599 70.673C25.8177 70.5478 25.8388 70.4017 25.9232 70.2139L26.4822 69.0037L25.7017 68.649L25.09 69.9636C24.9319 70.2974 24.9108 70.5895 25.0162 70.8399C25.1217 71.0903 25.3432 71.299 25.6912 71.445C25.881 71.5285 26.0814 71.5911 26.2818 71.6224C26.4821 71.6537 26.6931 71.6641 26.904 71.6537L26.2396 73.0935L27.02 73.4482L28.6336 69.9844L27.8426 69.6297Z" fill="#37322F"/>
<path d="M31.492 71.6118L31.6924 71.0067L29.4882 70.2868L28.2859 73.9175L30.5745 74.6583L30.7643 74.0636L29.2984 73.5837L29.6148 72.6551L30.8803 73.062L31.0807 72.4673L29.8152 72.05L30.1105 71.1632L31.492 71.6118Z" fill="#37322F"/>
<path d="M33.3584 71.4971C33.0737 71.5389 32.8206 71.6223 32.5886 71.758C32.3671 71.8936 32.1667 72.071 32.0085 72.3005C31.8503 72.5196 31.7448 72.7804 31.671 73.083C31.6077 73.3646 31.5972 73.6255 31.6394 73.8759C31.6816 74.1263 31.7659 74.3453 31.903 74.5436C32.0401 74.7418 32.2194 74.9087 32.4409 75.0548C32.6624 75.1904 32.926 75.2948 33.2319 75.3678C33.7065 75.4721 34.1178 75.4826 34.4447 75.4095L34.5924 74.7314C34.276 74.8357 33.9279 74.8461 33.5483 74.7627C33.3479 74.7209 33.1792 74.6479 33.0315 74.554C32.8839 74.4601 32.7678 74.3453 32.6835 74.2097C32.5991 74.0741 32.5464 73.928 32.5147 73.7611C32.4936 73.5942 32.5042 73.4168 32.5464 73.2186C32.5886 73.0204 32.6624 72.843 32.7573 72.6969C32.8522 72.5509 32.9788 72.4257 33.1159 72.3422C33.253 72.2483 33.4217 72.1961 33.601 72.1648C33.7803 72.1335 33.9701 72.144 34.181 72.1857C34.5185 72.2588 34.8033 72.4048 35.0458 72.6135L35.204 71.8936C34.9615 71.7371 34.6345 71.6223 34.2338 71.5284C33.949 71.4658 33.6432 71.4554 33.3584 71.4971Z" fill="#37322F"/>
<path d="M38.0404 72.1127L36.7115 73.5838C36.6799 73.6151 36.6482 73.6463 36.6271 73.6881C36.6061 73.7298 36.5744 73.7611 36.5639 73.782H36.5533L36.7326 71.9875L35.8678 71.904L35.4776 75.7016L36.3424 75.7851L36.5322 73.9176H36.5428C36.5639 73.9593 36.5744 74.0011 36.5955 74.0428C36.6166 74.0845 36.6377 74.1158 36.6482 74.1367L37.7134 75.9103L38.7364 76.0146L37.4076 73.8863L39.0001 72.2066L38.0404 72.1127Z" fill="#37322F"/>
<path d="M42.153 72.1439L40.5078 74.5539C40.4445 74.6478 40.4023 74.7209 40.3601 74.773C40.3285 74.8252 40.2968 74.8774 40.2758 74.9191H40.2652C40.2652 74.8669 40.2758 74.7939 40.2758 74.7C40.2758 74.6061 40.2758 74.4913 40.2758 74.3557L40.2125 72.1961L39.4109 72.217L39.527 76.0354L40.3918 76.0145L42.0686 73.5837C42.1319 73.5002 42.1741 73.4168 42.2163 73.3542C42.2585 73.2811 42.2901 73.229 42.3006 73.1872H42.3112C42.3112 73.2394 42.3006 73.3229 42.3006 73.4168C42.3006 73.5107 42.3006 73.6358 42.3006 73.761L42.3639 75.9624L43.1654 75.9415L43.06 72.123L42.153 72.1439Z" fill="#37322F"/>
<path d="M46.6238 71.5703L45.3371 74.1785C45.295 74.2724 45.2528 74.3559 45.2317 74.4185C45.2106 74.4811 45.1895 74.5332 45.1684 74.575H45.1579C45.1579 74.5228 45.1473 74.4498 45.1368 74.3559C45.1262 74.262 45.1051 74.1472 45.084 74.022L44.7149 71.8937L43.924 72.0293L44.5778 75.7956L45.4321 75.6496L46.7503 72.9996C46.7925 72.9057 46.8347 72.8222 46.8664 72.7492C46.898 72.6762 46.9191 72.6136 46.9296 72.5719H46.9402C46.9402 72.624 46.9507 72.7075 46.9613 72.8014C46.9718 72.8953 46.9929 73.01 47.014 73.1457L47.3937 75.3157L48.1846 75.1801L47.5308 71.4138L46.6238 71.5703Z" fill="#37322F"/>
<path d="M45.5596 70.7146C45.1904 70.7772 44.969 70.6416 44.8846 70.3077L44.3995 70.3912C44.4628 70.6834 44.6104 70.892 44.8319 71.0381C45.0533 71.1841 45.317 71.2259 45.6228 71.1737C45.9181 71.1215 46.1396 70.9963 46.3189 70.7772C46.4876 70.5686 46.5615 70.3077 46.5404 70.0156L46.0552 70.0991C46.0552 70.2556 46.0131 70.3912 45.9181 70.506C45.8338 70.6207 45.7072 70.6938 45.5596 70.7146Z" fill="#37322F"/>
<path d="M52.3623 71.4658C52.3517 71.5597 52.3517 71.664 52.3412 71.7475C52.3412 71.8414 52.3306 71.9353 52.3306 72.0292C52.299 71.9874 52.2673 71.9457 52.2357 71.904C52.204 71.8622 52.1724 71.8309 52.1408 71.7996L50.717 70.4746L49.8417 70.7981L52.1408 72.8116C52.1197 72.9368 52.0986 73.0412 52.0669 73.1246C52.0353 73.2081 52.0037 73.2916 51.9509 73.3542C51.9087 73.4168 51.856 73.4689 51.8033 73.5002C51.7506 73.5419 51.6978 73.5732 51.6346 73.5941C51.4658 73.6567 51.2865 73.6671 51.1072 73.6463L51.3498 74.3036C51.4236 74.3036 51.508 74.2931 51.6029 74.2723C51.6978 74.2514 51.8138 74.2201 51.9509 74.1679C52.1408 74.0949 52.299 74.0114 52.4255 73.9071C52.5521 73.8028 52.647 73.688 52.7314 73.5419C52.8052 73.4063 52.8685 73.2394 52.9107 73.062C52.9528 72.8847 52.9845 72.676 53.0056 72.4465L53.3114 69.5148L52.4677 69.8278L52.3623 71.4658Z" fill="#37322F"/>
<path d="M55.9055 68.1689L56.6121 69.5043L55.0723 70.3076L54.3552 68.9618L53.5958 69.3687L55.3992 72.7385L56.1586 72.3421L55.3887 70.8919L56.9284 70.0886L57.6983 71.5387L58.4682 71.1423L56.6648 67.762L55.9055 68.1689Z" fill="#37322F"/>
<path d="M59.6387 65.7172L59.6492 68.6176C59.6492 68.7219 59.6492 68.8158 59.6492 68.8784C59.6492 68.941 59.6598 68.9932 59.6598 69.0454L59.6492 69.0558C59.6281 69.0141 59.5859 68.9514 59.5332 68.868C59.4805 68.7845 59.4172 68.6906 59.3434 68.5863L58.0673 66.8336L57.424 67.303L59.6809 70.3912L60.3875 69.8904V66.9483C60.3875 66.844 60.3875 66.7501 60.3769 66.677C60.3664 66.5936 60.3664 66.531 60.3558 66.4893L60.3664 66.4789C60.398 66.531 60.4296 66.5936 60.4929 66.677C60.5457 66.7605 60.6195 66.8544 60.6933 66.9692L61.9905 68.7532L62.6338 68.2837L60.3769 65.1956L59.6387 65.7172Z" fill="#37322F"/>
<path d="M65.0697 64.5696C64.9853 64.4861 64.8904 64.4131 64.7955 64.3713C64.69 64.3192 64.5846 64.2983 64.4686 64.2983C64.3526 64.2983 64.2366 64.3192 64.11 64.3609C63.9835 64.4026 63.8569 64.4757 63.7303 64.5696L63.7198 64.5591C63.8569 64.34 63.9202 64.1209 63.9096 63.9227C63.8991 63.7141 63.8253 63.5367 63.6776 63.3802C63.4878 63.182 63.2557 63.0985 62.9815 63.1402C62.7073 63.182 62.412 63.3489 62.0851 63.6514L61.0516 64.6113L63.6881 67.3969L64.7639 66.3953C64.9221 66.2493 65.0486 66.0928 65.1435 65.9363C65.2385 65.7798 65.3017 65.6129 65.3228 65.4564C65.3439 65.2999 65.3439 65.1434 65.3017 64.9973C65.2595 64.8304 65.1857 64.6948 65.0697 64.5696ZM62.7495 65.1538L62.0851 64.4548L62.3382 64.2253C62.4964 64.0688 62.6441 63.9853 62.7601 63.954C62.8761 63.9227 62.9921 63.9749 63.1081 64.0896C63.2347 64.2253 63.2874 64.3609 63.2663 64.507C63.2452 64.653 63.1608 64.7991 63.0026 64.9347L62.7495 65.1538ZM64.2471 66.0615L63.9096 66.3745L63.1608 65.5816L63.4667 65.2999C63.6565 65.1225 63.8252 65.0182 63.9834 64.9973C64.1416 64.9764 64.2787 65.0286 64.4158 65.1747C64.5529 65.3103 64.5951 65.4563 64.5635 65.6024C64.5213 65.7485 64.4158 65.905 64.2471 66.0615Z" fill="#37322F"/>
<path d="M66.6307 63.5471L65.8819 62.9107L66.7467 61.9091L66.2616 61.4918L65.3968 62.5038L64.6691 61.8882L65.6182 60.7928L65.1331 60.3859L63.625 62.1178L66.5463 64.6113L68.1177 62.8064L67.6431 62.389L66.6307 63.5471Z" fill="#37322F"/>
<path d="M68.3725 60.1774C68.5096 59.9896 68.6045 59.7914 68.6678 59.6036C68.7311 59.4158 68.7522 59.228 68.7311 59.0506C68.7205 58.8733 68.6678 58.7063 68.5729 58.5603C68.4885 58.4038 68.362 58.2786 68.2038 58.1743C67.8874 57.9552 67.5604 57.8926 67.2441 57.9865C66.9277 58.0804 66.6218 58.3308 66.3371 58.7481L65.5672 59.8435L68.7311 62.024L69.2268 61.325L68.1089 60.5634L68.3725 60.1774ZM67.8136 59.927L67.6237 60.2087L66.5691 59.4784L66.78 59.1758C66.9277 58.9672 67.0753 58.8524 67.223 58.8002C67.3706 58.7585 67.5394 58.7898 67.7081 58.915C67.8979 59.0402 67.9929 59.1967 68.0139 59.3636C68.0245 59.5306 67.9612 59.7184 67.8136 59.927Z" fill="#37322F"/>
<path d="M71.2926 56.8702C71.1977 57.0475 71.0817 57.1936 70.9551 57.2979C70.8285 57.4127 70.6809 57.4857 70.5333 57.5274C70.3751 57.5692 70.2169 57.5796 70.0481 57.5587C69.8794 57.5379 69.7001 57.4753 69.5314 57.3814C69.3521 57.2875 69.1939 57.1623 69.0779 57.0266C68.9619 56.891 68.8775 56.745 68.8353 56.578C68.7931 56.4215 68.7826 56.2546 68.8037 56.0668C68.8248 55.8895 68.888 55.7121 68.9935 55.5243C69.1622 55.2218 69.3732 54.9922 69.6474 54.8253L69.0041 54.481C68.7826 54.6688 68.5716 54.9401 68.3818 55.3052C68.2236 55.5869 68.1287 55.8686 68.0865 56.1503C68.0443 56.432 68.0654 56.7032 68.1287 56.9536C68.2025 57.204 68.3185 57.444 68.4873 57.6526C68.656 57.8613 68.8775 58.0491 69.1517 58.1847C69.4048 58.3203 69.6579 58.4038 69.911 58.4351C70.1641 58.4664 70.4067 58.4455 70.6282 58.3725C70.8602 58.2995 71.0711 58.1743 71.2715 58.0073C71.4719 57.83 71.6512 57.6109 71.7988 57.3397C72.0308 56.9119 72.1574 56.5363 72.1785 56.192L71.5668 55.8582C71.5668 56.2024 71.4719 56.5363 71.2926 56.8702Z" fill="#37322F"/>
<path d="M70.1751 51.3825L71.7781 53.8133C71.8414 53.9072 71.8836 53.9803 71.9258 54.0324C71.9679 54.0846 71.9996 54.1263 72.0312 54.1681V54.1785C71.989 54.1576 71.9258 54.1263 71.8308 54.0846C71.7465 54.0429 71.641 54.0011 71.5145 53.9594L69.479 53.1769L69.1943 53.9177L72.7906 55.3052L73.107 54.5019L71.4934 52.0293C71.4406 51.9458 71.3879 51.8624 71.3352 51.7998C71.2824 51.7372 71.2508 51.685 71.2192 51.6537V51.6433C71.2719 51.6746 71.3352 51.7059 71.4301 51.7372C71.525 51.7789 71.6305 51.8207 71.757 51.8728L73.8241 52.6657L74.1089 51.925L70.5126 50.5374L70.1751 51.3825Z" fill="#37322F"/>
<path d="M71.5463 49.1706L74.6469 49.9427L74.8578 49.1185L71.7572 48.336L72.042 47.2093L71.4092 47.0527L70.6182 50.1409L71.251 50.2974L71.5463 49.1706Z" fill="#37322F"/>
<path d="M74.7824 46.2286L73.8015 46.0825L74.0019 44.768L73.3692 44.6741L73.1688 45.9886L72.2302 45.8426L72.4516 44.4237L71.8189 44.3298L71.4708 46.5937L75.2886 47.1676L75.6472 44.7993L75.0144 44.7054L74.7824 46.2286Z" fill="#37322F"/>
<path d="M72.5786 42.9214L75.7741 43.0675L75.8163 42.2119L72.6208 42.0659L72.6735 40.8974L72.0197 40.8661L71.8615 44.0481L72.5153 44.0794L72.5786 42.9214Z" fill="#37322F"/>
<path d="M73.6453 38.696C73.6453 39.2281 74.0883 39.6663 74.6261 39.6663C75.164 39.6663 75.6069 39.2281 75.6069 38.696C75.6069 38.1639 75.164 37.7257 74.6261 37.7257C74.0883 37.7257 73.6453 38.1535 73.6453 38.696Z" fill="#37322F"/>
<path d="M45.0861 38.5603H42.9979V45.0913H45.0861V38.5603Z" fill="#37322F"/>
<path d="M48.2397 38.5603H46.1516V45.0913H48.2397V38.5603Z" fill="#37322F"/>
<path d="M51.3803 38.5603H49.2922V45.0913H51.3803V38.5603Z" fill="#37322F"/>
<path d="M54.5236 38.5603H52.4354V45.0913H54.5236V38.5603Z" fill="#37322F"/>
<path d="M30.1617 27.9082H27.7677V45.1435H30.1617V27.9082Z" fill="#37322F"/>
<path d="M34.0122 27.9082H31.6182V45.1435H34.0122V27.9082Z" fill="#37322F"/>
<path d="M37.8607 27.9082H35.4667V45.1435H37.8607V27.9082Z" fill="#37322F"/>
<path d="M43.3883 30.9651C43.1773 31.0589 42.9453 31.1215 42.6922 31.1633V32.0396C42.8715 32.0188 43.0297 31.9979 43.1668 31.9562C43.3039 31.9144 43.441 31.8623 43.5675 31.7893V34.6166H44.7487V30.5999H44.0527C43.8312 30.746 43.6097 30.8712 43.3883 30.9651Z" fill="#37322F"/>
<path d="M47.9638 30.84C47.7318 30.6835 47.4681 30.6105 47.1623 30.6105C46.867 30.6105 46.6139 30.6731 46.3924 30.7878C46.1709 30.9026 45.9916 31.0695 45.8756 31.2886C45.7596 31.5077 45.6964 31.7581 45.6964 32.0503C45.6964 32.2798 45.7385 32.4884 45.8335 32.6762C45.9284 32.8536 46.0549 32.9996 46.2237 33.104C46.3924 33.2083 46.5717 33.2604 46.7721 33.2604C47.1096 33.2604 47.3627 33.1457 47.5314 32.9266H47.5525C47.5525 33.2187 47.4787 33.4482 47.331 33.5943C47.1834 33.7404 46.9724 33.8238 46.6982 33.8238C46.5822 33.8238 46.4451 33.803 46.2975 33.7612C46.1498 33.7195 46.0338 33.6778 45.9495 33.6256V34.5229C46.2131 34.6272 46.5084 34.6793 46.8564 34.6793C47.4259 34.6793 47.8689 34.4811 48.1958 34.0951C48.5228 33.7091 48.681 33.1666 48.681 32.478C48.681 32.092 48.6282 31.7686 48.5122 31.4869C48.3751 31.2156 48.1958 30.9965 47.9638 30.84ZM47.4048 32.3111C47.3521 32.3945 47.2678 32.4467 47.1517 32.4467C47.0568 32.4467 46.9724 32.405 46.9092 32.3215C46.8459 32.238 46.8143 32.1233 46.8143 31.9668C46.8143 31.7998 46.8459 31.6746 46.9092 31.6016C46.9724 31.5286 47.0568 31.4869 47.1623 31.4869C47.2677 31.4869 47.3416 31.5286 47.4048 31.6225C47.4681 31.7164 47.4998 31.8311 47.4998 31.9668C47.4892 32.1128 47.4576 32.2276 47.4048 32.3111Z" fill="#37322F"/>
<path d="M51.4012 32.0188C51.0532 32.0188 50.7895 32.1335 50.5997 32.3526H50.5786C50.5997 32.0814 50.684 31.8727 50.8422 31.7058C51.0004 31.5389 51.2008 31.4554 51.4539 31.4554C51.707 31.4554 51.918 31.5076 52.0972 31.6223V30.7042C51.918 30.6416 51.6648 30.5999 51.3695 30.5999C50.9688 30.5999 50.6313 30.6834 50.3466 30.8607C50.0618 31.0381 49.8403 31.2989 49.6821 31.6432C49.5239 31.9875 49.4396 32.3839 49.4396 32.8221C49.4396 33.4064 49.5767 33.855 49.8298 34.1784C50.0934 34.5018 50.4626 34.6583 50.9477 34.6583C51.2219 34.6583 51.475 34.5957 51.6965 34.4705C51.9179 34.3453 52.0972 34.1784 52.2132 33.9593C52.3398 33.7402 52.3925 33.5003 52.3925 33.2394C52.3925 32.8743 52.2976 32.5821 52.1183 32.3526C51.9601 32.1335 51.707 32.0188 51.4012 32.0188ZM51.2008 33.6567C51.1375 33.7402 51.0531 33.7924 50.9477 33.7924C50.8528 33.7924 50.7684 33.7506 50.7051 33.6567C50.6418 33.5628 50.6102 33.4481 50.6102 33.3125C50.6102 33.1664 50.6419 33.0517 50.6946 32.9578C50.7579 32.8743 50.8422 32.8221 50.9477 32.8221C51.0637 32.8221 51.1481 32.8638 51.2008 32.9473C51.2535 33.0308 51.2852 33.1455 51.2852 33.2916C51.2957 33.4481 51.2641 33.5733 51.2008 33.6567Z" fill="#37322F"/>
<path d="M54.6404 32.1231C54.5455 32.1231 54.4506 32.1231 54.3346 32.144L54.3768 31.591H55.7056V30.6833H53.4592L53.3116 33.0412C53.5225 32.9994 53.744 32.9681 53.9865 32.9681C54.4717 32.9681 54.7142 33.1142 54.7142 33.4063C54.7142 33.542 54.6615 33.6463 54.556 33.7193C54.4506 33.7923 54.2924 33.8341 54.092 33.8341C53.7862 33.8341 53.4909 33.7611 53.2167 33.615V34.5227C53.3432 34.5748 53.512 34.6061 53.7018 34.6374C53.9022 34.6687 54.092 34.6792 54.2713 34.6792C54.5982 34.6792 54.883 34.6166 55.1256 34.5018C55.3681 34.387 55.5579 34.2201 55.6845 34.001C55.8111 33.7924 55.8743 33.5524 55.8743 33.2812C55.8743 32.9264 55.7689 32.6447 55.5474 32.4361C55.3365 32.2274 55.0306 32.1231 54.6404 32.1231Z" fill="#37322F"/>
<path d="M20.0262 53.0413L39.5368 52.9996L40.1907 53.7403H41.8148L42.4687 52.9996L61.895 53.0935L61.9055 33.6047L59.6381 33.5212L59.6697 27.7518L41.3508 27.8248V24.1733H39.4103L37.2799 22.6814H33.5149V23.7873H32.3232V22.6918H28.4949L26.3856 24.2046H24.4345V28.1169H22.2409L22.2093 33.4273L20.0156 33.5942L20.0262 53.0413ZM25.6052 25.3522H26.7758L28.8851 23.8394H31.1736V24.9349H34.6855V23.8394H36.9213L39.0517 25.3313H40.2012L40.1907 45.154H41.3508V37.0058L56.2527 37.0371V47.0632H25.6052V25.3522ZM23.401 29.2646H24.4345V48.2004H57.4128V35.8895L41.3508 35.8582V28.9829L58.4991 28.9099L58.383 49.4628H23.285L23.401 29.2646ZM22.2093 34.5749L22.1143 50.6104H59.5326L59.6275 34.6793L60.7349 34.721L60.7243 51.9458L41.9308 51.8519L41.277 52.5927H40.718L40.0641 51.8519L21.1863 51.8937L21.1757 34.648L22.2093 34.5749Z" fill="#37322F"/>
<path d="M42.2691 58.4769L49.3668 58.4873V57.2353L41.8789 57.2249L40.877 57.9135L39.8751 57.2249H32.4083V58.4769H39.4849L40.8875 59.4367L42.2691 58.4769Z" fill="#37322F"/>
</svg>
