<svg width="279" height="116" viewBox="0 0 279 116" fill="none" xmlns="http://www.w3.org/2000/svg">
<path d="M150.61 62.2256H146.725V73H145.14V62.2256H141.263V60.9141H150.61V62.2256ZM155.059 73.166C153.842 73.166 152.851 72.7676 152.087 71.9707C151.324 71.1683 150.942 70.0975 150.942 68.7583V68.4761C150.942 67.5851 151.111 66.791 151.448 66.0938C151.791 65.391 152.267 64.8431 152.876 64.4502C153.49 64.0518 154.154 63.8525 154.868 63.8525C156.036 63.8525 156.943 64.2371 157.591 65.0063C158.238 65.7756 158.562 66.8768 158.562 68.3101V68.9492H152.478C152.5 69.8346 152.757 70.5513 153.25 71.0991C153.748 71.6414 154.378 71.9126 155.142 71.9126C155.684 71.9126 156.144 71.8019 156.52 71.5806C156.896 71.3592 157.226 71.0659 157.508 70.7007L158.446 71.4312C157.693 72.5877 156.564 73.166 155.059 73.166ZM154.868 65.1143C154.248 65.1143 153.728 65.3411 153.308 65.7949C152.887 66.2432 152.627 66.874 152.527 67.6875H157.026V67.5713C156.982 66.791 156.772 66.1878 156.396 65.7617C156.019 65.3301 155.51 65.1143 154.868 65.1143ZM167.693 73H166.157V65.2886H162.023V73H160.479V64.0186H167.693V73ZM177.521 64.0186V73H175.977V65.2886H172.922L172.74 68.6504C172.64 70.1943 172.38 71.2983 171.959 71.9624C171.544 72.6265 170.883 72.9723 169.976 73H169.361V71.647L169.801 71.6138C170.299 71.5584 170.656 71.2707 170.872 70.7505C171.088 70.2303 171.226 69.2674 171.287 67.8618L171.453 64.0186H177.521ZM179.58 68.4263C179.58 67.5464 179.751 66.755 180.094 66.0522C180.443 65.3494 180.924 64.8071 181.539 64.4253C182.158 64.0435 182.864 63.8525 183.655 63.8525C184.878 63.8525 185.866 64.2759 186.619 65.1226C187.377 65.9692 187.756 67.0954 187.756 68.501V68.6089C187.756 69.4832 187.587 70.269 187.25 70.9663C186.917 71.658 186.439 72.1976 185.813 72.585C185.194 72.9723 184.48 73.166 183.672 73.166C182.454 73.166 181.467 72.7427 180.708 71.896C179.956 71.0493 179.58 69.9287 179.58 68.5342V68.4263ZM181.124 68.6089C181.124 69.605 181.353 70.4046 181.812 71.0078C182.277 71.611 182.897 71.9126 183.672 71.9126C184.452 71.9126 185.072 71.6082 185.531 70.9995C185.991 70.3853 186.22 69.5275 186.22 68.4263C186.22 67.4412 185.985 66.6444 185.515 66.0356C185.05 65.4214 184.43 65.1143 183.655 65.1143C182.897 65.1143 182.286 65.4159 181.821 66.019C181.356 66.6222 181.124 67.4855 181.124 68.6089ZM192.836 65.1143C192.288 65.1143 191.812 65.2886 191.408 65.6372C191.01 65.9858 190.811 66.3981 190.811 66.874H189.35C189.35 66.3594 189.513 65.8669 189.839 65.3965C190.166 64.9261 190.6 64.5526 191.143 64.2759C191.685 63.9937 192.249 63.8525 192.836 63.8525C194.004 63.8525 194.947 64.2759 195.667 65.1226C196.391 65.9637 196.754 67.0649 196.754 68.4263V68.6836C196.754 69.5247 196.588 70.2939 196.256 70.9912C195.929 71.6829 195.467 72.2197 194.87 72.6016C194.278 72.9779 193.6 73.166 192.836 73.166C191.84 73.166 191.01 72.8561 190.346 72.2363C189.682 71.6165 189.35 70.8446 189.35 69.9204H190.811C190.811 70.4849 191.007 70.9608 191.4 71.3481C191.793 71.73 192.271 71.9209 192.836 71.9209C193.494 71.9209 194.037 71.6663 194.463 71.1572C194.889 70.6481 195.135 69.9481 195.202 69.0571H191.832V67.7954H195.185C195.108 66.9875 194.861 66.34 194.446 65.853C194.031 65.3605 193.494 65.1143 192.836 65.1143ZM206.167 73H204.631V69.165H200.506V73H198.962V64.0186H200.506V67.9116H204.631V64.0186H206.167V73ZM212.368 73.166C211.15 73.166 210.16 72.7676 209.396 71.9707C208.632 71.1683 208.25 70.0975 208.25 68.7583V68.4761C208.25 67.5851 208.419 66.791 208.757 66.0938C209.1 65.391 209.576 64.8431 210.185 64.4502C210.799 64.0518 211.463 63.8525 212.177 63.8525C213.344 63.8525 214.252 64.2371 214.899 65.0063C215.547 65.7756 215.871 66.8768 215.871 68.3101V68.9492H209.786C209.808 69.8346 210.066 70.5513 210.558 71.0991C211.056 71.6414 211.687 71.9126 212.451 71.9126C212.993 71.9126 213.452 71.8019 213.829 71.5806C214.205 71.3592 214.534 71.0659 214.816 70.7007L215.754 71.4312C215.002 72.5877 213.873 73.166 212.368 73.166ZM212.177 65.1143C211.557 65.1143 211.037 65.3411 210.616 65.7949C210.196 66.2432 209.936 66.874 209.836 67.6875H214.335V67.5713C214.291 66.791 214.08 66.1878 213.704 65.7617C213.328 65.3301 212.819 65.1143 212.177 65.1143ZM225.242 68.6089C225.242 69.9757 224.93 71.077 224.304 71.9126C223.679 72.7482 222.832 73.166 221.764 73.166C220.674 73.166 219.816 72.8201 219.191 72.1284V76.4531H217.655V64.0186H219.058L219.133 65.0146C219.758 64.2399 220.627 63.8525 221.739 63.8525C222.818 63.8525 223.671 64.2593 224.296 65.0728C224.927 65.8862 225.242 67.0179 225.242 68.4678V68.6089ZM223.707 68.4346C223.707 67.4219 223.491 66.6222 223.059 66.0356C222.627 65.4491 222.035 65.1558 221.283 65.1558C220.353 65.1558 219.656 65.568 219.191 66.3926V70.6841C219.65 71.5031 220.353 71.9126 221.299 71.9126C222.035 71.9126 222.619 71.6221 223.051 71.041C223.488 70.4544 223.707 69.5856 223.707 68.4346ZM233.003 65.2886H228.861V73H227.317V64.0186H233.003V65.2886ZM237.901 73.166C236.683 73.166 235.693 72.7676 234.929 71.9707C234.166 71.1683 233.784 70.0975 233.784 68.7583V68.4761C233.784 67.5851 233.952 66.791 234.29 66.0938C234.633 65.391 235.109 64.8431 235.718 64.4502C236.332 64.0518 236.996 63.8525 237.71 63.8525C238.878 63.8525 239.785 64.2371 240.433 65.0063C241.08 65.7756 241.404 66.8768 241.404 68.3101V68.9492H235.319C235.341 69.8346 235.599 70.5513 236.091 71.0991C236.589 71.6414 237.22 71.9126 237.984 71.9126C238.526 71.9126 238.986 71.8019 239.362 71.5806C239.738 71.3592 240.067 71.0659 240.35 70.7007L241.288 71.4312C240.535 72.5877 239.406 73.166 237.901 73.166ZM237.71 65.1143C237.09 65.1143 236.57 65.3411 236.149 65.7949C235.729 66.2432 235.469 66.874 235.369 67.6875H239.868V67.5713C239.824 66.791 239.614 66.1878 239.237 65.7617C238.861 65.3301 238.352 65.1143 237.71 65.1143ZM249.763 65.2637H246.75V73H245.214V65.2637H242.259V64.0186H249.763V65.2637ZM257.067 64.0186H258.603V73H257.067V66.4507L252.925 73H251.39V64.0186H252.925V70.5762L257.067 64.0186ZM263.866 69.1733H262.745V73H261.201V64.0186H262.745V67.8203H263.75L266.771 64.0186H268.63L265.078 68.335L268.929 73H266.979L263.866 69.1733ZM275.794 73C275.705 72.8229 275.633 72.5075 275.578 72.0537C274.864 72.7952 274.012 73.166 273.021 73.166C272.136 73.166 271.408 72.917 270.838 72.4189C270.274 71.9154 269.992 71.279 269.992 70.5098C269.992 69.5745 270.346 68.8496 271.054 68.335C271.768 67.8148 272.77 67.5547 274.059 67.5547H275.553V66.8491C275.553 66.3123 275.393 65.8862 275.072 65.5708C274.751 65.2498 274.278 65.0894 273.652 65.0894C273.104 65.0894 272.645 65.2277 272.274 65.5044C271.904 65.7811 271.718 66.1159 271.718 66.5088H270.174C270.174 66.0605 270.332 65.6289 270.647 65.2139C270.968 64.7933 271.4 64.4613 271.942 64.2178C272.49 63.9743 273.091 63.8525 273.744 63.8525C274.778 63.8525 275.589 64.1126 276.176 64.6328C276.762 65.1475 277.067 65.8586 277.089 66.7661V70.8999C277.089 71.7244 277.194 72.3802 277.404 72.8672V73H275.794ZM273.246 71.8296C273.727 71.8296 274.184 71.7051 274.615 71.4561C275.047 71.207 275.36 70.8833 275.553 70.4849V68.6421H274.35C272.468 68.6421 271.527 69.1927 271.527 70.2939C271.527 70.7754 271.688 71.1517 272.009 71.4229C272.33 71.694 272.742 71.8296 273.246 71.8296Z" fill="white"/>
<path d="M145.329 45.8486H144.206V50H142.987V40.7578H144.206V44.833H145.158L148.389 40.7578H149.906L146.376 45.2393L150.166 50H148.674L145.329 45.8486ZM155.339 50C155.272 49.8646 155.217 49.6234 155.174 49.2764C154.628 49.8434 153.977 50.127 153.219 50.127C152.542 50.127 151.986 49.9365 151.55 49.5557C151.118 49.1706 150.902 48.6839 150.902 48.0957C150.902 47.3805 151.173 46.8262 151.715 46.4326C152.261 46.0348 153.027 45.8359 154.013 45.8359H155.155V45.2964C155.155 44.8859 155.033 44.5601 154.787 44.3188C154.542 44.0734 154.18 43.9507 153.702 43.9507C153.283 43.9507 152.931 44.0565 152.648 44.2681C152.364 44.4797 152.223 44.7357 152.223 45.0361H151.042C151.042 44.6934 151.163 44.3633 151.404 44.0459C151.649 43.7243 151.979 43.4704 152.394 43.2842C152.813 43.098 153.272 43.0049 153.771 43.0049C154.563 43.0049 155.183 43.2038 155.631 43.6016C156.08 43.9951 156.313 44.5389 156.33 45.2329V48.394C156.33 49.0246 156.41 49.526 156.571 49.8984V50H155.339ZM153.391 49.105C153.759 49.105 154.108 49.0098 154.438 48.8193C154.768 48.6289 155.007 48.3813 155.155 48.0767V46.6675H154.235C152.796 46.6675 152.077 47.0885 152.077 47.9307C152.077 48.2988 152.199 48.5866 152.445 48.7939C152.69 49.0013 153.006 49.105 153.391 49.105ZM157.917 46.6929C157.917 45.5461 158.139 44.6447 158.583 43.9888C159.027 43.3328 159.637 43.0049 160.411 43.0049C160.771 43.0049 161.086 43.0662 161.357 43.189V40.25H162.531V43.2271C162.827 43.0789 163.174 43.0049 163.572 43.0049C164.351 43.0049 164.962 43.3328 165.407 43.9888C165.851 44.6447 166.073 45.5905 166.073 46.8262C166.073 47.8376 165.851 48.6416 165.407 49.2383C164.967 49.835 164.359 50.1333 163.585 50.1333C163.174 50.1333 162.823 50.0656 162.531 49.9302V52.6406H161.357V49.9492C161.078 50.0719 160.758 50.1333 160.398 50.1333C159.628 50.1333 159.021 49.835 158.577 49.2383C158.137 48.6416 157.917 47.8249 157.917 46.7881V46.6929ZM164.899 46.6929C164.899 45.8296 164.751 45.161 164.455 44.687C164.158 44.2088 163.75 43.9697 163.229 43.9697C162.963 43.9697 162.73 44.012 162.531 44.0967V49.0669C162.722 49.1388 162.959 49.1748 163.242 49.1748C163.767 49.1748 164.173 48.9717 164.461 48.5654C164.753 48.1592 164.899 47.535 164.899 46.6929ZM159.091 46.8262C159.091 47.5964 159.228 48.1803 159.503 48.5781C159.778 48.9759 160.174 49.1748 160.69 49.1748C160.936 49.1748 161.158 49.1367 161.357 49.0605V44.0776C161.179 44.0057 160.961 43.9697 160.703 43.9697C160.187 43.9697 159.789 44.2004 159.51 44.6616C159.23 45.1229 159.091 45.8444 159.091 46.8262ZM170.453 50.127C169.522 50.127 168.765 49.8223 168.181 49.2129C167.597 48.5993 167.305 47.7804 167.305 46.7563V46.5405C167.305 45.8592 167.434 45.252 167.692 44.7188C167.954 44.1813 168.318 43.7624 168.784 43.4619C169.253 43.1572 169.761 43.0049 170.307 43.0049C171.2 43.0049 171.894 43.299 172.389 43.8872C172.884 44.4754 173.132 45.3175 173.132 46.4136V46.9023H168.479C168.496 47.5794 168.693 48.1274 169.069 48.5464C169.45 48.9611 169.933 49.1685 170.517 49.1685C170.931 49.1685 171.283 49.0838 171.57 48.9146C171.858 48.7453 172.11 48.521 172.326 48.2417L173.043 48.8003C172.467 49.6847 171.604 50.127 170.453 50.127ZM170.307 43.9697C169.833 43.9697 169.435 44.1432 169.114 44.4902C168.792 44.833 168.593 45.3154 168.517 45.9375H171.958V45.8486C171.924 45.252 171.763 44.7907 171.475 44.4648C171.187 44.1348 170.798 43.9697 170.307 43.9697ZM174.439 49.0415L174.846 48.54C175.303 47.9476 175.563 47.0589 175.626 45.874L175.734 43.1318H180.159V49.0415H181.041V52.0186H179.867V50H175.074V52.0186H173.9L173.906 49.0415H174.439ZM175.83 49.0415H178.984V44.2173H176.871L176.801 45.855C176.729 47.2218 176.405 48.284 175.83 49.0415ZM188.144 46.6421C188.144 47.6873 187.905 48.5295 187.427 49.1685C186.949 49.8075 186.301 50.127 185.484 50.127C184.651 50.127 183.995 49.8625 183.517 49.3335V52.6406H182.342V43.1318H183.415L183.472 43.8936C183.95 43.3011 184.615 43.0049 185.465 43.0049C186.291 43.0049 186.942 43.3159 187.42 43.938C187.903 44.5601 188.144 45.4255 188.144 46.5342V46.6421ZM186.97 46.5088C186.97 45.7344 186.805 45.1229 186.475 44.6743C186.145 44.2257 185.692 44.0015 185.116 44.0015C184.405 44.0015 183.872 44.3167 183.517 44.9473V48.229C183.868 48.8553 184.405 49.1685 185.129 49.1685C185.692 49.1685 186.138 48.9463 186.468 48.502C186.803 48.0534 186.97 47.389 186.97 46.5088ZM193.882 50C193.815 49.8646 193.76 49.6234 193.717 49.2764C193.171 49.8434 192.52 50.127 191.762 50.127C191.085 50.127 190.529 49.9365 190.093 49.5557C189.661 49.1706 189.445 48.6839 189.445 48.0957C189.445 47.3805 189.716 46.8262 190.258 46.4326C190.804 46.0348 191.57 45.8359 192.556 45.8359H193.698V45.2964C193.698 44.8859 193.576 44.5601 193.33 44.3188C193.085 44.0734 192.723 43.9507 192.245 43.9507C191.826 43.9507 191.474 44.0565 191.191 44.2681C190.907 44.4797 190.766 44.7357 190.766 45.0361H189.585C189.585 44.6934 189.706 44.3633 189.947 44.0459C190.192 43.7243 190.522 43.4704 190.937 43.2842C191.356 43.098 191.815 43.0049 192.314 43.0049C193.106 43.0049 193.726 43.2038 194.174 43.6016C194.623 43.9951 194.856 44.5389 194.873 45.2329V48.394C194.873 49.0246 194.953 49.526 195.114 49.8984V50H193.882ZM191.934 49.105C192.302 49.105 192.651 49.0098 192.981 48.8193C193.311 48.6289 193.55 48.3813 193.698 48.0767V46.6675H192.778C191.339 46.6675 190.62 47.0885 190.62 47.9307C190.62 48.2988 190.742 48.5866 190.988 48.7939C191.233 49.0013 191.549 49.105 191.934 49.105Z" fill="#3F8FD2"/>
<path d="M129 39H128V76H129V39Z" fill="white"/>
<path d="M7.7063 56.1091C7.7063 56.8806 8.34856 57.5159 9.12845 57.5159C9.90835 57.5159 10.5506 56.8806 10.5506 56.1091C10.5506 55.3376 9.90835 54.7021 9.12845 54.7021C8.33326 54.7021 7.7063 55.3224 7.7063 56.1091Z" fill="white"/>
<path d="M58.6299 0C26.3024 0 0 26.0198 0 58C0 89.9801 26.3024 116 58.6299 116C90.9574 116 117.26 89.9801 117.26 58C117.26 26.0198 90.9574 0 58.6299 0ZM58.6299 114.487C27.1435 114.487 1.52921 89.1481 1.52921 58C1.52921 26.8518 27.1435 1.51278 58.6299 1.51278C90.1163 1.51278 115.731 26.8518 115.731 58C115.731 89.1481 90.1163 114.487 58.6299 114.487Z" fill="white"/>
<path d="M16.9729 57.9547C16.9729 80.7069 35.6904 99.2233 58.6897 99.2233C81.6891 99.2233 100.407 80.7069 100.407 57.9547C100.407 35.2025 81.6891 16.686 58.6897 16.686C35.6904 16.686 16.9729 35.2025 16.9729 57.9547ZM58.6897 18.3501C80.7562 18.3501 98.7244 36.1101 98.7244 57.9547C98.7244 79.7992 80.7715 97.5592 58.6897 97.5592C36.608 97.5592 18.655 79.7992 18.655 57.9547C18.655 36.1101 36.608 18.3501 58.6897 18.3501Z" fill="white"/>
<path d="M13.2113 48.9232C13.2572 48.6207 13.2725 48.3332 13.2419 48.0609C13.2114 47.7886 13.1349 47.5466 13.0278 47.3499C12.9208 47.1381 12.7679 46.9717 12.5844 46.8356C12.4009 46.6994 12.1868 46.6087 11.9421 46.5633C11.7739 46.5331 11.6057 46.5331 11.4375 46.5633C11.2692 46.5936 11.1316 46.6692 10.994 46.7599C10.8564 46.8507 10.734 46.9868 10.627 47.1381C10.5199 47.3045 10.4282 47.4861 10.367 47.713H10.3517C10.3211 47.3348 10.1988 47.0323 10.0153 46.8054C9.8318 46.5784 9.58712 46.4422 9.26598 46.3817C8.86839 46.3212 8.53196 46.4272 8.24141 46.6995C7.96616 46.9869 7.76735 47.4407 7.66031 48.0609L7.30859 50.0729L12.829 51.0109L13.2113 48.9232ZM9.87768 48.772L9.80121 49.2409L8.40963 48.9989L8.50138 48.5148C8.56254 48.1971 8.63901 47.9702 8.74606 47.834C8.8531 47.6979 9.0366 47.6525 9.26598 47.6979C9.52595 47.7433 9.70945 47.8643 9.8165 48.0458C9.90825 48.2122 9.92356 48.4694 9.87768 48.772ZM12.3244 48.9837L12.2174 49.6343L10.6576 49.3771L10.7646 48.7871C10.8258 48.424 10.9328 48.1517 11.101 48.0004C11.2539 47.834 11.4681 47.7887 11.7433 47.834C12.0186 47.8794 12.2021 48.0004 12.2938 48.1971C12.3703 48.3938 12.3856 48.6509 12.3244 48.9837Z" fill="white"/>
<path d="M14.1155 44.8693L11.5158 41.4656C11.4241 41.3445 11.3476 41.2387 11.2711 41.1479C11.1947 41.0571 11.1335 40.9966 11.0876 40.9512V40.9361C11.1641 40.9664 11.2712 41.0117 11.4088 41.0571C11.5464 41.1025 11.7146 41.163 11.8981 41.2084L14.9719 42.1463L15.3083 41.042L9.95602 39.4233L9.55843 40.6941L12.1275 44.0524C12.2193 44.1735 12.2957 44.2793 12.3569 44.355C12.4181 44.4306 12.4792 44.4912 12.5251 44.5365V44.5516C12.4639 44.5214 12.3569 44.476 12.2346 44.4306C12.1122 44.3853 11.944 44.3399 11.7605 44.2794L8.73267 43.3565L8.39624 44.4457L13.7485 46.0796L14.1155 44.8693Z" fill="white"/>
<path d="M13.1826 34.4461L12.3109 34.0679L10.3994 38.2885L11.2711 38.6667L11.9745 37.1237L16.2104 38.9995L16.7303 37.865L12.4791 35.9891L13.1826 34.4461Z" fill="white"/>
<path d="M19.4825 32.7514L18.6873 32.2975L17.571 34.2339L16.317 33.5229L17.2804 31.8589L16.4852 31.405L15.5218 33.0691L14.3138 32.3883L15.3689 30.5881L14.5584 30.1343L12.8916 33.0085L17.7545 35.7618L19.4825 32.7514Z" fill="white"/>
<path d="M21.226 30.2859C21.4248 30.0136 21.5624 29.7565 21.6541 29.4993C21.7459 29.2421 21.7765 29.0001 21.7612 28.758C21.7459 28.5311 21.6847 28.3042 21.5624 28.1075C21.4401 27.9109 21.2718 27.7294 21.0578 27.563C20.859 27.4268 20.6449 27.336 20.4308 27.2906C20.2167 27.2452 20.0026 27.2604 19.7885 27.3209C19.5744 27.3814 19.3603 27.4873 19.1462 27.6386C18.9322 27.7899 18.7334 28.0017 18.5499 28.2588L17.9687 29.0606L16.9136 28.3042L18.3205 26.383L17.5712 25.8535L15.4456 28.7883L19.9873 32.0256L21.226 30.2859ZM19.1157 28.9698C19.345 28.6673 19.5591 28.4706 19.7579 28.4101C19.9567 28.3345 20.1861 28.395 20.4155 28.5614C20.6602 28.7278 20.7672 28.9244 20.7672 29.1514C20.7672 29.3783 20.6449 29.6354 20.4308 29.938L20.0026 30.528L18.6875 29.5901L19.1157 28.9698Z" fill="white"/>
<path d="M20.7042 26.534C21.01 26.8063 21.3464 27.0181 21.6828 27.1391C22.0346 27.2602 22.371 27.3206 22.7227 27.2904C23.0744 27.2601 23.4109 27.1694 23.7626 26.9878C24.099 26.8063 24.4201 26.5491 24.726 26.2163C25.2 25.702 25.5059 25.2027 25.6588 24.7338L24.9095 24.0681C24.8024 24.5371 24.573 24.9759 24.206 25.3843C24.0072 25.5961 23.7931 25.7625 23.5791 25.8835C23.365 26.0045 23.1356 26.065 22.9062 26.065C22.6768 26.0802 22.4474 26.0348 22.2028 25.944C21.9581 25.8533 21.744 25.7171 21.5299 25.5204C21.3005 25.3238 21.1323 25.0969 21.01 24.87C20.8877 24.643 20.8265 24.401 20.8112 24.159C20.7959 23.9169 20.8418 23.6748 20.9335 23.4328C21.0253 23.1908 21.1782 22.9487 21.377 22.7369C21.7134 22.3739 22.0957 22.1167 22.5392 21.9654L21.744 21.2544C21.377 21.4511 20.9794 21.7687 20.5818 22.2075C20.2607 22.5554 20.0313 22.9185 19.8784 23.2967C19.7254 23.6749 19.649 24.0681 19.6643 24.4463C19.6796 24.8245 19.7713 25.2027 19.9395 25.5507C20.123 25.9138 20.383 26.2314 20.7042 26.534Z" fill="white"/>
<path d="M27.3877 23.4787L25.568 21.4516L25.5833 21.4365C25.6444 21.4667 25.7056 21.4819 25.7821 21.497C25.8432 21.5121 25.9044 21.5272 25.935 21.5424L28.9017 22.1777L30.018 21.1944L26.4243 20.4985L26.1797 17.1704L25.1398 18.0781L25.3998 20.9221C25.3998 20.9826 25.4151 21.0431 25.4304 21.1188C25.4457 21.1793 25.4457 21.2398 25.461 21.2852L25.4456 21.3003L23.7023 19.3488L22.7695 20.1657L26.4855 24.3107L27.3877 23.4787Z" fill="white"/>
<path d="M31.3493 20.2557L31.4716 15.9897C31.4716 15.8384 31.4716 15.7023 31.4716 15.5812C31.4716 15.4602 31.4564 15.3695 31.4564 15.3089L31.4716 15.2938C31.5022 15.3694 31.5634 15.4602 31.6398 15.5812C31.7163 15.7023 31.8081 15.8384 31.9151 16.0048L33.7349 18.637L34.6983 17.9865L31.5481 13.418L30.4471 14.1592L30.34 18.3647C30.34 18.516 30.34 18.6522 30.34 18.7429C30.34 18.8337 30.34 18.9245 30.3553 18.985L30.34 19.0001C30.3094 18.9396 30.2483 18.8488 30.1871 18.7278C30.1106 18.6068 30.0189 18.4706 29.9118 18.3194L28.138 15.7325L27.1746 16.383L30.3247 20.9516L31.3493 20.2557Z" fill="white"/>
<path d="M36.1034 15.2187C36.0881 15.3094 36.0881 15.4002 36.0881 15.4607H36.0728C36.0422 15.4002 36.0116 15.2943 35.9505 15.1733C35.8893 15.0523 35.8281 14.901 35.7364 14.7346L34.3448 11.9208L33.3049 12.42L35.767 17.3971L36.8986 16.8524L37.6326 12.6469C37.6632 12.4956 37.6785 12.3746 37.6938 12.2536C37.7091 12.1326 37.7091 12.0418 37.7091 11.9813L37.7244 11.9662C37.7549 12.0418 37.7855 12.1477 37.8467 12.2687C37.9079 12.4049 37.9843 12.5561 38.0608 12.7225L39.483 15.5817L40.5228 15.0825L38.0608 10.1055L36.8527 10.6803L36.134 14.8405C36.134 14.9918 36.1034 15.1279 36.1034 15.2187Z" fill="white"/>
<path d="M34.1471 10.6653C34.5141 10.7712 34.8964 10.7258 35.3092 10.5443C35.6915 10.3627 35.9668 10.0904 36.1197 9.71223C36.2726 9.34916 36.2726 8.97095 36.1197 8.5625L35.4775 8.86507C35.5539 9.09199 35.5386 9.28866 35.4622 9.48532C35.3857 9.68198 35.2328 9.81814 35.034 9.92404C34.5599 10.151 34.1776 10.0602 33.9177 9.62146L33.2754 9.92404C33.4895 10.3174 33.78 10.5594 34.1471 10.6653Z" fill="white"/>
<path d="M45.4475 13.4486L44.1629 9.01619L46.2885 8.41109L46.0286 7.51855L42.7102 8.47157L44.2547 13.7814L45.4475 13.4486Z" fill="white"/>
<path d="M47.4828 11.2248C47.6816 11.5425 47.9262 11.7997 48.2168 11.9963C48.5073 12.193 48.8438 12.3291 49.2108 12.4048C49.5778 12.4804 49.9754 12.4804 50.4036 12.4048C50.8317 12.3291 51.214 12.193 51.5505 11.9963C51.8869 11.7997 52.1469 11.5576 52.3609 11.2702C52.575 10.9828 52.7127 10.6348 52.7891 10.2567C52.8656 9.87846 52.8656 9.47001 52.7891 9.03131C52.7127 8.63798 52.5903 8.27488 52.4068 7.9572C52.2233 7.63952 51.9786 7.38236 51.6881 7.17057C51.3975 6.95878 51.0764 6.82263 50.7094 6.74699C50.3424 6.67136 49.9448 6.65621 49.5319 6.73185C49.0731 6.80749 48.6755 6.94364 48.3391 7.15543C48.0027 7.35209 47.7274 7.60926 47.5134 7.91182C47.2993 8.21437 47.1616 8.5472 47.0852 8.9254C47.0087 9.30359 47.0087 9.69693 47.0852 10.1205C47.1616 10.5592 47.284 10.9071 47.4828 11.2248ZM48.5532 8.42616C48.6603 8.2295 48.8132 8.07822 48.9967 7.9572C49.1802 7.83618 49.3943 7.74544 49.639 7.70005C49.8989 7.65467 50.1283 7.65464 50.3271 7.71515C50.5412 7.76053 50.7247 7.86643 50.8776 8.00258C51.0305 8.13873 51.1682 8.33538 51.2752 8.5623C51.3822 8.78922 51.4587 9.04642 51.5199 9.34898C51.5658 9.65153 51.581 9.9087 51.5505 10.1507C51.5199 10.3928 51.4587 10.6046 51.3517 10.7861C51.2446 10.9676 51.107 11.1189 50.9235 11.2399C50.74 11.361 50.5259 11.4366 50.2659 11.482C50.0212 11.5274 49.8072 11.5122 49.5931 11.4669C49.379 11.4063 49.1955 11.3156 49.0426 11.1643C48.8744 11.0281 48.7367 10.8466 48.6297 10.6197C48.5226 10.3928 48.4309 10.1507 48.385 9.86332C48.3391 9.57589 48.3238 9.31872 48.3544 9.06154C48.385 8.80437 48.4462 8.60769 48.5532 8.42616Z" fill="white"/>
<path d="M54.3931 11.1341C54.653 11.361 54.9742 11.5274 55.3412 11.6484C55.7082 11.7543 56.1211 11.8148 56.5798 11.7846C57.2833 11.7543 57.8491 11.6182 58.3079 11.3913L58.262 10.3928C57.8491 10.65 57.375 10.8013 56.8245 10.8164C56.534 10.8315 56.2587 10.8013 56.0293 10.7257C55.7846 10.65 55.5859 10.529 55.4176 10.3777C55.2494 10.2264 55.1118 10.0298 55.02 9.80284C54.9283 9.57592 54.8671 9.31878 54.8518 9.03135C54.8365 8.72879 54.8671 8.45648 54.9589 8.21444C55.0353 7.97239 55.1577 7.76058 55.3259 7.57905C55.4941 7.39751 55.6929 7.26137 55.9376 7.15547C56.1822 7.04958 56.4575 6.98907 56.7633 6.97395C57.268 6.94369 57.7268 7.03445 58.1396 7.24623L58.0938 6.18732C57.6962 6.06629 57.1915 6.00577 56.5951 6.03603C56.1211 6.05116 55.6929 6.15704 55.3106 6.30832C54.9283 6.47472 54.6072 6.6865 54.3472 6.9588C54.0719 7.2311 53.8731 7.54881 53.7355 7.927C53.5979 8.3052 53.5367 8.69852 53.5673 9.15235C53.5826 9.5608 53.6743 9.93898 53.8273 10.2718C53.919 10.6349 54.1331 10.9072 54.3931 11.1341Z" fill="white"/>
<path d="M59.6992 11.7696C60.005 11.7847 60.265 11.7696 60.4791 11.7091C60.6932 11.6486 60.9073 11.5427 61.0908 11.4065C61.2743 11.2704 61.4425 11.0889 61.6107 10.8771C61.7789 10.6653 61.9318 10.4081 62.1153 10.1207L64.2868 6.41435L62.9717 6.33873L61.8401 8.45661C61.7789 8.57763 61.7024 8.71377 61.6413 8.81966C61.5801 8.94069 61.5189 9.06169 61.4578 9.18272C61.4425 9.10708 61.4272 9.03146 61.3966 8.97095C61.366 8.91044 61.3507 8.83479 61.3354 8.77428L60.2497 6.18744L58.904 6.09668L60.739 10.1055C60.6473 10.2568 60.5402 10.3778 60.4485 10.4837C60.3567 10.5896 60.265 10.6653 60.1579 10.7106C60.0662 10.7711 59.9744 10.8014 59.8827 10.8316C59.7909 10.8468 59.6992 10.8619 59.6074 10.8468C59.3475 10.8317 59.1028 10.7409 58.8734 10.6047L58.8123 11.6183C58.9193 11.6637 59.0263 11.7091 59.164 11.7393C59.3169 11.7393 59.4851 11.7545 59.6992 11.7696Z" fill="white"/>
<path d="M63.1564 10.9072L62.7283 13.2823L63.8446 13.4789L64.1046 11.9964L67.9888 12.6771L67.7288 14.1445L68.8451 14.3412L69.1051 12.8889L70.2826 13.252L71.0931 12.1477L73.1116 12.7679L73.1728 14.1294L74.4726 14.5227L74.075 8.60778L72.7293 8.1993L69.151 12.662L69.2733 11.9661L68.4322 11.8149L69.2427 7.26139L65.909 6.68652C65.8173 7.09497 65.6949 7.48831 65.542 7.88163C65.3891 8.27495 65.2209 8.65315 65.0374 9.01622C64.8386 9.37928 64.6398 9.72723 64.4104 10.06C64.181 10.3929 63.9364 10.6954 63.6917 10.9828L63.1564 10.9072ZM72.7446 9.90875C72.8058 9.81798 72.8669 9.72723 72.9281 9.63646C72.9893 9.5457 73.0351 9.47005 73.0657 9.39441L73.0963 9.40955C73.081 9.48519 73.0657 9.59105 73.0657 9.69694C73.0657 9.80283 73.0657 9.90875 73.0657 9.99951L73.1269 11.8602L71.6741 11.4215L72.7446 9.90875ZM65.5267 10.4533C65.7102 10.1659 65.8937 9.86335 66.0619 9.5608C66.2302 9.25824 66.3831 8.94058 66.5054 8.63802C66.6278 8.33547 66.7348 8.04804 66.796 7.79087L67.8511 7.9724L67.2088 11.6182L64.9762 11.2249C65.1597 10.9979 65.3432 10.7408 65.5267 10.4533Z" fill="white"/>
<path d="M76.7822 13.4485L77.3786 13.7056C77.6997 13.8418 77.9903 13.9174 78.2961 13.9477C78.5867 13.978 78.8619 13.9477 79.1066 13.8872C79.3513 13.8267 79.5807 13.6905 79.7642 13.5241C79.9477 13.3577 80.1159 13.1459 80.2229 12.8887C80.4523 12.3744 80.4523 11.9054 80.2229 11.497C79.9935 11.0734 79.5501 10.7255 78.8772 10.438L77.088 9.6665L74.8401 14.7343L75.987 15.2335L76.7822 13.4485ZM77.8832 10.9675L78.3726 11.1793C78.709 11.3306 78.9231 11.497 79.0301 11.6936C79.1372 11.8903 79.1219 12.1323 78.9996 12.4198C78.8619 12.7223 78.6784 12.9039 78.449 12.9795C78.2197 13.0551 77.9291 13.0098 77.5774 12.8585L77.1186 12.6618L77.8832 10.9675Z" fill="white"/>
<path d="M79.9632 15.3546C79.9021 15.7176 79.9326 16.0656 80.0244 16.3984C80.1161 16.7312 80.2843 17.0489 80.5443 17.3363C80.789 17.6237 81.1101 17.896 81.5077 18.1078C82.1194 18.4558 82.6699 18.6524 83.1593 18.6978L83.6639 17.8355C83.1746 17.8355 82.7005 17.6994 82.2111 17.4271C81.9512 17.2758 81.7524 17.1094 81.5842 16.9279C81.4313 16.7312 81.3242 16.5345 81.263 16.3076C81.2019 16.0807 81.2019 15.8538 81.2324 15.6117C81.2783 15.3697 81.3701 15.1276 81.5077 14.8705C81.6606 14.6133 81.8289 14.4015 82.043 14.2351C82.2418 14.0687 82.4711 13.9628 82.7005 13.9023C82.9299 13.8418 83.1899 13.8266 83.4498 13.872C83.7098 13.9174 83.9698 14.0082 84.2297 14.1595C84.6579 14.4166 84.9943 14.7343 85.239 15.1277L85.7742 14.2048C85.499 13.8872 85.1167 13.5695 84.5967 13.2821C84.1838 13.04 83.771 12.8887 83.3734 12.8282C82.9605 12.7526 82.5782 12.7677 82.1959 12.8585C81.8136 12.9493 81.4771 13.1156 81.156 13.3425C80.8349 13.5695 80.5749 13.8872 80.3455 14.2805C80.162 14.6436 80.0244 15.0066 79.9632 15.3546Z" fill="white"/>
<path d="M90.2546 17.2308L86.4927 14.5078L85.9269 15.2642L87.3032 16.2626L84.5659 19.9689L85.5752 20.7102L88.3125 16.9887L89.7041 17.9872L90.2546 17.2308Z" fill="white"/>
<path d="M89.0306 23.5388C89.2599 23.7506 89.5046 23.9169 89.7493 24.038C89.994 24.159 90.2386 24.2195 90.468 24.2498C90.6974 24.2649 90.9268 24.2347 91.1409 24.159C91.355 24.0834 91.5385 23.9472 91.7067 23.7657C91.829 23.6447 91.9055 23.4934 91.9666 23.3421C92.0278 23.1908 92.0431 23.0244 92.0431 22.858C92.0278 22.6916 91.9972 22.5252 91.9055 22.3437C91.829 22.1621 91.7067 21.9957 91.5537 21.8293L91.569 21.8142C91.9055 21.9806 92.2266 22.0562 92.5324 22.026C92.823 21.9957 93.0829 21.8596 93.297 21.6327C93.5723 21.3301 93.6641 20.9973 93.5723 20.604C93.4806 20.2107 93.2053 19.8173 92.7312 19.3786L91.202 18.0171L87.4402 22.1168L89.0306 23.5388ZM91.5537 19.4845L91.9208 19.8173C92.1654 20.0291 92.3184 20.2258 92.3642 20.3922C92.4254 20.5586 92.3642 20.725 92.2113 20.8914C92.0278 21.0881 91.829 21.1788 91.6302 21.1637C91.4161 21.1486 91.202 21.0427 90.9727 20.8309L90.6209 20.5132L91.5537 19.4845ZM90.4527 21.557C90.728 21.8142 90.8962 22.0411 90.9573 22.268C91.0032 22.4798 90.9421 22.6916 90.7586 22.9034C90.5751 23.1152 90.3763 23.1908 90.1622 23.1606C89.9481 23.1303 89.7187 22.9942 89.4587 22.7824L88.9541 22.3437L90.0245 21.1788L90.4527 21.557Z" fill="white"/>
<path d="M93.5282 28.1833L94.2163 27.5782L92.7177 25.9141L93.7881 24.9762L95.0727 26.3982L95.7761 25.778L94.4763 24.356L95.5008 23.4483L96.9077 24.9914L97.5959 24.3863L95.3632 21.9053L91.1885 25.5965L93.5282 28.1833Z" fill="white"/>
<path d="M98.6348 25.6113L94.0625 28.8033L94.7812 29.8169L96.7539 28.4402L98.2067 30.4825L96.234 31.844L96.9527 32.8727L101.525 29.6807L100.806 28.6671L98.9866 29.9379L97.5338 27.8956L99.3536 26.6249L98.6348 25.6113Z" fill="white"/>
<path d="M98.1746 35.0057L100.315 33.9165L101.478 36.1251L99.3368 37.2295L99.9026 38.3187L104.873 35.7772L104.307 34.6729L102.319 35.6864L101.157 33.4777L103.145 32.4642L102.563 31.3599L97.5935 33.9013L98.1746 35.0057Z" fill="white"/>
<path d="M107.345 42.3263L102.044 44.103L102.446 45.2779L107.747 43.5011L107.345 42.3263Z" fill="white"/>
<path d="M101.112 41.4201C101.219 41.7227 101.357 41.995 101.51 42.2068C101.678 42.4337 101.862 42.6001 102.06 42.7211C102.259 42.8421 102.489 42.9178 102.718 42.948C102.947 42.9783 103.192 42.948 103.452 42.8573C103.681 42.7816 103.88 42.6606 104.033 42.5093C104.186 42.358 104.308 42.1765 104.385 41.9647C104.461 41.7529 104.492 41.526 104.492 41.2689C104.477 41.0117 104.431 40.7243 104.324 40.4217L104.003 39.4837L106.113 38.7727L105.715 37.6079L100.409 39.3779L101.112 41.4201ZM103.192 39.7863L103.437 40.4822C103.559 40.8301 103.59 41.1024 103.529 41.3142C103.467 41.526 103.299 41.6773 103.024 41.7681C102.749 41.8588 102.519 41.8437 102.336 41.7075C102.152 41.5714 101.999 41.3294 101.892 40.9814L101.663 40.3007L103.192 39.7863Z" fill="white"/>
<path d="M102.915 47.6525L106.799 49.5284C106.937 49.5889 107.059 49.6494 107.166 49.6947C107.273 49.7401 107.365 49.7704 107.426 49.7855V49.8006C107.35 49.8006 107.227 49.8158 107.09 49.8309C106.952 49.8461 106.784 49.8763 106.585 49.9066L103.42 50.4511L103.618 51.5857L109.124 50.6327L108.894 49.3317L105.056 47.5012C104.918 47.4407 104.796 47.3802 104.704 47.35C104.612 47.3197 104.536 47.2894 104.475 47.2592V47.2441C104.551 47.2441 104.658 47.2289 104.796 47.2138C104.934 47.1987 105.102 47.1684 105.285 47.1381L108.405 46.5936L108.206 45.459L102.701 46.412L102.915 47.6525Z" fill="white"/>
<path d="M110.059 48.9085C110.365 49.1505 110.747 49.2564 111.175 49.2262L111.053 48.5303C110.823 48.5303 110.624 48.4698 110.456 48.3336C110.288 48.1975 110.196 48.0311 110.15 47.8042C110.059 47.2898 110.257 46.957 110.747 46.836L110.624 46.1401C110.196 46.2309 109.89 46.4427 109.676 46.7603C109.462 47.078 109.401 47.4562 109.478 47.8949C109.554 48.3185 109.738 48.6513 110.059 48.9085Z" fill="white"/>
<path d="M11.79 60.8286L7.15649 61.0403L7.20237 62.2808L11.8512 62.069L11.9276 63.7633L12.8757 63.718L12.6616 59.0889L11.7135 59.1342L11.79 60.8286Z" fill="white"/>
<path d="M8.5483 66.2904L9.97048 66.0786L10.2457 67.9847L11.1633 67.8485L10.888 65.9576L12.249 65.7609L12.5548 67.8183L13.4724 67.6822L12.983 64.3994L7.44727 65.2012L7.95191 68.6201L8.86944 68.4839L8.5483 66.2904Z" fill="white"/>
<path d="M14.8034 73.0825L14.467 71.7513L12.6778 71.2218C12.586 71.1915 12.5096 71.1764 12.4331 71.1613C12.3567 71.1461 12.2802 71.131 12.1884 71.131V71.1159C12.3261 71.0251 12.4484 70.9193 12.5555 70.8134L13.8859 69.5426L13.5188 68.1055L11.2862 70.4654L8.05957 69.3157L8.42657 70.7226L10.4145 71.2974C10.491 71.3125 10.5675 71.3277 10.6286 71.3428C10.6898 71.3579 10.7357 71.3579 10.7816 71.3579V71.3731C10.7204 71.4185 10.6592 71.4487 10.6133 71.4941C10.5675 71.5243 10.5216 71.5697 10.4757 71.6151L9.03826 73.0674L9.40528 74.4743L11.6532 72.0084L14.8034 73.0825Z" fill="white"/>
<path d="M16.3946 77.1371L14.3149 77.954L13.3973 75.6243L15.4618 74.8225L15.003 73.6577L9.80371 75.6848L10.2625 76.8497L12.4951 75.9723L13.4279 78.3019L11.18 79.1642L11.6388 80.329L16.8534 78.3019L16.3946 77.1371Z" fill="white"/>
<path d="M16.4865 85.8201C16.8688 85.7596 17.2664 85.6234 17.664 85.4116C18.0157 85.215 18.3215 84.9729 18.5509 84.6855C18.7803 84.3981 18.9485 84.0955 19.0556 83.7627C19.1626 83.4299 19.1779 83.0819 19.132 82.7037C19.0861 82.3256 18.9638 81.9625 18.7497 81.5994C18.5203 81.2061 18.2604 80.8733 17.9545 80.6312C17.6487 80.3892 17.3122 80.2077 16.9605 80.1169C16.6088 80.0261 16.2418 79.9959 15.8595 80.0564C15.4772 80.1169 15.0949 80.2531 14.7126 80.4649C14.3456 80.6615 14.055 80.9036 13.8104 81.2061C13.5657 81.5087 13.4128 81.8112 13.321 82.144C13.2293 82.4768 13.1987 82.8399 13.2598 83.203C13.321 83.5812 13.4434 83.9442 13.6575 84.3224C13.8715 84.7006 14.1162 85.0032 14.4221 85.2452C14.7126 85.4873 15.0337 85.6537 15.3854 85.7596C15.7219 85.8504 16.0889 85.8806 16.4865 85.8201ZM14.9267 84.3981C14.7585 84.2619 14.6056 84.0955 14.4679 83.8686C14.3456 83.6568 14.2844 83.445 14.2691 83.2332C14.2538 83.0214 14.2844 82.8096 14.3609 82.613C14.4373 82.4163 14.575 82.2348 14.7432 82.0533C14.9114 81.8717 15.1255 81.7204 15.3854 81.5692C15.6454 81.433 15.8901 81.3271 16.1348 81.2817C16.3794 81.2212 16.6088 81.2212 16.8229 81.2666C17.037 81.2969 17.2358 81.3876 17.4193 81.5086C17.6028 81.6297 17.7557 81.8112 17.8781 82.023C18.0004 82.2499 18.0769 82.4617 18.0922 82.6735C18.1074 82.8853 18.0769 83.0819 18.0004 83.2786C17.9239 83.4753 17.7863 83.6568 17.6028 83.8383C17.4193 84.0199 17.2052 84.1712 16.93 84.3224C16.67 84.4737 16.41 84.5645 16.1806 84.625C15.936 84.6855 15.7066 84.6855 15.5078 84.6552C15.2937 84.625 15.1102 84.5342 14.9267 84.3981Z" fill="white"/>
<path d="M21.227 85.6841C20.9671 85.8202 20.7071 85.9564 20.4777 86.0925C20.233 86.2135 20.0037 86.3346 19.7743 86.4556C19.5449 86.5766 19.3155 86.6825 19.0861 86.7884C18.8567 86.8943 18.6427 87.0002 18.4133 87.1061C18.1227 87.2422 17.878 87.333 17.6792 87.4238C17.4804 87.4994 17.2969 87.5448 17.1593 87.5751C17.0217 87.5902 16.8993 87.5902 16.7923 87.5599C16.7005 87.5145 16.6088 87.454 16.5323 87.3481C16.4406 87.2271 16.3794 87.091 16.3336 86.9246L15.5842 87.4691C15.6607 87.6809 15.783 87.8776 15.9359 88.0894C16.1194 88.3314 16.3182 88.513 16.5323 88.6037C16.7464 88.7096 16.9605 88.755 17.1746 88.755C17.3887 88.755 17.6181 88.7097 17.8475 88.634C18.0768 88.5584 18.3062 88.4525 18.5509 88.3466C18.7191 88.2709 18.8873 88.1953 19.0708 88.1045C19.2543 88.0138 19.4531 87.923 19.6519 87.8171C19.8507 87.7112 20.0801 87.6053 20.3248 87.4843C20.5542 87.3633 20.8141 87.2271 21.1047 87.0759L21.8081 87.9986L18.0921 90.767L18.8415 91.7503L23.3067 88.4222L21.227 85.6841Z" fill="white"/>
<path d="M26.6082 94.1407C26.7611 93.8079 26.8375 93.46 26.8528 93.112C26.8528 92.7641 26.7917 92.4161 26.654 92.0682C26.5164 91.7203 26.287 91.4026 25.9812 91.1C25.6601 90.7672 25.3083 90.5252 24.9566 90.3739C24.6049 90.2226 24.2226 90.1318 23.8709 90.1318C23.5039 90.1318 23.1369 90.2075 22.7851 90.3587C22.4334 90.51 22.097 90.737 21.7911 91.0395C21.5006 91.3269 21.2712 91.6446 21.1183 91.9774C20.9654 92.3102 20.8889 92.6582 20.8889 93.0061C20.8889 93.354 20.9654 93.702 21.1183 94.0499C21.2712 94.3979 21.5006 94.7156 21.7911 95.0181C22.097 95.3207 22.4181 95.5627 22.7698 95.714C23.1216 95.8653 23.4733 95.956 23.8403 95.956C24.2073 95.956 24.559 95.8955 24.926 95.7291C25.293 95.5627 25.6295 95.3509 25.9506 95.0332C26.2259 94.7761 26.4552 94.4735 26.6082 94.1407ZM25.4918 93.5507C25.3695 93.7625 25.186 93.9743 24.9719 94.2012C24.7578 94.413 24.5437 94.5794 24.3296 94.6853C24.1155 94.8063 23.9015 94.8669 23.6874 94.882C23.4733 94.8971 23.2592 94.8668 23.0604 94.7912C22.8616 94.7155 22.6628 94.5794 22.4793 94.3979C22.3111 94.2315 22.1887 94.0348 22.1123 93.8382C22.0358 93.6415 22.0205 93.4297 22.0358 93.2179C22.0664 93.0061 22.1276 92.7943 22.2499 92.5825C22.3722 92.3707 22.5404 92.159 22.7392 91.9472C22.9533 91.7505 23.1674 91.5841 23.3815 91.4782C23.5956 91.3572 23.825 91.2967 24.0391 91.2816C24.2532 91.2664 24.4673 91.2816 24.6813 91.3723C24.8954 91.4631 25.0789 91.569 25.2625 91.7505C25.446 91.9321 25.5683 92.1287 25.6448 92.3254C25.7212 92.522 25.7365 92.7338 25.7059 92.9305C25.6906 93.1271 25.6142 93.3389 25.4918 93.5507Z" fill="white"/>
<path d="M30.6761 96.5301L31.2572 95.8039L28.5658 93.6558L25.0486 97.9521L26.0273 98.7387L28.9634 95.1534L30.6761 96.5301Z" fill="white"/>
<path d="M35.1262 98.3157L31.1809 99.889C31.028 99.9495 30.9209 99.9948 30.8292 100.04C30.7374 100.086 30.6762 100.116 30.6151 100.146H30.5998C30.6456 100.086 30.7068 100.01 30.7833 99.889C30.8598 99.768 30.9515 99.6469 31.0585 99.4805L32.756 96.8331L31.7773 96.2129L28.78 100.887L29.8505 101.553L33.8723 99.9797C34.0099 99.9192 34.1322 99.8738 34.2393 99.8285C34.3463 99.7831 34.4228 99.7377 34.484 99.7074L34.4993 99.7225C34.4534 99.7831 34.3769 99.8738 34.3005 99.9948C34.224 100.116 34.1323 100.252 34.0252 100.418L32.2972 103.111L33.2759 103.731L36.2731 99.0569L35.1262 98.3157Z" fill="white"/>
<path d="M40.3715 100.964L39.3622 103.127C39.087 103.142 38.8423 103.127 38.6129 103.097C38.3835 103.066 38.1694 103.006 37.9706 102.915C37.7107 102.794 37.5577 102.658 37.4966 102.476C37.4354 102.295 37.466 102.083 37.5883 101.811L38.3988 100.056L37.2672 99.5415L36.3803 101.448C36.1509 101.932 36.1203 102.355 36.2732 102.718C36.4261 103.081 36.7473 103.384 37.2519 103.596C37.5272 103.717 37.8177 103.808 38.1083 103.853C38.3988 103.898 38.7046 103.913 39.0105 103.898L38.0471 105.986L39.1787 106.5L41.5184 101.478L40.3715 100.964Z" fill="white"/>
<path d="M45.6627 103.837L45.9533 102.96L42.7572 101.916L41.0139 107.18L44.3323 108.255L44.6075 107.392L42.4819 106.696L42.9407 105.35L44.7758 105.94L45.0663 105.078L43.2313 104.473L43.6594 103.187L45.6627 103.837Z" fill="white"/>
<path d="M48.3694 103.671C47.9565 103.731 47.5895 103.852 47.2531 104.049C46.932 104.245 46.6414 104.503 46.412 104.835C46.1826 105.153 46.0297 105.531 45.9227 105.97C45.8309 106.378 45.8156 106.757 45.8768 107.12C45.938 107.483 46.0603 107.8 46.2591 108.088C46.4579 108.375 46.7178 108.617 47.039 108.829C47.3601 109.026 47.7424 109.177 48.1859 109.283C48.874 109.434 49.4704 109.449 49.9445 109.344L50.1586 108.36C49.6998 108.511 49.1952 108.527 48.6447 108.406C48.3541 108.345 48.1094 108.239 47.8954 108.103C47.6813 107.967 47.5131 107.8 47.3907 107.604C47.2684 107.407 47.1919 107.195 47.146 106.953C47.1155 106.711 47.1307 106.454 47.1919 106.167C47.2531 105.879 47.3601 105.622 47.4977 105.41C47.6354 105.198 47.8189 105.017 48.0177 104.896C48.2165 104.76 48.4612 104.684 48.7211 104.639C48.9811 104.593 49.2564 104.609 49.5622 104.669C50.0515 104.775 50.4644 104.987 50.8161 105.289L51.0455 104.245C50.6938 104.018 50.2198 103.852 49.6387 103.716C49.2258 103.625 48.7823 103.61 48.3694 103.671Z" fill="white"/>
<path d="M55.1589 104.563L53.232 106.696C53.1862 106.742 53.1403 106.787 53.1097 106.848C53.0791 106.908 53.0333 106.954 53.018 106.984H53.0027L53.2626 104.382L52.0087 104.261L51.4429 109.767L52.6968 109.888L52.9721 107.18H52.9874C53.018 107.241 53.0332 107.301 53.0638 107.362C53.0944 107.422 53.125 107.468 53.1403 107.498L54.6848 110.07L56.1681 110.221L54.2413 107.135L56.5504 104.699L55.1589 104.563Z" fill="white"/>
<path d="M61.1217 104.609L58.7361 108.103C58.6444 108.24 58.5832 108.345 58.5221 108.421C58.4762 108.497 58.4303 108.572 58.3997 108.633H58.3844C58.3844 108.557 58.3997 108.451 58.3997 108.315C58.3997 108.179 58.3997 108.013 58.3997 107.816L58.308 104.685L57.1458 104.715L57.314 110.252L58.5679 110.221L60.9994 106.697C61.0911 106.576 61.1523 106.454 61.2135 106.364C61.2746 106.258 61.3205 106.182 61.3358 106.122H61.3511C61.3511 106.197 61.3358 106.318 61.3358 106.454C61.3358 106.591 61.3358 106.772 61.3358 106.954L61.4275 110.146L62.5898 110.115L62.4368 104.579L61.1217 104.609Z" fill="white"/>
<path d="M67.6045 103.777L65.7388 107.559C65.6777 107.695 65.6165 107.816 65.5859 107.907C65.5553 107.998 65.5247 108.073 65.4942 108.134H65.4789C65.4789 108.058 65.4636 107.952 65.4483 107.816C65.433 107.68 65.4024 107.514 65.3718 107.332L64.8366 104.246L63.6897 104.443L64.6378 109.904L65.8765 109.692L67.788 105.85C67.8491 105.714 67.9103 105.593 67.9562 105.487C68.0021 105.381 68.0326 105.29 68.0479 105.229H68.0632C68.0632 105.305 68.0785 105.426 68.0938 105.562C68.1091 105.698 68.1397 105.865 68.1703 106.062L68.7208 109.208L69.8677 109.011L68.9196 103.55L67.6045 103.777Z" fill="white"/>
<path d="M66.0618 102.536C65.5265 102.627 65.2054 102.43 65.0831 101.946L64.3796 102.067C64.4714 102.491 64.6855 102.793 65.0066 103.005C65.3277 103.217 65.71 103.277 66.1535 103.202C66.5817 103.126 66.9028 102.944 67.1628 102.627C67.4075 102.324 67.5145 101.946 67.4839 101.522L66.7805 101.644C66.7805 101.87 66.7193 102.067 66.5817 102.233C66.4594 102.4 66.2759 102.506 66.0618 102.536Z" fill="white"/>
<path d="M75.9251 103.625C75.9098 103.761 75.9098 103.913 75.8945 104.034C75.8945 104.17 75.8792 104.306 75.8792 104.442C75.8333 104.382 75.7875 104.321 75.7416 104.261C75.6957 104.2 75.6498 104.155 75.604 104.109L73.5395 102.188L72.2703 102.657L75.604 105.577C75.5734 105.758 75.5428 105.91 75.4969 106.031C75.451 106.152 75.4051 106.273 75.3287 106.363C75.2675 106.454 75.1911 106.53 75.1146 106.575C75.0381 106.636 74.9617 106.681 74.8699 106.711C74.6253 106.802 74.3653 106.817 74.1053 106.787L74.457 107.74C74.5641 107.74 74.6864 107.725 74.8241 107.695C74.9617 107.664 75.1299 107.619 75.3287 107.543C75.6039 107.438 75.8333 107.317 76.0169 107.165C76.2004 107.014 76.338 106.848 76.4603 106.636C76.5674 106.439 76.6591 106.197 76.7203 105.94C76.7814 105.683 76.8273 105.38 76.8579 105.047L77.3014 100.796L76.078 101.25L75.9251 103.625Z" fill="white"/>
<path d="M81.0631 98.8449L82.0877 100.781L79.855 101.946L78.8151 99.9946L77.7141 100.585L80.3291 105.471L81.4301 104.896L80.3138 102.793L82.5464 101.628L83.6627 103.731L84.7791 103.156L82.1641 98.2549L81.0631 98.8449Z" fill="white"/>
<path d="M86.4765 95.2901L86.4918 99.4956C86.4918 99.6469 86.4918 99.783 86.4918 99.8738C86.4918 99.9646 86.5071 100.04 86.5071 100.116L86.4918 100.131C86.4612 100.07 86.4 99.9797 86.3236 99.8587C86.2471 99.7376 86.1554 99.6015 86.0483 99.4502L84.198 96.9088L83.2651 97.5895L86.5376 102.067L87.5622 101.341V97.0751C87.5622 96.9239 87.5622 96.7877 87.5469 96.6818C87.5316 96.5608 87.5316 96.47 87.5163 96.4095L87.5317 96.3944C87.5775 96.4701 87.6234 96.5608 87.7151 96.6818C87.7916 96.8028 87.8987 96.939 88.0057 97.1054L89.8866 99.6923L90.8194 99.0115L87.5469 94.5337L86.4765 95.2901Z" fill="white"/>
<path d="M94.3507 93.6258C94.2284 93.5048 94.0907 93.3989 93.9531 93.3384C93.8002 93.2627 93.6473 93.2324 93.4791 93.2324C93.3108 93.2324 93.1426 93.2627 92.9591 93.3233C92.7756 93.3838 92.5921 93.4896 92.4086 93.6258L92.3933 93.6106C92.5921 93.293 92.6839 92.9753 92.6686 92.6879C92.6533 92.3853 92.5462 92.1282 92.3322 91.9012C92.0569 91.6138 91.7205 91.4928 91.3229 91.5533C90.9253 91.6138 90.4971 91.8558 90.023 92.2945L88.5244 93.6863L92.3474 97.7254L93.9072 96.2732C94.1366 96.0614 94.3201 95.8344 94.4578 95.6075C94.5954 95.3806 94.6871 95.1386 94.7177 94.9117C94.7483 94.6847 94.7483 94.4578 94.6871 94.246C94.626 94.004 94.5189 93.8073 94.3507 93.6258ZM90.9864 94.4729L90.023 93.4594L90.3901 93.1266C90.6194 92.8997 90.8335 92.7786 91.0017 92.7333C91.1699 92.6879 91.3382 92.7635 91.5064 92.9299C91.6899 93.1266 91.7663 93.3232 91.7358 93.535C91.7052 93.7468 91.5828 93.9586 91.3535 94.1553L90.9864 94.4729ZM93.1579 95.7891L92.6686 96.2429L91.5828 95.0932L92.0263 94.6848C92.3016 94.4276 92.5462 94.2763 92.7756 94.246C93.005 94.2158 93.2038 94.2914 93.4026 94.5032C93.6014 94.6999 93.6626 94.9116 93.6167 95.1234C93.5555 95.3352 93.4026 95.5621 93.1579 95.7891Z" fill="white"/>
<path d="M96.6146 92.1433L95.5288 91.2205L96.7828 89.7683L96.0794 89.1632L94.8254 90.6305L93.7703 89.738L95.1465 88.1496L94.4431 87.5596L92.2563 90.0708L96.4922 93.6864L98.7707 91.0692L98.0826 90.4641L96.6146 92.1433Z" fill="white"/>
<path d="M99.14 87.2572C99.3388 86.9849 99.4764 86.6974 99.5681 86.4251C99.6599 86.1528 99.6905 85.8805 99.6599 85.6233C99.6446 85.3662 99.5681 85.1241 99.4305 84.9123C99.3082 84.6854 99.1247 84.5039 98.8953 84.3526C98.4365 84.0349 97.9625 83.9442 97.5037 84.0803C97.0449 84.2165 96.6015 84.5795 96.1886 85.1847L95.0723 86.7731L99.6599 89.9348L100.379 88.9212L98.7577 87.8169L99.14 87.2572ZM98.3295 86.8941L98.0542 87.3025L96.525 86.2436L96.8309 85.8049C97.045 85.5023 97.259 85.3359 97.4731 85.2603C97.6872 85.1998 97.9319 85.2452 98.1766 85.4267C98.4518 85.6082 98.5895 85.8351 98.62 86.0772C98.6353 86.3192 98.5436 86.5915 98.3295 86.8941Z" fill="white"/>
<path d="M103.374 82.4618C103.237 82.719 103.068 82.9307 102.885 83.082C102.701 83.2484 102.487 83.3543 102.273 83.4148C102.044 83.4753 101.814 83.4905 101.57 83.4602C101.325 83.43 101.065 83.3392 100.82 83.2031C100.56 83.0669 100.331 82.8854 100.163 82.6887C99.9947 82.492 99.8723 82.2803 99.8112 82.0382C99.75 81.8113 99.7347 81.5693 99.7653 81.297C99.7959 81.0398 99.8876 80.7826 100.041 80.5103C100.285 80.0716 100.591 79.7388 100.989 79.4968L100.056 78.9976C99.7347 79.2699 99.4289 79.6631 99.1536 80.1926C98.9242 80.6011 98.7866 81.0095 98.7254 81.418C98.6643 81.8264 98.6949 82.2198 98.7866 82.5828C98.8936 82.9459 99.0619 83.2938 99.3065 83.5964C99.5512 83.8989 99.8723 84.1712 100.27 84.3679C100.637 84.5646 101.004 84.6856 101.371 84.7309C101.738 84.7763 102.09 84.7461 102.411 84.6402C102.747 84.5343 103.053 84.3527 103.344 84.1107C103.634 83.8535 103.894 83.5359 104.108 83.1425C104.445 82.5223 104.628 81.9777 104.659 81.4785L103.772 80.9944C103.772 81.4936 103.634 81.9777 103.374 82.4618Z" fill="white"/>
<path d="M101.754 74.5046L104.078 78.0294C104.17 78.1655 104.231 78.2714 104.292 78.3471C104.353 78.4227 104.399 78.4832 104.445 78.5437V78.5589C104.384 78.5286 104.292 78.4832 104.155 78.4227C104.032 78.3622 103.879 78.3017 103.696 78.2412L100.744 77.1066L100.332 78.1807L105.546 80.1927L106.005 79.0278L103.665 75.4426C103.589 75.3215 103.512 75.2005 103.436 75.1097C103.359 75.019 103.314 74.9433 103.268 74.8979V74.8828C103.344 74.9282 103.436 74.9736 103.573 75.019C103.711 75.0795 103.864 75.14 104.048 75.2157L107.045 76.3653L107.458 75.2913L102.243 73.2793L101.754 74.5046Z" fill="white"/>
<path d="M103.743 71.2975L108.239 72.417L108.544 71.2219L104.049 70.0873L104.461 68.4535L103.544 68.2266L102.397 72.7044L103.314 72.9313L103.743 71.2975Z" fill="white"/>
<path d="M108.435 67.0316L107.013 66.8198L107.303 64.9137L106.386 64.7775L106.095 66.6836L104.734 66.4719L105.055 64.4145L104.138 64.2783L103.633 67.561L109.169 68.3931L109.689 64.9591L108.771 64.8229L108.435 67.0316Z" fill="white"/>
<path d="M105.239 62.236L109.873 62.4478L109.934 61.2074L105.3 60.9955L105.377 59.3012L104.429 59.2559L104.199 63.8699L105.147 63.9152L105.239 62.236Z" fill="white"/>
<path d="M106.786 56.1091C106.786 56.8806 107.428 57.5159 108.208 57.5159C108.988 57.5159 109.63 56.8806 109.63 56.1091C109.63 55.3376 108.988 54.7021 108.208 54.7021C107.428 54.7021 106.786 55.3224 106.786 56.1091Z" fill="white"/>
<path d="M65.3748 55.9126H62.3469V65.3826H65.3748V55.9126Z" fill="white"/>
<path d="M69.948 55.9126H66.9202V65.3826H69.948V55.9126Z" fill="white"/>
<path d="M74.5022 55.9126H71.4744V65.3826H74.5022V55.9126Z" fill="white"/>
<path d="M79.0591 55.9126H76.0312V65.3826H79.0591V55.9126Z" fill="white"/>
<path d="M43.7352 40.4668H40.2639V65.4579H43.7352V40.4668Z" fill="white"/>
<path d="M49.3177 40.4668H45.8464V65.4579H49.3177V40.4668Z" fill="white"/>
<path d="M54.8978 40.4668H51.4265V65.4579H54.8978V40.4668Z" fill="white"/>
<path d="M62.9129 44.8996C62.607 45.0357 62.2706 45.1265 61.9036 45.187V46.4578C62.1635 46.4275 62.3929 46.3972 62.5917 46.3367C62.7905 46.2762 62.9893 46.2006 63.1728 46.0947V50.1943H64.8856V44.3701H63.8763C63.5551 44.5819 63.234 44.7634 62.9129 44.8996Z" fill="white"/>
<path d="M69.5476 44.7181C69.2111 44.4912 68.8288 44.3853 68.3854 44.3853C67.9572 44.3853 67.5902 44.476 67.2691 44.6424C66.9479 44.8088 66.6879 45.0509 66.5197 45.3686C66.3515 45.6862 66.2598 46.0493 66.2598 46.4729C66.2598 46.8057 66.3209 47.1082 66.4586 47.3805C66.5962 47.6377 66.7797 47.8495 67.0244 48.0008C67.269 48.1521 67.529 48.2277 67.8196 48.2277C68.3089 48.2277 68.6759 48.0613 68.9206 47.7436H68.9512C68.9512 48.1672 68.8441 48.5 68.63 48.7118C68.416 48.9236 68.1101 49.0446 67.7125 49.0446C67.5443 49.0446 67.3455 49.0143 67.1314 48.9538C66.9173 48.8933 66.7491 48.8328 66.6268 48.7572V50.0582C67.0091 50.2095 67.4373 50.2851 67.9419 50.2851C68.7677 50.2851 69.4099 49.9977 69.884 49.4379C70.358 48.8782 70.5874 48.0915 70.5874 47.0931C70.5874 46.5334 70.511 46.0644 70.3428 45.656C70.144 45.2627 69.884 44.945 69.5476 44.7181ZM68.7371 46.8511C68.6606 46.9721 68.5383 47.0477 68.3701 47.0477C68.2325 47.0477 68.1101 46.9872 68.0183 46.8662C67.9266 46.7452 67.8807 46.5788 67.8807 46.3518C67.8807 46.1098 67.9266 45.9283 68.0183 45.8224C68.1101 45.7165 68.2324 45.656 68.3854 45.656C68.5383 45.656 68.6453 45.7165 68.7371 45.8527C68.8288 45.9888 68.8747 46.1552 68.8747 46.3518C68.8594 46.5636 68.8135 46.7301 68.7371 46.8511Z" fill="white"/>
<path d="M74.5323 46.4275C74.0277 46.4275 73.6454 46.5939 73.3701 46.9116H73.3395C73.3701 46.5183 73.4925 46.2157 73.7218 45.9737C73.9512 45.7316 74.2418 45.6106 74.6088 45.6106C74.9758 45.6106 75.2816 45.6863 75.5416 45.8527V44.5214C75.2816 44.4306 74.9146 44.3701 74.4864 44.3701C73.9053 44.3701 73.416 44.4911 73.0031 44.7483C72.5902 45.0055 72.2691 45.3837 72.0397 45.8829C71.8103 46.3821 71.688 46.957 71.688 47.5923C71.688 48.4395 71.8868 49.09 72.2538 49.5589C72.6361 50.0279 73.1713 50.2549 73.8747 50.2549C74.2723 50.2549 74.6394 50.1641 74.9605 49.9825C75.2816 49.801 75.5416 49.559 75.7098 49.2413C75.8933 48.9236 75.9698 48.5756 75.9698 48.1974C75.9698 47.668 75.8321 47.2444 75.5722 46.9116C75.3428 46.5939 74.9758 46.4275 74.5323 46.4275ZM74.2418 48.8026C74.15 48.9236 74.0277 48.9992 73.8747 48.9992C73.7371 48.9992 73.6148 48.9387 73.523 48.8026C73.4313 48.6664 73.3854 48.5 73.3854 48.3034C73.3854 48.0916 73.4313 47.9252 73.5077 47.789C73.5995 47.668 73.7218 47.5923 73.8747 47.5923C74.043 47.5923 74.1653 47.6528 74.2418 47.7739C74.3182 47.8949 74.3641 48.0613 74.3641 48.2731C74.3794 48.5 74.3335 48.6815 74.2418 48.8026Z" fill="white"/>
<path d="M79.2282 46.5784C79.0906 46.5784 78.953 46.5784 78.7848 46.6087L78.8459 45.8069H80.7728V44.4907H77.5155L77.3014 47.9096C77.6073 47.8491 77.9284 47.8037 78.2801 47.8037C78.9836 47.8037 79.3353 48.0155 79.3353 48.4391C79.3353 48.6358 79.2588 48.787 79.1059 48.8929C78.953 48.9988 78.7236 49.0593 78.4331 49.0593C77.9896 49.0593 77.5614 48.9535 77.1638 48.7417V50.0578C77.3473 50.1334 77.592 50.1788 77.8672 50.2242C78.1578 50.2696 78.4331 50.2847 78.693 50.2847C79.1671 50.2847 79.58 50.1939 79.9317 50.0275C80.2834 49.8611 80.5587 49.6191 80.7422 49.3014C80.9257 48.9988 81.0174 48.6509 81.0174 48.2576C81.0174 47.7432 80.8645 47.3348 80.5434 47.0322C80.2375 46.7297 79.794 46.5784 79.2282 46.5784Z" fill="white"/>
<path d="M29.038 76.9101L57.3284 76.8495L58.2765 77.9236H60.6315L61.5796 76.8495L89.7477 76.9857L89.763 48.727L86.4752 48.6059L86.521 40.2403L59.9587 40.3462V35.0514H57.1449L54.0559 32.8882H48.5966V34.4917H46.8686V32.9033H41.3176L38.2592 35.0968H35.4301V40.7698H32.2493L32.2035 48.4698L29.0227 48.7118L29.038 76.9101ZM37.1275 36.7609H38.825L41.8834 34.5673H45.2018V36.1558H50.294V34.5673H53.536L56.625 36.7307H58.2918L58.2765 65.4735H59.9587V53.6587L81.5664 53.704V68.2418H37.1275V36.7609ZM33.9315 42.4338H35.4301V69.8908H83.2485V52.04L59.9587 51.9946V42.0254L84.8236 41.9195L84.6554 71.7212H33.7633L33.9315 42.4338ZM32.2035 50.1339L32.0658 73.3853H86.3222L86.4599 50.2851L88.0655 50.3457L88.0503 75.3216L60.7997 75.1855L59.8516 76.2595H59.0411L58.093 75.1855L30.7201 75.246L30.7048 50.2398L32.2035 50.1339Z" fill="white"/>
<path d="M61.2906 84.7914L71.5821 84.8066V82.9912L60.7248 82.9761L59.272 83.9745L57.8192 82.9761H46.9924V84.7914H57.2534L59.2873 86.1832L61.2906 84.7914Z" fill="white"/>
</svg>
