<svg width="300" height="130" viewBox="0 0 300 130" fill="none" xmlns="http://www.w3.org/2000/svg">
<path d="M171.733 75.9683L242.5 80.6523" stroke="white" stroke-width="1.09495"/>
<path d="M297 128.685L295.07 130.069H244.201L241.582 129.377L242.271 125.503L245.856 125.226L246.821 122.875L244.615 119.554L245.856 116.926L250.543 117.756L251.921 115.819L249.853 111.807L252.886 109.593L256.195 111.807L258.125 110.7V106.135L261.433 104.751L264.053 108.625L266.258 108.21L267.637 103.645L270.945 103.921L272.186 108.21L274.392 108.625L277.011 104.751L280.32 106.135L279.906 110.7L281.974 111.807L285.696 109.178L288.453 111.392L286.661 115.819L288.039 117.479L292.589 116.372L294.381 119.554L290.934 122.875L291.899 125.226L296.311 125.503L297 128.685Z" stroke="white" stroke-width="1.01225"/>
<path d="M249.369 130.607C250.819 120.395 259.372 112.572 269.682 112.572C279.992 112.572 288.545 120.395 289.996 130.607H249.369Z" stroke="white" stroke-width="1.09495"/>
<path d="M252.695 129.832C253.933 121.735 261.027 115.517 269.603 115.517C278.179 115.517 285.273 121.735 286.511 129.832H252.695Z" stroke="white" stroke-width="1.00588"/>
<path d="M264.089 129.758C264.704 127.317 267.073 125.457 269.955 125.457C272.838 125.457 275.207 127.317 275.822 129.758H264.089Z" fill="white" stroke="white" stroke-width="1.09495"/>
<path d="M265.18 129.888C265.701 127.989 267.506 126.568 269.681 126.568C271.857 126.568 273.662 127.989 274.183 129.888H265.18Z" fill="white" stroke="white" stroke-width="1.09495"/>
<path d="M255.278 62.8987L276 128.841L274.47 127.287L255 65.1579" stroke="white" stroke-width="0.4"/>
<path d="M266 129.855L244.664 69.4839L243 67.9712L264.789 129.855H266Z" stroke="white" stroke-width="0.4"/>
<path d="M255.174 63.5371C255.174 67.403 252.206 70.4876 248.604 70.4876C245.003 70.4876 242.035 67.403 242.035 63.5371C242.035 59.6712 245.003 56.5865 248.604 56.5865C252.206 56.5865 255.174 59.6712 255.174 63.5371Z" stroke="white" stroke-width="1.09495"/>
<path d="M252.453 63.4058C252.453 65.6322 250.676 67.4235 248.5 67.4235C246.324 67.4235 244.547 65.6322 244.547 63.4058C244.547 61.1794 246.324 59.3881 248.5 59.3881C250.676 59.3881 252.453 61.1794 252.453 63.4058Z" stroke="white" stroke-width="1.09495"/>
<path d="M166.25 126.665C166.25 129.623 163.889 132.002 161 132.002C158.111 132.002 155.75 129.623 155.75 126.665C155.75 123.707 158.111 121.328 161 121.328C163.889 121.328 166.25 123.707 166.25 126.665Z" stroke="white" stroke-width="1.5"/>
<path d="M182.075 127.131C182.075 139.119 172.741 148.8 161.271 148.8C149.802 148.8 140.467 139.119 140.467 127.131C140.467 115.143 149.802 105.463 161.271 105.463C172.741 105.463 182.075 115.143 182.075 127.131Z" stroke="white" stroke-width="1.09495"/>
<path d="M178.453 127.319C178.453 137.404 170.617 145.54 161 145.54C151.383 145.54 143.547 137.404 143.547 127.319C143.547 117.234 151.383 109.098 161 109.098C170.617 109.098 178.453 117.234 178.453 127.319Z" stroke="white" stroke-width="1.09495"/>
<path d="M266.671 62.9819C266.671 73.2773 258.567 81.596 248.604 81.596C238.641 81.596 230.538 73.2773 230.538 62.9819C230.538 52.6865 238.641 44.3678 248.604 44.3678C258.567 44.3678 266.671 52.6865 266.671 62.9819Z" stroke="white" stroke-width="1.09495"/>
<path d="M260.453 63.4059C260.453 70.6946 254.851 76.554 248 76.554C241.149 76.554 235.547 70.6946 235.547 63.4059C235.547 56.1171 241.149 50.2577 248 50.2577C254.851 50.2577 260.453 56.1171 260.453 63.4059Z" stroke="white" stroke-width="1.09495"/>
<path d="M270.23 63.2595C270.23 75.7098 260.405 85.7655 248.331 85.7655C236.256 85.7655 226.432 75.7098 226.432 63.2595C226.432 50.8093 236.256 40.7536 248.331 40.7536C260.405 40.7536 270.23 50.8093 270.23 63.2595Z" stroke="white" stroke-width="1.64242"/>
<path d="M169.5 54.7828L243.5 41.0872M238.002 47.6814L171.5 57.8263" stroke="white" stroke-width="1.09495"/>
<path d="M169 78.6233L242.362 85.2882" stroke="white" stroke-width="1.09495"/>
<path d="M159.335 98.8057L158.252 103.271L155.907 103.621L153.201 99.9439L149.954 101.082L150.495 105.635L148.51 106.686L144.632 104.147L142.016 106.511L143.91 110.538L142.557 112.114L138.317 111.151L136.423 114.216L139.671 117.543L138.949 119.557L134.348 119.819L133.897 123.321L137.957 125.423V127.612L133.897 129.45L134.619 132.953L139.219 133.215L139.941 135.667L136.874 138.644L138.678 141.796L142.918 140.483L144.632 142.321L142.557 146.349L145.804 148.45L149.322 145.911L151.577 146.962L150.946 151.515L154.374 152.74L157.17 148.976L159.064 149.413L160.057 153.791L163.845 153.704L164.928 149.413L167.092 148.976L169.889 152.74L173.136 151.515L172.775 146.962L174.67 145.911L178.458 148.45L181.164 146.086L179.09 141.971L180.623 140.307L185.043 141.358L186.667 138.381L183.51 135.054L184.231 133.04L188.741 132.778L189.192 129.188L185.133 127.349V125.073L189.192 123.234L188.381 119.644L183.961 119.381L183.059 117.105L186.216 113.778L184.412 110.976L180.082 112.114L178.548 110.276L180.443 106.336L177.556 104.147L173.948 106.686L172.054 105.548L172.324 101.082L168.897 99.8563L166.371 103.621L164.206 103.271L162.943 98.8057H159.335Z" stroke="white" stroke-width="1.3"/>
<path fill-rule="evenodd" clip-rule="evenodd" d="M165.688 0.00817871H165.14V0.555653V30.0011L165.128 30.052L162.426 30.4738L158.579 25.0106L158.292 24.603L157.824 24.7744L152.929 26.5677L152.449 26.7435L152.507 27.2515L153.274 33.9926L151.014 35.2434L145.498 31.4695L145.065 31.1736L144.684 31.5334L140.741 35.2578L140.405 35.5754L140.595 35.9971L143.285 41.9747L141.759 43.8324L135.763 42.4088L135.297 42.2982L135.053 42.7103L132.198 47.5383L131.95 47.9571L132.282 48.3128L136.911 53.2693L136.091 55.6607L129.591 56.0485L129.051 56.0808L128.985 56.6179L128.305 62.1355L128.251 62.5757L128.641 62.7867L134.419 65.913V68.5627L128.672 71.2834L128.215 71.5L128.312 71.9966L129.4 77.5143L129.497 78.0074L129.999 78.0374L136.472 78.4237L137.332 81.4774L132.974 85.8984L132.635 86.2428L132.867 86.6669L135.587 91.6328L135.845 92.1047L136.357 91.939L142.344 90.0004L144.354 92.2539L141.42 98.2062L141.17 98.7145L141.639 99.0319L146.534 102.343L146.919 102.603L147.29 102.323L152.275 98.5626L154.894 99.8383L154.004 106.547L153.936 107.06L154.421 107.241L159.588 109.172L160.056 109.347L160.345 108.94L164.306 103.367L166.337 103.858L167.746 110.356L167.86 110.881L168.397 110.868L174.108 110.73L174.607 110.718L174.724 110.233L176.26 103.873L178.704 103.356L182.673 108.94L182.967 109.355L183.441 109.168L188.336 107.237L188.782 107.061L188.745 106.583L188.232 99.8168L190.376 98.5743L195.747 102.336L196.173 102.635L196.558 102.284L200.637 98.5597L200.994 98.2333L200.784 97.7973L197.844 91.7028L199.609 89.7016L205.889 91.2617L206.385 91.385L206.622 90.9316L209.069 86.2416L209.279 85.8396L208.974 85.504L204.473 80.5466L205.295 78.1488L211.66 77.7615L212.201 77.7285L212.266 77.1902L212.945 71.5347L213.001 71.0699L212.578 70.8696L206.831 68.1489V65.3853L212.578 62.6646L213.044 62.4438L212.935 61.9396L211.712 56.284L211.608 55.8033L211.117 55.7728L204.873 55.3849L203.803 52.5632L208.294 47.6164L208.623 47.2546L208.366 46.8385L205.647 42.4244L205.391 42.0094L204.921 42.1386L198.808 43.8183L197.013 41.5695L199.701 35.7261L199.915 35.2622L199.515 34.9451L195.164 31.4965L194.775 31.1882L194.375 31.4823L189.292 35.2206L187.137 33.8669L187.523 27.2156L187.55 26.737L187.101 26.5691L181.934 24.638L181.443 24.4544L181.16 24.8957L177.584 30.4658L175.155 30.055L175.048 29.658V0.555653V0.00817871H174.5H165.688ZM173.953 25.6114V1.10313H166.235V25.2801L166.661 23.4447L166.777 22.9415H167.294H172.733H173.23L173.36 23.4218L173.953 25.6114ZM79 29C83.9706 29 88 24.9706 88 20C88 15.0294 83.9706 11 79 11C74.0294 11 70 15.0294 70 20C70 24.9706 74.0294 29 79 29ZM79 30C84.5228 30 89 25.5228 89 20C89 14.4771 84.5228 9.99999 79 9.99999C73.4772 9.99999 69 14.4771 69 20C69 25.5228 73.4772 30 79 30ZM170.694 75.604C175.316 75.604 179.117 71.7391 179.117 66.9051C179.117 62.0712 175.316 58.2063 170.694 58.2063C166.071 58.2063 162.271 62.0712 162.271 66.9051C162.271 71.7391 166.071 75.604 170.694 75.604ZM170.694 76.6989C175.95 76.6989 180.212 72.3141 180.212 66.9051C180.212 61.4962 175.95 57.1113 170.694 57.1113C165.437 57.1113 161.176 61.4962 161.176 66.9051C161.176 72.3141 165.437 76.6989 170.694 76.6989ZM82.716 19.8672C82.716 22.1428 80.9579 23.8849 78.9132 23.8849C76.8685 23.8849 75.1104 22.1428 75.1104 19.8672C75.1104 17.5917 76.8685 15.8496 78.9132 15.8496C80.9579 15.8496 82.716 17.5917 82.716 19.8672ZM84.216 19.8672C84.216 22.9145 81.8419 25.3849 78.9132 25.3849C75.9845 25.3849 73.6104 22.9145 73.6104 19.8672C73.6104 16.8199 75.9845 14.3496 78.9132 14.3496C81.8419 14.3496 84.216 16.8199 84.216 19.8672ZM78.9131 21.0984C79.4457 21.0984 79.9807 20.6068 79.9807 19.8672C79.9807 19.1276 79.4457 18.636 78.9131 18.636C78.3805 18.636 77.8455 19.1276 77.8455 19.8672C77.8455 20.6068 78.3805 21.0984 78.9131 21.0984ZM78.9131 21.7984C79.8894 21.7984 80.6807 20.9338 80.6807 19.8672C80.6807 18.8006 79.8894 17.936 78.9131 17.936C77.9369 17.936 77.1455 18.8006 77.1455 19.8672C77.1455 20.9338 77.9369 21.7984 78.9131 21.7984ZM86.4357 19.8672C86.4357 20.4108 86.0571 20.7466 85.712 20.7466C85.3669 20.7466 84.9883 20.4108 84.9883 19.8672C84.9883 19.3235 85.3669 18.9878 85.712 18.9878C86.0571 18.9878 86.4357 19.3235 86.4357 19.8672ZM86.9357 19.8672C86.9357 20.629 86.3879 21.2466 85.712 21.2466C85.0362 21.2466 84.4883 20.629 84.4883 19.8672C84.4883 19.1054 85.0362 18.4878 85.712 18.4878C86.3879 18.4878 86.9357 19.1054 86.9357 19.8672ZM72.1144 20.7466C72.4595 20.7466 72.8381 20.4108 72.8381 19.8672C72.8381 19.3235 72.4595 18.9878 72.1144 18.9878C71.7693 18.9878 71.3906 19.3235 71.3906 19.8672C71.3906 20.4108 71.7693 20.7466 72.1144 20.7466ZM72.1144 21.2466C72.7902 21.2466 73.3381 20.629 73.3381 19.8672C73.3381 19.1054 72.7902 18.4878 72.1144 18.4878C71.4385 18.4878 70.8906 19.1054 70.8906 19.8672C70.8906 20.629 71.4385 21.2466 72.1144 21.2466ZM79.6369 12.6943C79.6369 13.238 79.2583 13.5738 78.9132 13.5738C78.5681 13.5738 78.1895 13.238 78.1895 12.6943C78.1895 12.1507 78.5681 11.8149 78.9132 11.8149C79.2583 11.8149 79.6369 12.1507 79.6369 12.6943ZM80.1369 12.6943C80.1369 13.4562 79.589 14.0738 78.9132 14.0738C78.2373 14.0738 77.6895 13.4562 77.6895 12.6943C77.6895 11.9325 78.2373 11.3149 78.9132 11.3149C79.589 11.3149 80.1369 11.9325 80.1369 12.6943ZM78.9132 27.9197C79.2583 27.9197 79.6369 27.5839 79.6369 27.0403C79.6369 26.4966 79.2583 26.1609 78.9132 26.1609C78.5681 26.1609 78.1895 26.4966 78.1895 27.0403C78.1895 27.5839 78.5681 27.9197 78.9132 27.9197ZM78.9132 28.4197C79.589 28.4197 80.1369 27.8021 80.1369 27.0403C80.1369 26.2785 79.589 25.6609 78.9132 25.6609C78.2373 25.6609 77.6895 26.2785 77.6895 27.0403C77.6895 27.8021 78.2373 28.4197 78.9132 28.4197ZM181.836 66.9052C181.836 73.2595 176.821 78.3628 170.693 78.3628C164.566 78.3628 159.551 73.2595 159.551 66.9052C159.551 60.5508 164.566 55.4475 170.693 55.4475C176.821 55.4475 181.836 60.5508 181.836 66.9052ZM182.931 66.9052C182.931 73.8378 177.452 79.4578 170.693 79.4578C163.935 79.4578 158.456 73.8378 158.456 66.9052C158.456 59.9725 163.935 54.3525 170.693 54.3525C177.452 54.3525 182.931 59.9725 182.931 66.9052ZM170.694 80.294C177.874 80.294 183.74 74.3245 183.74 66.9052C183.74 59.4858 177.874 53.5163 170.694 53.5163C163.513 53.5163 157.648 59.4858 157.648 66.9052C157.648 74.3245 163.513 80.294 170.694 80.294ZM170.694 81.389C178.503 81.389 184.835 74.9044 184.835 66.9052C184.835 58.906 178.503 52.4214 170.694 52.4214C162.884 52.4214 156.553 58.906 156.553 66.9052C156.553 74.9044 162.884 81.389 170.694 81.389ZM186.73 66.9052C186.73 75.9988 179.527 83.3288 170.693 83.3288C161.859 83.3288 154.655 75.9988 154.655 66.9052C154.655 57.8116 161.859 50.4817 170.693 50.4817C179.527 50.4817 186.73 57.8116 186.73 66.9052ZM174.967 83.874C173.601 84.2329 172.169 84.4237 170.693 84.4237C169.33 84.4237 168.005 84.2611 166.734 83.9537L166.876 84.2144C163.236 86.2032 157.924 85.6905 154.01 83.1775C153.831 84.6401 152.594 85.7818 151.079 85.8015C150.702 85.8064 150.341 85.7414 150.007 85.6184C155.124 91.5437 162.636 95.282 171 95.282C179.452 95.282 187.034 91.4645 192.154 85.4304C191.737 85.6609 191.258 85.7949 190.748 85.8015C189.172 85.8221 187.865 84.6194 187.73 83.0737C185.832 84.2823 183.597 85.045 181.394 85.2952C179.036 85.563 176.673 85.2475 174.782 84.2144L174.967 83.874ZM175.975 83.5753C177.507 84.2218 179.361 84.4241 181.271 84.2072C183.464 83.9581 185.689 83.1601 187.515 81.9035L187.711 82.1884L187.556 70.0125C186.436 76.4131 181.916 81.6084 175.975 83.5753ZM153.874 70.2568C155.076 76.6009 159.625 81.7237 165.567 83.6263C162.27 84.9795 157.673 84.3778 154.279 82.0415L154.028 82.4065L153.874 70.2568ZM187.472 63.349L187.32 51.3709L187.108 51.6795C183.672 49.3142 179.003 48.7267 175.697 50.1459C181.634 51.9973 186.203 57.0567 187.472 63.349ZM174.51 49.5066C176.008 48.6884 177.788 48.2936 179.638 48.2872C178.041 45.2311 176.889 42.6998 176.042 40.0347C175.937 39.7049 175.836 39.3733 175.741 39.0386C174.2 38.7708 172.616 38.6313 171 38.6313C168.796 38.6313 166.651 38.8909 164.594 39.3816C164.529 39.6003 164.462 39.8179 164.393 40.0347C163.529 42.7493 162.351 45.3251 160.707 48.4581C162.669 48.4111 164.575 48.8247 166.202 49.7365L166.03 50.0434C167.512 49.6156 169.076 49.3867 170.693 49.3867C172.076 49.3867 173.421 49.5543 174.709 49.8708L174.51 49.5066ZM177.085 39.7028C177.956 42.4413 179.163 45.0528 180.904 48.3423C183.167 48.5456 185.46 49.306 187.405 50.5619C187.722 49.2694 188.88 48.3028 190.272 48.2847C191.924 48.2631 193.28 49.5848 193.301 51.2367L193.701 82.7714C193.705 83.0475 193.671 83.3153 193.604 83.5701C196.938 78.9049 198.905 73.166 198.905 66.9567C198.905 53.3754 189.495 42.0448 176.953 39.2775C176.996 39.4197 177.04 39.5614 177.085 39.7028ZM200 66.9567C200 52.6568 189.944 40.7398 176.614 38.0872C176.437 37.418 176.275 36.7319 176.129 36.018C190.746 38.4969 201.905 51.3935 201.905 66.9567C201.905 84.2961 188.054 98.3255 171 98.3255C153.946 98.3255 140.095 84.2961 140.095 66.9567C140.095 51.9785 150.431 39.4702 164.238 36.3413C164.081 37.0758 163.908 37.782 163.716 38.4721C151.225 41.7501 142 53.2604 142 66.9567C142 83.205 154.984 96.3769 171 96.3769C187.016 96.3769 200 83.205 200 66.9567ZM171 37.5364C172.506 37.5364 173.985 37.6528 175.429 37.8773C175.264 37.2193 175.114 36.5449 174.977 35.8453C173.675 35.6754 172.347 35.5879 171 35.5879C169.09 35.5879 167.221 35.7638 165.407 36.1005C165.262 36.817 165.103 37.5077 164.928 38.1824C166.886 37.7591 168.917 37.5364 171 37.5364ZM171 34.4929C172.276 34.4929 173.534 34.5686 174.771 34.7159C174.586 33.6289 174.427 32.4756 174.287 31.2267L174.118 31.1981L174.009 30.7963L172.235 24.2415H167.81L166.295 30.7734L166.196 31.2011L166.15 31.2083C165.999 32.5541 165.827 33.7888 165.624 34.9491C167.372 34.6491 169.168 34.4929 171 34.4929ZM203 66.9567C203 50.721 191.252 37.269 175.909 34.8726C175.719 33.8001 175.555 32.6587 175.411 31.4167L177.791 31.8192L178.215 31.8908L178.447 31.5294L181.97 26.0393L186.197 27.619L185.817 34.1754L185.795 34.5591L186.12 34.7635L188.975 36.5567L189.35 36.7919L189.706 36.5299L194.745 32.8237L198.307 35.6467L195.665 41.3902L195.498 41.7541L195.747 42.0672L198.059 44.964L198.326 45.2989L198.739 45.1853L204.796 43.5212L207.003 47.1043L202.573 51.9843L202.305 52.2792L202.446 52.6516L203.806 56.2381L203.955 56.6304L204.373 56.6564L210.545 57.0398L211.556 61.7103L205.903 64.3864L205.531 64.5624V64.9738V68.5603V68.9718L205.903 69.1478L211.599 71.8443L211.04 76.4968L204.782 76.8777L204.348 76.9041L204.207 77.3157L203.119 80.4883L202.994 80.8517L203.253 81.136L207.707 86.0421L205.706 89.8767L199.54 88.3448L199.156 88.2496L198.895 88.5456L196.584 91.1665L196.298 91.4902L196.486 91.8789L199.403 97.9261L196.066 100.973L190.782 97.2714L190.442 97.0333L190.083 97.2415L187.227 98.8968L186.874 99.1014L186.905 99.5083L187.413 106.203L183.437 107.772L179.517 102.255L179.27 101.908L178.853 101.996L175.59 102.686L175.188 102.77L175.092 103.169L173.578 109.443L168.903 109.556L167.521 103.184L167.435 102.785L167.039 102.69L164.183 102L163.756 101.897L163.501 102.255L159.575 107.779L155.361 106.204L156.245 99.5446L156.306 99.0799L155.885 98.8747L152.486 97.2194L152.128 97.0451L151.81 97.2849L146.878 101.005L142.837 98.2726L145.714 92.4356L145.907 92.0426L145.616 91.7156L143.032 88.8188L142.75 88.5025L142.347 88.6331L136.468 90.5365L134.24 86.4666L138.523 82.121L138.788 81.852L138.686 81.4885L137.598 77.6262L137.473 77.1811L137.011 77.1535L130.578 76.7696L129.686 72.2418L135.347 69.5616L135.719 69.3856V68.9741V65.5256V65.1383L135.378 64.9539L129.65 61.8544L130.209 57.314L136.603 56.9324L137.038 56.9065L137.179 56.4944L138.267 53.3217L138.394 52.9525L138.127 52.6673L133.565 47.7812L135.928 43.7843L141.853 45.191L142.248 45.2847L142.506 44.9712L144.545 42.4882L144.801 42.1766L144.636 41.8089L141.97 35.8853L145.196 32.8383L150.61 36.5427L150.941 36.7691L151.292 36.575L154.283 34.9197L154.664 34.7093L154.615 34.2775L153.857 27.6125L157.803 26.1666L161.596 31.5525L161.828 31.8828L162.227 31.8205L165.028 31.3834C164.869 32.7536 164.687 34.0013 164.471 35.169C149.929 38.2271 139 51.2971 139 66.9567C139 84.8859 153.327 99.4204 171 99.4204C188.673 99.4204 203 84.8859 203 66.9567ZM159.418 48.5543C161.218 45.1674 162.458 42.5046 163.347 39.7101C158.081 41.2317 153.447 44.2845 149.945 48.3661C150.157 48.3156 150.377 48.2876 150.603 48.2847C152.069 48.2655 153.302 49.3041 153.576 50.6925C155.369 49.5324 157.397 48.8063 159.418 48.5543ZM165.024 50.3683C161.713 48.8778 157.221 49.4438 153.741 51.9027L153.639 51.7588L153.794 64.0038C154.83 57.649 159.211 52.4516 165.024 50.3683ZM143.095 66.9567C143.095 72.9567 144.931 78.5174 148.063 83.0946C148.056 83.0138 148.051 82.932 148.05 82.8495L147.652 51.4374C144.771 55.8931 143.095 61.2244 143.095 66.9567ZM152.938 82.7857L152.538 51.251C152.524 50.2038 151.665 49.3659 150.617 49.3795C149.57 49.3932 148.732 50.2533 148.745 51.3005L149.145 82.8352C149.158 83.8824 150.018 84.7203 151.065 84.7067C152.113 84.693 152.951 83.8329 152.938 82.7857ZM192.207 51.251L192.607 82.7857C192.62 83.8329 191.782 84.693 190.734 84.7067C189.687 84.7203 188.827 83.8824 188.814 82.8352L188.414 51.3005C188.401 50.2533 189.239 49.3932 190.286 49.3795C191.334 49.3659 192.193 50.2038 192.207 51.251Z" fill="white"/>
<path fill-rule="evenodd" clip-rule="evenodd" d="M77.0273 86.4948H76.8097L76.7606 86.7067L75.1707 93.5616L71.9863 94.0586L68.0051 88.4042L67.8842 88.2325L67.6871 88.3048L62.7922 90.098L62.59 90.172L62.6143 90.386L63.4095 97.377L60.726 98.862L55.0186 94.957L54.8365 94.8324L54.6761 94.9839L50.733 98.7084L50.5914 98.8421L50.6713 99.0197L53.457 105.21L51.6337 107.43L45.4094 105.952L45.2132 105.905L45.1105 106.079L42.2552 110.907L42.1508 111.083L42.2907 111.233L47.0735 116.355L46.0985 119.198L39.3471 119.601L39.1196 119.615L39.0918 119.841L38.4119 125.359L38.3891 125.544L38.5533 125.633L44.5285 128.866V131.978L38.5665 134.801L38.3738 134.892L38.415 135.101L39.5028 140.618L39.5437 140.826L39.7551 140.839L46.4952 141.241L47.487 144.763L42.9757 149.34L42.8327 149.485L42.9305 149.663L45.6499 154.629L45.7588 154.828L45.9743 154.758L52.1951 152.744L54.537 155.37L51.4912 161.55L51.3857 161.764L51.5834 161.897L56.4783 165.208L56.6404 165.317L56.7965 165.2L61.9655 161.3L65.0365 162.796L64.1106 169.773L64.082 169.989L64.2862 170.065L69.453 171.997L69.6501 172.07L69.772 171.899L73.8798 166.118L76.3882 166.724L77.8475 173.454L77.8954 173.675L78.1216 173.669L83.8324 173.531L84.0425 173.526L84.0919 173.322L85.683 166.731L88.6016 166.114L92.7127 171.899L92.8368 172.074L93.0363 171.995L97.9312 170.064L98.1189 169.99L98.1037 169.788L97.5728 162.787L100.128 161.305L105.696 165.205L105.876 165.331L106.038 165.183L110.117 161.459L110.267 161.321L110.179 161.138L107.13 154.818L109.212 152.458L115.713 154.074L115.922 154.125L116.022 153.935L118.469 149.245L118.557 149.075L118.429 148.934L113.779 143.812L114.755 140.966L121.37 140.563L121.598 140.549L121.625 140.322L122.305 134.667L122.329 134.471L122.151 134.387L116.189 131.564V128.324L122.151 125.502L122.347 125.409L122.301 125.196L121.077 119.541L121.033 119.338L120.827 119.325L114.341 118.922L113.103 115.658L117.749 110.54L117.887 110.388L117.78 110.213L115.06 105.799L114.952 105.624L114.755 105.678L108.402 107.424L106.308 104.8L109.093 98.7459L109.183 98.5505L109.014 98.417L104.663 94.9684L104.499 94.8386L104.331 94.9624L99.0423 98.8524L96.4817 97.2443L96.8803 90.3709L96.892 90.1693L96.7028 90.0986L91.536 88.1674L91.3291 88.0901L91.2098 88.276L87.5003 94.0552L84.5881 93.5629L82.7303 86.6971L82.6756 86.4948H82.4661H77.0273ZM77.2448 87.0423L75.666 93.8493C75.3866 96.4975 75.0293 98.7102 74.5315 100.752C76.4362 100.357 78.4079 100.149 80.4272 100.149C82.0397 100.149 83.6218 100.281 85.1636 100.536C84.6917 98.5496 84.3491 96.3949 84.0793 93.8324L84.0935 93.8309L82.2566 87.0423H77.2448ZM84.662 94.1306L87.5873 94.6252L87.7656 94.6554L87.8633 94.5032L91.5512 88.7576L96.322 90.5407L95.9258 97.3742L95.9164 97.5357L96.0535 97.6218L98.9089 99.4151L99.0666 99.5141L99.2167 99.4038L104.487 95.5273L108.506 98.7124L105.74 104.724L105.67 104.878L105.775 105.01L108.086 107.906L108.199 108.047L108.373 108L114.702 106.261L117.205 110.325L112.585 115.414L112.472 115.538L112.532 115.695L113.891 119.282L113.954 119.447L114.13 119.458L120.586 119.859L121.72 125.1L115.798 127.903L115.641 127.978V128.151V131.737V131.911L115.798 131.985L121.738 134.797L121.109 140.03L114.538 140.43L114.356 140.441L114.296 140.615L113.208 143.787L113.156 143.94L113.265 144.06L117.895 149.161L115.636 153.49L109.182 151.887L109.021 151.847L108.911 151.972L106.599 154.592L106.479 154.729L106.558 154.892L109.597 161.192L105.83 164.631L100.299 160.757L100.156 160.656L100.005 160.744L97.1496 162.399L97.0009 162.485L97.0139 162.657L97.5425 169.628L93.0347 171.407L88.9438 165.65L88.8398 165.504L88.6641 165.541L85.4008 166.231L85.2319 166.266L85.1913 166.434L83.609 172.989L78.3346 173.116L76.8869 166.44L76.8505 166.273L76.6836 166.232L73.8282 165.543L73.6481 165.499L73.5408 165.65L69.4476 171.41L64.682 169.629L65.6052 162.672L65.6311 162.476L65.4536 162.39L62.0544 160.735L61.9036 160.661L61.7697 160.762L56.623 164.645L52.0878 161.577L55.1096 155.446L55.1912 155.281L55.0684 155.143L52.4849 152.246L52.3661 152.113L52.1963 152.168L46.0213 154.167L43.5085 149.579L47.9886 145.034L48.1002 144.921L48.0571 144.768L46.9693 140.905L46.9165 140.718L46.7222 140.706L39.999 140.305L38.9934 135.204L44.9194 132.399L45.076 132.324V132.151V128.703V128.539L44.9325 128.462L38.9781 125.24L39.6073 120.134L46.3142 119.734L46.4974 119.723L46.5569 119.549L47.6446 116.377L47.6979 116.221L47.5858 116.101L42.8307 111.009L45.4791 106.531L51.6735 108.002L51.8398 108.041L51.9483 107.909L53.9878 105.426L54.0956 105.295L54.0259 105.14L51.2505 98.9726L54.8916 95.5335L60.5562 99.4092L60.6956 99.5045L60.8433 99.4228L63.8347 97.7675L63.9948 97.6789L63.9741 97.497L63.1826 90.538L67.6783 88.891L71.6366 94.5129L71.7345 94.652L71.9026 94.6258L75.0853 94.129C74.8011 96.7223 74.4379 98.8844 73.9352 100.883C60.8386 103.894 51.0576 115.824 51.0576 130.082C51.0576 146.614 64.2068 160.015 80.4272 160.015C96.6476 160.015 109.797 146.614 109.797 130.082C109.797 115.403 99.4302 103.193 85.7517 100.64C85.2801 98.7093 84.9347 96.6184 84.662 94.1306ZM85.3062 101.116C83.7201 100.84 82.09 100.696 80.4272 100.696C78.354 100.696 76.3316 100.92 74.3821 101.344C74.2237 101.95 74.0521 102.542 73.8655 103.129C72.9706 105.942 71.7337 108.609 69.9759 111.929C72.058 111.801 74.0931 112.195 75.8013 113.153L75.7631 113.221C77.246 112.793 78.8104 112.564 80.4272 112.564C81.81 112.564 83.1545 112.731 84.4425 113.048L84.3749 112.924C85.9502 112.063 87.8566 111.683 89.8265 111.744C88.1106 108.518 86.7611 105.893 85.8816 103.129C85.6716 102.469 85.4806 101.801 85.3062 101.116ZM90.4654 111.78C88.6723 108.413 87.292 105.756 86.4033 102.963C86.2218 102.392 86.0545 101.815 85.9 101.226C99.1946 103.832 109.249 115.753 109.249 130.082C109.249 146.321 96.3355 159.468 80.4272 159.468C64.519 159.468 51.6051 146.321 51.6051 130.082C51.6051 116.178 61.0716 104.542 73.7789 101.482C73.6436 101.983 73.4989 102.475 73.3438 102.963C72.4356 105.818 71.1665 108.531 69.3258 111.986C67.2623 112.22 65.1814 112.961 63.3528 114.168C63.2085 112.633 61.9061 111.441 60.3368 111.462C58.6849 111.483 57.3627 112.84 57.3836 114.492L57.7837 146.026C57.8047 147.678 59.1608 149 60.8128 148.979C62.4333 148.957 63.7365 147.651 63.7657 146.042C67.6232 148.583 72.9035 149.104 76.4786 147.151L76.4673 147.13C77.7384 147.438 79.0642 147.601 80.4272 147.601C81.9027 147.601 83.3346 147.41 84.7006 147.051L84.6461 147.151C86.4756 148.15 88.7791 148.463 91.0969 148.2C93.3133 147.948 95.5619 147.168 97.4524 145.932L97.4536 146.026C97.4746 147.678 98.8307 149 100.483 148.979C102.135 148.957 103.457 147.6 103.436 145.948L103.036 114.414C103.015 112.762 101.659 111.44 100.007 111.462C98.5118 111.481 97.287 112.594 97.0831 114.03C95.1096 112.731 92.7642 111.961 90.4654 111.78ZM97.012 130.082C97.012 139.467 89.5753 147.053 80.4272 147.053C71.2791 147.053 63.8424 139.467 63.8424 130.082C63.8424 120.698 71.2791 113.111 80.4272 113.111C89.5753 113.111 97.012 120.698 97.012 130.082ZM63.371 114.818C66.9983 112.283 71.7075 111.738 75.1288 113.418C69.1306 115.41 64.5839 120.695 63.5279 127.186L63.371 114.818ZM85.0309 113.203C91.1624 114.948 95.909 120.093 97.2062 126.526L97.0543 114.547L96.9961 114.631C93.3969 112.153 88.4526 111.574 85.0309 113.203ZM91.0351 147.656C88.9722 147.89 86.955 147.647 85.3159 146.877C91.4501 145.013 96.1457 139.731 97.2908 133.19L97.4453 145.367L97.4034 145.306C95.5389 146.59 93.2706 147.402 91.0351 147.656ZM75.7044 146.927C69.5642 145.13 64.8345 139.918 63.6071 133.428L63.7613 145.584L63.8574 145.444C67.4154 147.893 72.2878 148.487 75.7044 146.927ZM80.4268 142.087C86.8699 142.087 92.1167 136.726 92.1167 130.082C92.1167 123.439 86.8699 118.077 80.4268 118.077C73.9837 118.077 68.7369 123.439 68.7369 130.082C68.7369 136.726 73.9837 142.087 80.4268 142.087ZM80.4268 142.635C87.1853 142.635 92.6641 137.015 92.6641 130.082C92.6641 123.15 87.1853 117.53 80.4268 117.53C73.6683 117.53 68.1895 123.15 68.1895 130.082C68.1895 137.015 73.6683 142.635 80.4268 142.635ZM80.4271 139.328C85.3667 139.328 89.3976 135.204 89.3976 130.082C89.3976 124.961 85.3667 120.836 80.4271 120.836C75.4875 120.836 71.4567 124.961 71.4567 130.082C71.4567 135.204 75.4875 139.328 80.4271 139.328ZM80.4271 139.876C85.6837 139.876 89.945 135.491 89.945 130.082C89.945 124.673 85.6837 120.288 80.4271 120.288C75.1705 120.288 70.9092 124.673 70.9092 130.082C70.9092 135.491 75.1705 139.876 80.4271 139.876ZM62.8184 114.421L63.2185 145.956C63.2356 147.305 62.1554 148.413 60.8058 148.431C59.4562 148.449 58.3483 147.369 58.3311 146.019L57.9311 114.485C57.914 113.135 58.9941 112.027 60.3438 112.009C61.6934 111.991 62.8013 113.071 62.8184 114.421ZM102.888 145.956L102.488 114.421C102.471 113.071 101.363 111.991 100.014 112.009C98.6641 112.027 97.5839 113.135 97.601 114.485L98.0011 146.019C98.0182 147.369 99.1261 148.449 100.476 148.431C101.825 148.413 102.906 147.305 102.888 145.956Z" fill="white"/>
<path d="M76.8097 86.4948V85.9473H76.3747L76.2764 86.3711L76.8097 86.4948ZM76.7606 86.7067L77.2939 86.8304L77.2939 86.8304L76.7606 86.7067ZM75.1707 93.5616L75.2551 94.1025L75.6205 94.0455L75.704 93.6853L75.1707 93.5616ZM71.9863 94.0586L71.5386 94.3738L71.7345 94.652L72.0707 94.5995L71.9863 94.0586ZM68.0051 88.4042L67.5574 88.7194L67.5574 88.7194L68.0051 88.4042ZM67.8842 88.2325L68.3319 87.9174L68.0902 87.574L67.6959 87.7185L67.8842 88.2325ZM67.6871 88.3048L67.4988 87.7907V87.7907L67.6871 88.3048ZM62.7922 90.098L62.9805 90.612L62.7922 90.098ZM62.59 90.172L62.4017 89.658L61.9974 89.8061L62.046 90.2339L62.59 90.172ZM62.6143 90.386L62.0704 90.4478L62.0704 90.4478L62.6143 90.386ZM63.4095 97.377L63.6746 97.8561L63.9948 97.6789L63.9535 97.3152L63.4095 97.377ZM60.726 98.862L60.4169 99.3138L60.6956 99.5045L60.9911 99.341L60.726 98.862ZM55.0186 94.957L54.7095 95.4089L54.7095 95.4089L55.0186 94.957ZM54.8365 94.8324L55.1457 94.3806L54.7814 94.1314L54.4606 94.4344L54.8365 94.8324ZM54.6761 94.9839L54.3002 94.5859L54.3002 94.5859L54.6761 94.9839ZM50.733 98.7084L51.1089 99.1064L50.733 98.7084ZM50.5914 98.8421L50.2155 98.4441L49.9323 98.7115L50.0921 99.0668L50.5914 98.8421ZM50.6713 99.0197L51.1706 98.795V98.795L50.6713 99.0197ZM53.457 105.21L53.88 105.558L54.0956 105.295L53.9563 104.985L53.457 105.21ZM51.6337 107.43L51.5072 107.962L51.8398 108.041L52.0568 107.777L51.6337 107.43ZM45.4094 105.952L45.2829 106.485H45.2829L45.4094 105.952ZM45.2132 105.905L45.3397 105.373L44.9473 105.279L44.742 105.627L45.2132 105.905ZM45.1105 106.079L45.5818 106.358L45.5818 106.358L45.1105 106.079ZM42.2552 110.907L42.7264 111.186L42.2552 110.907ZM42.1508 111.083L41.6796 110.805L41.4709 111.157L41.7507 111.457L42.1508 111.083ZM42.2907 111.233L42.6908 110.859H42.6908L42.2907 111.233ZM47.0735 116.355L47.5913 116.532L47.6979 116.221L47.4736 115.981L47.0735 116.355ZM46.0985 119.198L46.1311 119.745L46.4974 119.723L46.6164 119.376L46.0985 119.198ZM39.3471 119.601L39.3798 120.148H39.3798L39.3471 119.601ZM39.1196 119.615L39.087 119.068L38.632 119.095L38.5763 119.548L39.1196 119.615ZM39.0918 119.841L39.6351 119.908L39.0918 119.841ZM38.4119 125.359L38.9553 125.426H38.9553L38.4119 125.359ZM38.3891 125.544L37.8457 125.477L37.8 125.848L38.1285 126.025L38.3891 125.544ZM38.5533 125.633L38.2928 126.114H38.2928L38.5533 125.633ZM44.5285 128.866H45.076V128.539L44.7891 128.384L44.5285 128.866ZM44.5285 131.978L44.7628 132.473L45.076 132.324V131.978H44.5285ZM38.5665 134.801L38.8007 135.295H38.8007L38.5665 134.801ZM38.3738 134.892L38.1395 134.397L37.7542 134.579L37.8367 134.998L38.3738 134.892ZM38.415 135.101L38.9522 134.995H38.9522L38.415 135.101ZM39.5028 140.618L40.0399 140.513H40.0399L39.5028 140.618ZM39.5437 140.826L39.0066 140.932L39.0885 141.347L39.5111 141.373L39.5437 140.826ZM39.7551 140.839L39.7224 141.385H39.7224L39.7551 140.839ZM46.4952 141.241L47.0221 141.093L46.9165 140.718L46.5278 140.695L46.4952 141.241ZM47.487 144.763L47.8769 145.147L48.1002 144.921L48.014 144.614L47.487 144.763ZM42.9757 149.34L43.3656 149.724L43.3656 149.724L42.9757 149.34ZM42.8327 149.485L42.4428 149.1L42.1569 149.39L42.3525 149.748L42.8327 149.485ZM42.9305 149.663L42.4503 149.926H42.4503L42.9305 149.663ZM45.6499 154.629L46.1301 154.366H46.1301L45.6499 154.629ZM45.7588 154.828L45.2786 155.091L45.4963 155.488L45.9274 155.349L45.7588 154.828ZM45.9743 154.758L45.8057 154.237H45.8057L45.9743 154.758ZM52.1951 152.744L52.6037 152.379L52.3661 152.113L52.0265 152.223L52.1951 152.744ZM54.537 155.37L55.028 155.612L55.1912 155.281L54.9456 155.005L54.537 155.37ZM51.4912 161.55L51.9823 161.792L51.9823 161.792L51.4912 161.55ZM51.3857 161.764L50.8946 161.522L50.6836 161.95L51.079 162.217L51.3857 161.764ZM51.5834 161.897L51.2767 162.351L51.2767 162.351L51.5834 161.897ZM56.4783 165.208L56.1716 165.661L56.1716 165.661L56.4783 165.208ZM56.6404 165.317L56.3337 165.771L56.6577 165.99L56.9701 165.755L56.6404 165.317ZM56.7965 165.2L57.1262 165.637H57.1262L56.7965 165.2ZM61.9655 161.3L62.2052 160.808L61.9036 160.661L61.6358 160.863L61.9655 161.3ZM65.0365 162.796L65.5792 162.868L65.6311 162.476L65.2762 162.304L65.0365 162.796ZM64.1106 169.773L63.5679 169.701V169.701L64.1106 169.773ZM64.082 169.989L63.5393 169.917L63.4819 170.349L63.8903 170.502L64.082 169.989ZM64.2862 170.065L64.4778 169.553H64.4778L64.2862 170.065ZM69.453 171.997L69.2614 172.509H69.2614L69.453 171.997ZM69.6501 172.07L69.4585 172.583L69.8526 172.73L70.0964 172.387L69.6501 172.07ZM69.772 171.899L69.3257 171.582L69.772 171.899ZM73.8798 166.118L74.0083 165.586L73.6481 165.499L73.4335 165.801L73.8798 166.118ZM76.3882 166.724L76.9232 166.608L76.8505 166.273L76.5168 166.192L76.3882 166.724ZM77.8475 173.454L78.3825 173.338V173.338L77.8475 173.454ZM77.8954 173.675L77.3604 173.791L77.4563 174.233L77.9087 174.222L77.8954 173.675ZM78.1216 173.669L78.1348 174.216H78.1348L78.1216 173.669ZM83.8324 173.531L83.8456 174.079H83.8456L83.8324 173.531ZM84.0425 173.526L84.0558 174.073L84.4761 174.063L84.5747 173.655L84.0425 173.526ZM84.0919 173.322L83.5597 173.193V173.193L84.0919 173.322ZM85.683 166.731L85.5698 166.195L85.2319 166.266L85.1508 166.602L85.683 166.731ZM88.6016 166.114L89.0479 165.797L88.8398 165.504L88.4884 165.578L88.6016 166.114ZM92.7127 171.899L92.2664 172.216H92.2664L92.7127 171.899ZM92.8368 172.074L92.3906 172.391L92.6389 172.74L93.0378 172.583L92.8368 172.074ZM93.0363 171.995L92.8353 171.486H92.8353L93.0363 171.995ZM97.9312 170.064L98.1321 170.573H98.1321L97.9312 170.064ZM98.1189 169.99L98.3199 170.499L98.6954 170.351L98.6648 169.948L98.1189 169.99ZM98.1037 169.788L98.6496 169.747L98.1037 169.788ZM97.5728 162.787L97.2982 162.313L97.0009 162.485L97.0269 162.828L97.5728 162.787ZM100.128 161.305L100.442 160.857L100.156 160.656L99.8537 160.832L100.128 161.305ZM105.696 165.205L106.01 164.757L106.01 164.757L105.696 165.205ZM105.876 165.331L105.561 165.78L105.921 166.031L106.245 165.735L105.876 165.331ZM106.038 165.183L106.407 165.588L106.407 165.588L106.038 165.183ZM110.117 161.459L109.748 161.055H109.748L110.117 161.459ZM110.267 161.321L110.636 161.726L110.937 161.451L110.76 161.084L110.267 161.321ZM110.179 161.138L110.672 160.9L110.672 160.9L110.179 161.138ZM107.13 154.818L106.72 154.456L106.479 154.729L106.637 155.056L107.13 154.818ZM109.212 152.458L109.344 151.927L109.021 151.847L108.801 152.096L109.212 152.458ZM115.713 154.074L115.581 154.605V154.605L115.713 154.074ZM115.922 154.125L115.79 154.657L116.208 154.761L116.407 154.379L115.922 154.125ZM116.022 153.935L116.507 154.188L116.022 153.935ZM118.469 149.245L117.984 148.991V148.991L118.469 149.245ZM118.557 149.075L119.043 149.329L119.219 148.99L118.963 148.707L118.557 149.075ZM118.429 148.934L118.024 149.302L118.024 149.302L118.429 148.934ZM113.779 143.812L113.261 143.634L113.156 143.94L113.373 144.18L113.779 143.812ZM114.755 140.966L114.721 140.419L114.356 140.441L114.237 140.788L114.755 140.966ZM121.37 140.563L121.404 141.109L121.37 140.563ZM121.598 140.549L121.631 141.095L122.087 141.068L122.142 140.614L121.598 140.549ZM121.625 140.322L122.169 140.388V140.388L121.625 140.322ZM122.305 134.667L121.762 134.601L122.305 134.667ZM122.329 134.471L122.872 134.536L122.919 134.145L122.563 133.976L122.329 134.471ZM122.151 134.387L122.385 133.892L122.151 134.387ZM116.189 131.564H115.641V131.911L115.954 132.059L116.189 131.564ZM116.189 128.324L115.954 127.829L115.641 127.978V128.324H116.189ZM122.151 125.502L122.385 125.996L122.385 125.996L122.151 125.502ZM122.347 125.409L122.581 125.903L122.974 125.717L122.882 125.293L122.347 125.409ZM122.301 125.196L122.836 125.08H122.836L122.301 125.196ZM121.077 119.541L120.542 119.656L120.542 119.656L121.077 119.541ZM121.033 119.338L121.569 119.222L121.481 118.817L121.067 118.792L121.033 119.338ZM120.827 119.325L120.861 118.779H120.861L120.827 119.325ZM114.341 118.922L113.829 119.117L113.954 119.447L114.307 119.469L114.341 118.922ZM113.103 115.658L112.698 115.29L112.472 115.538L112.591 115.852L113.103 115.658ZM117.749 110.54L118.154 110.908L118.154 110.908L117.749 110.54ZM117.887 110.388L118.293 110.756L118.569 110.451L118.354 110.101L117.887 110.388ZM117.78 110.213L118.246 109.926L118.246 109.926L117.78 110.213ZM115.06 105.799L114.594 106.086V106.086L115.06 105.799ZM114.952 105.624L115.419 105.337L115.203 104.987L114.807 105.096L114.952 105.624ZM114.755 105.678L114.609 105.15L114.755 105.678ZM108.402 107.424L107.974 107.765L108.199 108.047L108.547 107.952L108.402 107.424ZM106.308 104.8L105.811 104.571L105.67 104.878L105.88 105.141L106.308 104.8ZM109.093 98.7459L109.59 98.9747L109.59 98.9747L109.093 98.7459ZM109.183 98.5505L109.68 98.7793L109.86 98.3886L109.523 98.1215L109.183 98.5505ZM109.014 98.417L109.354 97.9879L109.354 97.9879L109.014 98.417ZM104.663 94.9684L104.323 95.3975L104.323 95.3975L104.663 94.9684ZM104.499 94.8386L104.84 94.4095L104.512 94.1498L104.175 94.3976L104.499 94.8386ZM104.331 94.9624L104.007 94.5214V94.5214L104.331 94.9624ZM99.0423 98.8524L98.7511 99.316L99.0666 99.5141L99.3667 99.2934L99.0423 98.8524ZM96.4817 97.2443L95.9352 97.2126L95.9164 97.5357L96.1906 97.7079L96.4817 97.2443ZM96.8803 90.3709L97.4268 90.4026L97.4268 90.4025L96.8803 90.3709ZM96.892 90.1693L97.4385 90.201L97.4619 89.7978L97.0836 89.6565L96.892 90.1693ZM96.7028 90.0986L96.8945 89.5858L96.7028 90.0986ZM91.536 88.1674L91.3443 88.6803V88.6803L91.536 88.1674ZM91.3291 88.0901L91.5207 87.5773L91.1069 87.4226L90.8683 87.7944L91.3291 88.0901ZM91.2098 88.276L90.749 87.9803V87.9803L91.2098 88.276ZM87.5003 94.0552L87.409 94.5951L87.7656 94.6554L87.961 94.351L87.5003 94.0552ZM84.5881 93.5629L84.0596 93.7059L84.1512 94.0442L84.4968 94.1027L84.5881 93.5629ZM82.7303 86.6971L82.2018 86.84V86.84L82.7303 86.6971ZM82.6756 86.4948L83.2041 86.3518L83.0946 85.9473H82.6756V86.4948ZM75.666 93.8493L75.1327 93.7256L75.1251 93.7584L75.1216 93.7918L75.666 93.8493ZM77.2448 87.0423V86.4948H76.8097L76.7115 86.9186L77.2448 87.0423ZM74.5315 100.752L73.9996 100.623L73.7944 101.464L74.6428 101.288L74.5315 100.752ZM85.1636 100.536L85.0743 101.076L85.8865 101.21L85.6962 100.41L85.1636 100.536ZM84.0793 93.8324L84.022 93.2879L83.4775 93.3452L83.5349 93.8897L84.0793 93.8324ZM84.0935 93.8309L84.1508 94.3753L84.7898 94.3081L84.6219 93.6879L84.0935 93.8309ZM82.2566 87.0423L82.785 86.8993L82.6756 86.4948H82.2566V87.0423ZM84.662 94.1306L84.7533 93.5908L84.0388 93.47L84.1178 94.1902L84.662 94.1306ZM87.5873 94.6252L87.6786 94.0854L87.5873 94.6252ZM87.7656 94.6554L87.6744 95.1952L88.031 95.2555L88.2264 94.9511L87.7656 94.6554ZM87.8633 94.5032L88.324 94.7989L87.8633 94.5032ZM91.5512 88.7576L91.7429 88.2448L91.3291 88.0901L91.0904 88.4619L91.5512 88.7576ZM96.322 90.5407L96.8686 90.5724L96.892 90.1693L96.5137 90.0279L96.322 90.5407ZM95.9258 97.3742L95.3793 97.3425L95.9258 97.3742ZM95.9164 97.5357L95.3699 97.5041L95.3511 97.8272L95.6253 97.9994L95.9164 97.5357ZM96.0535 97.6218L95.7623 98.0854V98.0854L96.0535 97.6218ZM98.9089 99.4151L99.2001 98.9514V98.9514L98.9089 99.4151ZM99.0666 99.5141L98.7754 99.9777L99.0909 100.176L99.391 99.9551L99.0666 99.5141ZM99.2167 99.4038L98.8923 98.9627L98.8923 98.9627L99.2167 99.4038ZM104.487 95.5273L104.827 95.0983L104.499 94.8386L104.163 95.0863L104.487 95.5273ZM108.506 98.7124L109.003 98.9412L109.183 98.5505L108.846 98.2834L108.506 98.7124ZM105.74 104.724L105.243 104.496L105.243 104.496L105.74 104.724ZM105.67 104.878L105.172 104.649L105.031 104.955L105.242 105.219L105.67 104.878ZM105.775 105.01L106.203 104.668V104.668L105.775 105.01ZM108.086 107.906L107.659 108.248V108.248L108.086 107.906ZM108.199 108.047L107.771 108.389L107.996 108.671L108.344 108.575L108.199 108.047ZM108.373 108L108.518 108.527L108.373 108ZM114.702 106.261L115.168 105.974L114.952 105.624L114.557 105.733L114.702 106.261ZM117.205 110.325L117.611 110.693L117.887 110.388L117.672 110.038L117.205 110.325ZM112.585 115.414L112.99 115.782L112.585 115.414ZM112.472 115.538L112.067 115.17L111.841 115.419L111.96 115.732L112.472 115.538ZM112.532 115.695L112.02 115.889V115.889L112.532 115.695ZM113.891 119.282L113.379 119.476L113.891 119.282ZM113.954 119.447L113.442 119.641L113.567 119.971L113.92 119.993L113.954 119.447ZM114.13 119.458L114.096 120.004H114.096L114.13 119.458ZM120.586 119.859L121.121 119.743L121.033 119.338L120.62 119.312L120.586 119.859ZM121.72 125.1L121.954 125.594L122.347 125.409L122.255 124.984L121.72 125.1ZM115.798 127.903L116.032 128.398L115.798 127.903ZM115.641 127.978L115.407 127.483L115.094 127.631V127.978H115.641ZM115.641 131.911H115.094V132.257L115.407 132.405L115.641 131.911ZM115.798 131.985L116.032 131.49L115.798 131.985ZM121.738 134.797L122.282 134.862L122.329 134.471L121.972 134.302L121.738 134.797ZM121.109 140.03L121.142 140.577L121.598 140.549L121.653 140.096L121.109 140.03ZM114.538 140.43L114.572 140.977L114.538 140.43ZM114.356 140.441L114.322 139.895L113.957 139.917L113.838 140.264L114.356 140.441ZM114.296 140.615L113.778 140.437V140.437L114.296 140.615ZM113.208 143.787L112.691 143.61V143.61L113.208 143.787ZM113.156 143.94L112.638 143.763L112.533 144.069L112.751 144.308L113.156 143.94ZM113.265 144.06L112.859 144.428L112.859 144.428L113.265 144.06ZM117.895 149.161L118.381 149.414L118.557 149.075L118.301 148.793L117.895 149.161ZM115.636 153.49L115.504 154.022L115.922 154.125L116.121 153.744L115.636 153.49ZM109.182 151.887L109.314 151.356L109.314 151.356L109.182 151.887ZM109.021 151.847L109.153 151.316L108.83 151.235L108.61 151.485L109.021 151.847ZM108.911 151.972L108.5 151.609L108.911 151.972ZM106.599 154.592L107.01 154.955L107.01 154.955L106.599 154.592ZM106.479 154.729L106.069 154.367L105.828 154.639L105.986 154.967L106.479 154.729ZM106.558 154.892L107.051 154.655L107.051 154.655L106.558 154.892ZM109.597 161.192L109.966 161.596L110.267 161.321L110.09 160.954L109.597 161.192ZM105.83 164.631L105.516 165.079L105.876 165.331L106.2 165.035L105.83 164.631ZM100.299 160.757L99.9852 161.205L99.9852 161.205L100.299 160.757ZM100.156 160.656L100.47 160.208L100.184 160.007L99.8815 160.183L100.156 160.656ZM100.005 160.744L100.28 161.218L100.28 161.218L100.005 160.744ZM97.1496 162.399L96.875 161.926H96.875L97.1496 162.399ZM97.0009 162.485L96.7263 162.012L96.429 162.184L96.455 162.527L97.0009 162.485ZM97.0139 162.657L96.468 162.698V162.698L97.0139 162.657ZM97.5425 169.628L97.7434 170.138L98.1189 169.99L98.0884 169.587L97.5425 169.628ZM93.0347 171.407L92.5885 171.724L92.8368 172.074L93.2357 171.916L93.0347 171.407ZM88.9438 165.65L88.4976 165.967L88.4976 165.967L88.9438 165.65ZM88.8398 165.504L89.2861 165.187L89.078 164.894L88.7266 164.968L88.8398 165.504ZM88.6641 165.541L88.7773 166.077L88.7773 166.077L88.6641 165.541ZM85.4008 166.231L85.2876 165.695L85.2876 165.695L85.4008 166.231ZM85.2319 166.266L85.1186 165.731L84.7807 165.802L84.6997 166.138L85.2319 166.266ZM85.1913 166.434L84.6591 166.306L84.6591 166.306L85.1913 166.434ZM83.609 172.989L83.6222 173.536L84.0425 173.526L84.1412 173.117L83.609 172.989ZM78.3346 173.116L77.7995 173.232L77.8954 173.675L78.3478 173.664L78.3346 173.116ZM76.8869 166.44L76.3518 166.556V166.556L76.8869 166.44ZM76.8505 166.273L77.3855 166.157L77.3128 165.821L76.979 165.741L76.8505 166.273ZM76.6836 166.232L76.8122 165.7L76.6836 166.232ZM73.8282 165.543L73.9568 165.01H73.9568L73.8282 165.543ZM73.6481 165.499L73.7767 164.967L73.4165 164.88L73.2019 165.182L73.6481 165.499ZM73.5408 165.65L73.0946 165.333L73.0946 165.333L73.5408 165.65ZM69.4476 171.41L69.256 171.923L69.6501 172.07L69.8939 171.727L69.4476 171.41ZM64.682 169.629L64.1393 169.557L64.082 169.989L64.4904 170.142L64.682 169.629ZM65.6052 162.672L65.0624 162.6L65.6052 162.672ZM65.6311 162.476L66.1738 162.548L66.2258 162.157L65.8708 161.984L65.6311 162.476ZM65.4536 162.39L65.6933 161.898L65.4536 162.39ZM62.0544 160.735L62.2941 160.242L62.2941 160.242L62.0544 160.735ZM61.9036 160.661L62.1433 160.169L61.8417 160.022L61.5739 160.224L61.9036 160.661ZM61.7697 160.762L61.44 160.325H61.44L61.7697 160.762ZM56.623 164.645L56.3163 165.098L56.6404 165.317L56.9527 165.082L56.623 164.645ZM52.0878 161.577L51.5967 161.335L51.3857 161.764L51.7811 162.031L52.0878 161.577ZM55.1096 155.446L54.6185 155.204L54.6185 155.204L55.1096 155.446ZM55.1912 155.281L55.6823 155.523L55.8454 155.192L55.5998 154.916L55.1912 155.281ZM55.0684 155.143L54.6598 155.507L54.6598 155.507L55.0684 155.143ZM52.4849 152.246L52.0763 152.611L52.0763 152.611L52.4849 152.246ZM52.3661 152.113L52.7747 151.749L52.5371 151.482L52.1975 151.592L52.3661 152.113ZM52.1963 152.168L52.365 152.689H52.365L52.1963 152.168ZM46.0213 154.167L45.5411 154.43L45.7588 154.828L46.1899 154.688L46.0213 154.167ZM43.5085 149.579L43.1186 149.195L42.8327 149.485L43.0283 149.842L43.5085 149.579ZM47.9886 145.034L48.3785 145.418H48.3785L47.9886 145.034ZM48.1002 144.921L48.4901 145.305L48.7134 145.078L48.6272 144.772L48.1002 144.921ZM48.0571 144.768L47.5301 144.916H47.5301L48.0571 144.768ZM46.9693 140.905L46.4424 141.054L46.4424 141.054L46.9693 140.905ZM46.9165 140.718L47.4435 140.569L47.3379 140.194L46.9492 140.171L46.9165 140.718ZM46.7222 140.706L46.6895 141.253L46.7222 140.706ZM39.999 140.305L39.4618 140.411L39.5437 140.826L39.9664 140.851L39.999 140.305ZM38.9934 135.204L38.7591 134.709L38.3738 134.892L38.4563 135.31L38.9934 135.204ZM44.9194 132.399L45.1537 132.893L45.1537 132.893L44.9194 132.399ZM45.076 132.324L45.3103 132.819L45.6235 132.671V132.324H45.076ZM45.076 128.539H45.6235V128.213L45.3365 128.058L45.076 128.539ZM44.9325 128.462L45.1931 127.98H45.1931L44.9325 128.462ZM38.9781 125.24L38.4347 125.173L38.3891 125.544L38.7176 125.722L38.9781 125.24ZM39.6073 120.134L39.5746 119.588L39.1196 119.615L39.0639 120.067L39.6073 120.134ZM46.3142 119.734L46.3469 120.28H46.3469L46.3142 119.734ZM46.4974 119.723L46.53 120.269L46.8963 120.248L47.0153 119.9L46.4974 119.723ZM46.5569 119.549L47.0748 119.727H47.0748L46.5569 119.549ZM47.6446 116.377L47.1268 116.199L47.1268 116.199L47.6446 116.377ZM47.6979 116.221L48.2158 116.399L48.3224 116.088L48.0981 115.848L47.6979 116.221ZM47.5858 116.101L47.1856 116.475L47.1856 116.475L47.5858 116.101ZM42.8307 111.009L42.3595 110.73L42.1508 111.083L42.4306 111.383L42.8307 111.009ZM45.4791 106.531L45.6056 105.998L45.2132 105.905L45.0079 106.252L45.4791 106.531ZM51.6735 108.002L51.547 108.535H51.547L51.6735 108.002ZM51.8398 108.041L51.7133 108.574L52.0459 108.653L52.2628 108.389L51.8398 108.041ZM51.9483 107.909L52.3713 108.257L52.3713 108.257L51.9483 107.909ZM53.9878 105.426L53.5648 105.079L53.9878 105.426ZM54.0956 105.295L54.5187 105.643L54.7343 105.38L54.5949 105.071L54.0956 105.295ZM54.0259 105.14L53.5267 105.365L53.5267 105.365L54.0259 105.14ZM51.2505 98.9726L50.8746 98.5746L50.5914 98.8421L50.7512 99.1973L51.2505 98.9726ZM54.8916 95.5335L55.2008 95.0816L54.8365 94.8324L54.5157 95.1355L54.8916 95.5335ZM60.5562 99.4092L60.2471 99.861H60.2471L60.5562 99.4092ZM60.6956 99.5045L60.3864 99.9563L60.6652 100.147L60.9607 99.9835L60.6956 99.5045ZM60.8433 99.4228L61.1084 99.9018L61.1084 99.9018L60.8433 99.4228ZM63.8347 97.7675L63.5696 97.2884L63.5696 97.2884L63.8347 97.7675ZM63.9948 97.6789L64.2599 98.1579L64.5801 97.9807L64.5388 97.617L63.9948 97.6789ZM63.9741 97.497L64.5181 97.4351L63.9741 97.497ZM63.1826 90.538L62.9943 90.0239L62.59 90.172L62.6387 90.5999L63.1826 90.538ZM67.6783 88.891L68.126 88.5758L67.8842 88.2325L67.49 88.377L67.6783 88.891ZM71.6366 94.5129L72.0842 94.1977L72.0842 94.1977L71.6366 94.5129ZM71.7345 94.652L71.2868 94.9672L71.4827 95.2454L71.8189 95.1929L71.7345 94.652ZM71.9026 94.6258L71.8182 94.0848L71.9026 94.6258ZM75.0853 94.129L75.6295 94.1887L75.7074 93.4778L75.0009 93.5881L75.0853 94.129ZM73.9352 100.883L74.0579 101.416L74.3844 101.341L74.4661 101.016L73.9352 100.883ZM85.7517 100.64L85.2198 100.77L85.3037 101.113L85.6512 101.178L85.7517 100.64ZM85.3062 101.116L85.8367 100.981L85.7493 100.637L85.4 100.576L85.3062 101.116ZM74.3821 101.344L74.2656 100.809L73.9374 100.88L73.8524 101.206L74.3821 101.344ZM73.8655 103.129L73.3438 102.963V102.963L73.8655 103.129ZM69.9759 111.929L69.4921 111.673L69.0352 112.536L70.0097 112.476L69.9759 111.929ZM75.8013 113.153L76.2789 113.42L76.5466 112.943L76.0691 112.675L75.8013 113.153ZM75.7631 113.221L75.2856 112.953L74.6332 114.117L75.915 113.747L75.7631 113.221ZM84.4425 113.048L84.3119 113.579L85.5186 113.876L84.9229 112.785L84.4425 113.048ZM84.3749 112.924L84.1124 112.443L83.632 112.706L83.8944 113.186L84.3749 112.924ZM89.8265 111.744L89.8095 112.292L90.7533 112.321L90.3098 111.487L89.8265 111.744ZM85.8816 103.129L85.3599 103.295V103.295L85.8816 103.129ZM90.4654 111.78L89.9822 112.037L90.1233 112.302L90.4224 112.325L90.4654 111.78ZM86.4033 102.963L86.925 102.797L86.4033 102.963ZM85.9 101.226L86.0053 100.688L85.1493 100.521L85.3704 101.364L85.9 101.226ZM73.7789 101.482L74.3074 101.625L74.548 100.734L73.6507 100.95L73.7789 101.482ZM73.3438 102.963L72.8221 102.797V102.797L73.3438 102.963ZM69.3258 111.986L69.3875 112.53L69.6736 112.498L69.809 112.244L69.3258 111.986ZM63.3528 114.168L62.8077 114.22L62.8931 115.128L63.6545 114.625L63.3528 114.168ZM60.3368 111.462L60.3297 110.914H60.3297L60.3368 111.462ZM57.3836 114.492L57.9311 114.485L57.3836 114.492ZM57.7837 146.026L58.3311 146.02V146.02L57.7837 146.026ZM60.8128 148.979L60.8199 149.526H60.8199L60.8128 148.979ZM63.7657 146.042L64.0668 145.585L63.2363 145.038L63.2183 146.032L63.7657 146.042ZM76.4786 147.151L76.7411 147.632L77.2215 147.369L76.9591 146.889L76.4786 147.151ZM76.4673 147.13L76.5961 146.598L75.394 146.307L75.9869 147.393L76.4673 147.13ZM84.7006 147.051L85.1811 147.314L85.7899 146.199L84.5616 146.522L84.7006 147.051ZM84.6461 147.151L84.1657 146.889L83.9032 147.369L84.3837 147.632L84.6461 147.151ZM91.0969 148.2L91.0351 147.656V147.656L91.0969 148.2ZM97.4524 145.932L97.9999 145.925L97.9872 144.929L97.1529 145.474L97.4524 145.932ZM97.4536 146.026L96.9062 146.033V146.033L97.4536 146.026ZM103.436 145.948L102.888 145.955L103.436 145.948ZM103.036 114.414L103.583 114.407L103.036 114.414ZM100.007 111.462L99.9996 110.914L100.007 111.462ZM97.0831 114.03L96.7822 114.487L97.5037 114.962L97.6252 114.107L97.0831 114.03ZM75.1288 113.418L75.3014 113.937L76.5706 113.515L75.3701 112.926L75.1288 113.418ZM63.371 114.818L63.0574 114.369L62.8199 114.535L62.8236 114.825L63.371 114.818ZM63.5279 127.186L62.9805 127.193L64.0683 127.274L63.5279 127.186ZM97.2062 126.526L96.6696 126.634L97.7537 126.519L97.2062 126.526ZM85.0309 113.203L84.7955 112.709L83.4854 113.333L84.881 113.73L85.0309 113.203ZM97.0543 114.547L97.6017 114.54L97.5798 112.818L96.6033 114.236L97.0543 114.547ZM96.9961 114.631L96.6857 115.082L97.1367 115.392L97.4471 114.941L96.9961 114.631ZM85.3159 146.877L85.1567 146.353L83.7943 146.767L85.0831 147.373L85.3159 146.877ZM91.0351 147.656L90.9733 147.112V147.112L91.0351 147.656ZM97.2908 133.19L97.8382 133.183L96.7515 133.095L97.2908 133.19ZM97.4453 145.367L96.9943 145.677L98.0155 147.161L97.9927 145.36L97.4453 145.367ZM97.4034 145.306L97.8543 144.996L97.5439 144.545L97.0929 144.855L97.4034 145.306ZM63.6071 133.428L64.145 133.327L63.0597 133.435L63.6071 133.428ZM75.7044 146.927L75.9319 147.425L77.2689 146.814L75.8582 146.401L75.7044 146.927ZM63.7613 145.584L63.2139 145.59L63.2357 147.312L64.2122 145.894L63.7613 145.584ZM63.8574 145.444L64.1678 144.993L63.7169 144.683L63.4064 145.134L63.8574 145.444ZM63.2185 145.956L63.7659 145.949V145.949L63.2185 145.956ZM62.8184 114.421L63.3659 114.414L62.8184 114.421ZM60.8058 148.431L60.813 148.979H60.813L60.8058 148.431ZM58.3311 146.019L57.7837 146.026L58.3311 146.019ZM57.9311 114.485L58.4785 114.478L57.9311 114.485ZM60.3438 112.009L60.3366 111.462H60.3366L60.3438 112.009ZM102.488 114.421L101.941 114.428L102.488 114.421ZM102.888 145.956L103.436 145.949V145.949L102.888 145.956ZM100.014 112.009L100.007 111.462L100.014 112.009ZM97.601 114.485L97.0536 114.492L97.601 114.485ZM98.0011 146.019L98.5485 146.012V146.012L98.0011 146.019ZM100.476 148.431L100.483 148.979L100.476 148.431ZM76.8097 87.0423H77.0273V85.9473H76.8097V87.0423ZM77.2939 86.8304L77.3431 86.6185L76.2764 86.3711L76.2273 86.583L77.2939 86.8304ZM75.704 93.6853L77.2939 86.8304L76.2273 86.583L74.6374 93.4379L75.704 93.6853ZM72.0707 94.5995L75.2551 94.1025L75.0863 93.0207L71.9018 93.5177L72.0707 94.5995ZM67.5574 88.7194L71.5386 94.3738L72.4339 93.7434L68.4527 88.089L67.5574 88.7194ZM67.4366 88.5477L67.5574 88.7194L68.4527 88.089L68.3319 87.9174L67.4366 88.5477ZM67.8754 88.8188L68.0726 88.7466L67.6959 87.7185L67.4988 87.7907L67.8754 88.8188ZM62.9805 90.612L67.8754 88.8188L67.4988 87.7907L62.6038 89.5839L62.9805 90.612ZM62.7783 90.6861L62.9805 90.612L62.6038 89.5839L62.4017 89.658L62.7783 90.6861ZM63.1583 90.3241L63.134 90.1102L62.046 90.2339L62.0704 90.4478L63.1583 90.3241ZM63.9535 97.3152L63.1583 90.3241L62.0704 90.4478L62.8655 97.4389L63.9535 97.3152ZM60.9911 99.341L63.6746 97.8561L63.1444 96.898L60.4609 98.3829L60.9911 99.341ZM54.7095 95.4089L60.4169 99.3138L61.0352 98.4101L55.3278 94.5052L54.7095 95.4089ZM54.5274 95.2843L54.7095 95.4089L55.3278 94.5052L55.1457 94.3806L54.5274 95.2843ZM55.052 95.382L55.2125 95.2304L54.4606 94.4344L54.3002 94.5859L55.052 95.382ZM51.1089 99.1064L55.052 95.382L54.3002 94.5859L50.357 98.3104L51.1089 99.1064ZM50.9673 99.2401L51.1089 99.1064L50.357 98.3104L50.2155 98.4441L50.9673 99.2401ZM51.1706 98.795L51.0906 98.6174L50.0921 99.0668L50.1721 99.2444L51.1706 98.795ZM53.9563 104.985L51.1706 98.795L50.1721 99.2444L52.9577 105.435L53.9563 104.985ZM52.0568 107.777L53.88 105.558L53.0339 104.863L51.2107 107.082L52.0568 107.777ZM45.2829 106.485L51.5072 107.962L51.7602 106.897L45.5359 105.419L45.2829 106.485ZM45.0867 106.438L45.2829 106.485L45.5359 105.419L45.3397 105.373L45.0867 106.438ZM45.5818 106.358L45.6844 106.184L44.742 105.627L44.6393 105.8L45.5818 106.358ZM42.7264 111.186L45.5818 106.358L44.6393 105.8L41.7839 110.628L42.7264 111.186ZM42.6221 111.362L42.7264 111.186L41.7839 110.628L41.6796 110.805L42.6221 111.362ZM42.6908 110.859L42.551 110.71L41.7507 111.457L41.8906 111.607L42.6908 110.859ZM47.4736 115.981L42.6908 110.859L41.8906 111.607L46.6733 116.728L47.4736 115.981ZM46.6164 119.376L47.5913 116.532L46.5556 116.177L45.5806 119.021L46.6164 119.376ZM39.3798 120.148L46.1311 119.745L46.0659 118.652L39.3145 119.055L39.3798 120.148ZM39.1522 120.161L39.3798 120.148L39.3145 119.055L39.087 119.068L39.1522 120.161ZM39.6351 119.908L39.663 119.682L38.5763 119.548L38.5484 119.774L39.6351 119.908ZM38.9553 125.426L39.6351 119.908L38.5484 119.774L37.8685 125.292L38.9553 125.426ZM38.9324 125.611L38.9553 125.426L37.8685 125.292L37.8457 125.477L38.9324 125.611ZM38.8139 125.151L38.6496 125.062L38.1285 126.025L38.2928 126.114L38.8139 125.151ZM44.7891 128.384L38.8139 125.151L38.2928 126.114L44.268 129.347L44.7891 128.384ZM45.076 131.978V128.866H43.9811V131.978H45.076ZM38.8007 135.295L44.7628 132.473L44.2943 131.483L38.3322 134.306L38.8007 135.295ZM38.6081 135.387L38.8007 135.295L38.3322 134.306L38.1395 134.397L38.6081 135.387ZM38.9522 134.995L38.9109 134.786L37.8367 134.998L37.8779 135.207L38.9522 134.995ZM40.0399 140.513L38.9522 134.995L37.8779 135.207L38.9657 140.724L40.0399 140.513ZM40.0809 140.72L40.0399 140.513L38.9657 140.724L39.0066 140.932L40.0809 140.72ZM39.7877 140.292L39.5763 140.28L39.5111 141.373L39.7224 141.385L39.7877 140.292ZM46.5278 140.695L39.7877 140.292L39.7224 141.385L46.4625 141.788L46.5278 140.695ZM48.014 144.614L47.0221 141.093L45.9682 141.389L46.96 144.911L48.014 144.614ZM43.3656 149.724L47.8769 145.147L47.0971 144.379L42.5858 148.955L43.3656 149.724ZM43.2226 149.869L43.3656 149.724L42.5858 148.955L42.4428 149.1L43.2226 149.869ZM43.4107 149.4L43.3129 149.222L42.3525 149.748L42.4503 149.926L43.4107 149.4ZM46.1301 154.366L43.4107 149.4L42.4503 149.926L45.1697 154.892L46.1301 154.366ZM46.239 154.565L46.1301 154.366L45.1697 154.892L45.2786 155.091L46.239 154.565ZM45.8057 154.237L45.5901 154.307L45.9274 155.349L46.143 155.279L45.8057 154.237ZM52.0265 152.223L45.8057 154.237L46.143 155.279L52.3638 153.265L52.0265 152.223ZM54.9456 155.005L52.6037 152.379L51.7866 153.108L54.1284 155.734L54.9456 155.005ZM51.9823 161.792L55.028 155.612L54.0459 155.128L51.0001 161.307L51.9823 161.792ZM51.8768 162.006L51.9823 161.792L51.0002 161.307L50.8946 161.522L51.8768 162.006ZM51.8901 161.444L51.6924 161.31L51.079 162.217L51.2767 162.351L51.8901 161.444ZM56.785 164.754L51.8901 161.444L51.2767 162.351L56.1716 165.661L56.785 164.754ZM56.9471 164.864L56.785 164.754L56.1716 165.661L56.3337 165.771L56.9471 164.864ZM56.4668 164.763L56.3107 164.88L56.9701 165.755L57.1262 165.637L56.4668 164.763ZM61.6358 160.863L56.4668 164.763L57.1262 165.637L62.2952 161.737L61.6358 160.863ZM65.2762 162.304L62.2052 160.808L61.7258 161.793L64.7968 163.288L65.2762 162.304ZM64.6534 169.845L65.5792 162.868L64.4938 162.724L63.5679 169.701L64.6534 169.845ZM64.6247 170.061L64.6534 169.845L63.5679 169.701L63.5393 169.917L64.6247 170.061ZM64.4778 169.553L64.2736 169.476L63.8903 170.502L64.0945 170.578L64.4778 169.553ZM69.6447 171.484L64.4778 169.553L64.0945 170.578L69.2614 172.509L69.6447 171.484ZM69.8418 171.557L69.6447 171.484L69.2614 172.509L69.4585 172.583L69.8418 171.557ZM69.3257 171.582L69.2039 171.753L70.0964 172.387L70.2183 172.216L69.3257 171.582ZM73.4335 165.801L69.3257 171.582L70.2183 172.216L74.326 166.435L73.4335 165.801ZM76.5168 166.192L74.0083 165.586L73.7512 166.651L76.2597 167.256L76.5168 166.192ZM78.3825 173.338L76.9232 166.608L75.8532 166.84L77.3125 173.57L78.3825 173.338ZM78.4305 173.559L78.3825 173.338L77.3125 173.57L77.3604 173.791L78.4305 173.559ZM78.1084 173.122L77.8822 173.127L77.9087 174.222L78.1348 174.216L78.1084 173.122ZM83.8192 172.984L78.1084 173.122L78.1348 174.216L83.8456 174.079L83.8192 172.984ZM84.0293 172.979L83.8192 172.984L83.8456 174.079L84.0558 174.073L84.0293 172.979ZM83.5597 173.193L83.5104 173.398L84.5747 173.655L84.6241 173.45L83.5597 173.193ZM85.1508 166.602L83.5597 173.193L84.6241 173.45L86.2152 166.859L85.1508 166.602ZM88.4884 165.578L85.5698 166.195L85.7962 167.266L88.7148 166.649L88.4884 165.578ZM93.1589 171.582L89.0479 165.797L88.1553 166.431L92.2664 172.216L93.1589 171.582ZM93.2831 171.756L93.1589 171.582L92.2664 172.216L92.3906 172.391L93.2831 171.756ZM92.8353 171.486L92.6359 171.564L93.0378 172.583L93.2372 172.504L92.8353 171.486ZM97.7303 169.554L92.8353 171.486L93.2372 172.504L98.1321 170.573L97.7303 169.554ZM97.918 169.48L97.7303 169.554L98.1321 170.573L98.3199 170.499L97.918 169.48ZM97.5578 169.83L97.573 170.031L98.6648 169.948L98.6496 169.747L97.5578 169.83ZM97.0269 162.828L97.5578 169.83L98.6496 169.747L98.1187 162.745L97.0269 162.828ZM99.8537 160.832L97.2982 162.313L97.8474 163.26L100.403 161.779L99.8537 160.832ZM106.01 164.757L100.442 160.857L99.8142 161.754L105.382 165.654L106.01 164.757ZM106.19 164.883L106.01 164.757L105.382 165.654L105.561 165.78L106.19 164.883ZM105.668 164.779L105.506 164.927L106.245 165.735L106.407 165.588L105.668 164.779ZM109.748 161.055L105.668 164.779L106.407 165.588L110.486 161.863L109.748 161.055ZM109.898 160.917L109.748 161.055L110.486 161.863L110.636 161.726L109.898 160.917ZM109.686 161.376L109.774 161.559L110.76 161.084L110.672 160.9L109.686 161.376ZM106.637 155.056L109.686 161.376L110.672 160.9L107.623 154.58L106.637 155.056ZM108.801 152.096L106.72 154.456L107.541 155.18L109.622 152.82L108.801 152.096ZM115.845 153.542L109.344 151.927L109.08 152.99L115.581 154.605L115.845 153.542ZM116.054 153.594L115.845 153.542L115.581 154.605L115.79 154.657L116.054 153.594ZM115.536 153.681L115.437 153.872L116.407 154.379L116.507 154.188L115.536 153.681ZM117.984 148.991L115.536 153.681L116.507 154.188L118.954 149.498L117.984 148.991ZM118.072 148.822L117.984 148.991L118.954 149.498L119.043 149.329L118.072 148.822ZM118.024 149.302L118.152 149.443L118.963 148.707L118.834 148.566L118.024 149.302ZM113.373 144.18L118.024 149.302L118.834 148.566L114.184 143.444L113.373 144.18ZM114.237 140.788L113.261 143.634L114.297 143.989L115.272 141.143L114.237 140.788ZM121.337 140.016L114.721 140.419L114.788 141.512L121.404 141.109L121.337 140.016ZM121.565 140.003L121.337 140.016L121.404 141.109L121.631 141.095L121.565 140.003ZM121.082 140.257L121.055 140.484L122.142 140.614L122.169 140.388L121.082 140.257ZM121.762 134.601L121.082 140.257L122.169 140.388L122.849 134.732L121.762 134.601ZM121.785 134.406L121.762 134.601L122.849 134.732L122.872 134.536L121.785 134.406ZM121.916 134.882L122.095 134.966L122.563 133.976L122.385 133.892L121.916 134.882ZM115.954 132.059L121.916 134.882L122.385 133.892L116.423 131.069L115.954 132.059ZM115.641 128.324V131.564H116.736V128.324H115.641ZM121.916 125.007L115.954 127.829L116.423 128.819L122.385 125.996L121.916 125.007ZM122.113 124.914L121.916 125.007L122.385 125.996L122.581 125.903L122.113 124.914ZM121.766 125.312L121.812 125.524L122.882 125.293L122.836 125.08L121.766 125.312ZM120.542 119.656L121.766 125.312L122.836 125.08L121.612 119.425L120.542 119.656ZM120.498 119.454L120.542 119.656L121.612 119.425L121.569 119.222L120.498 119.454ZM120.793 119.872L121 119.885L121.067 118.792L120.861 118.779L120.793 119.872ZM114.307 119.469L120.793 119.872L120.861 118.779L114.374 118.376L114.307 119.469ZM112.591 115.852L113.829 119.117L114.852 118.728L113.615 115.464L112.591 115.852ZM117.344 110.172L112.698 115.29L113.508 116.026L118.154 110.908L117.344 110.172ZM117.482 110.02L117.344 110.172L118.154 110.908L118.293 110.756L117.482 110.02ZM117.313 110.5L117.421 110.675L118.354 110.101L118.246 109.926L117.313 110.5ZM114.594 106.086L117.313 110.5L118.246 109.926L115.526 105.512L114.594 106.086ZM114.486 105.911L114.594 106.086L115.526 105.512L115.419 105.337L114.486 105.911ZM114.9 106.206L115.097 106.152L114.807 105.096L114.609 105.15L114.9 106.206ZM108.547 107.952L114.9 106.206L114.609 105.15L108.257 106.896L108.547 107.952ZM105.88 105.141L107.974 107.765L108.83 107.082L106.736 104.458L105.88 105.141ZM108.596 98.5171L105.811 104.571L106.806 105.029L109.59 98.9747L108.596 98.5171ZM108.686 98.3217L108.596 98.5171L109.59 98.9747L109.68 98.7793L108.686 98.3217ZM108.674 98.846L108.843 98.9796L109.523 98.1215L109.354 97.9879L108.674 98.846ZM104.323 95.3975L108.674 98.846L109.354 97.9879L105.003 94.5394L104.323 95.3975ZM104.159 95.2676L104.323 95.3975L105.003 94.5394L104.84 94.4095L104.159 95.2676ZM104.655 95.4035L104.824 95.2796L104.175 94.3976L104.007 94.5214L104.655 95.4035ZM99.3667 99.2934L104.655 95.4035L104.007 94.5214L98.7179 98.4113L99.3667 99.2934ZM96.1906 97.7079L98.7511 99.316L99.3335 98.3887L96.7729 96.7806L96.1906 97.7079ZM96.3337 90.3392L95.9352 97.2126L97.0283 97.276L97.4268 90.4026L96.3337 90.3392ZM96.3454 90.1376L96.3337 90.3392L97.4268 90.4025L97.4385 90.201L96.3454 90.1376ZM96.5112 90.6114L96.7003 90.6821L97.0836 89.6565L96.8945 89.5858L96.5112 90.6114ZM91.3443 88.6803L96.5112 90.6114L96.8945 89.5858L91.7276 87.6546L91.3443 88.6803ZM91.1374 88.6029L91.3443 88.6803L91.7276 87.6546L91.5207 87.5773L91.1374 88.6029ZM91.6705 88.5717L91.7898 88.3858L90.8683 87.7944L90.749 87.9803L91.6705 88.5717ZM87.961 94.351L91.6705 88.5717L90.749 87.9803L87.0395 93.7595L87.961 94.351ZM84.4968 94.1027L87.409 94.5951L87.5915 93.5154L84.6794 93.023L84.4968 94.1027ZM82.2018 86.84L84.0596 93.7059L85.1166 93.4199L83.2588 86.5541L82.2018 86.84ZM82.1471 86.6378L82.2018 86.84L83.2588 86.5541L83.2041 86.3518L82.1471 86.6378ZM82.4661 87.0423H82.6756V85.9473H82.4661V87.0423ZM77.0273 87.0423H82.4661V85.9473H77.0273V87.0423ZM76.1993 93.973L77.7781 87.166L76.7115 86.9186L75.1327 93.7256L76.1993 93.973ZM75.0634 100.882C75.5686 98.8095 75.9293 96.5715 76.2105 93.9067L75.1216 93.7918C74.8439 96.4234 74.4901 98.6108 73.9996 100.623L75.0634 100.882ZM80.4272 99.6014C78.3703 99.6014 76.3612 99.813 74.4202 100.216L74.6428 101.288C76.5111 100.9 78.4456 100.696 80.4272 100.696V99.6014ZM85.2529 99.996C83.6816 99.7364 82.0697 99.6014 80.4272 99.6014V100.696C82.0096 100.696 83.5619 100.826 85.0743 101.076L85.2529 99.996ZM83.5349 93.8897C83.8064 96.4682 84.1522 98.6472 84.6309 100.663L85.6962 100.41C85.2312 98.4521 84.8919 96.3215 84.6238 93.775L83.5349 93.8897ZM84.0361 93.2864L84.022 93.2879L84.1367 94.3768L84.1508 94.3753L84.0361 93.2864ZM81.7281 87.1853L83.565 93.9739L84.6219 93.6879L82.785 86.8993L81.7281 87.1853ZM77.2448 87.5898H82.2566V86.4948H77.2448V87.5898ZM84.5707 94.6704L87.496 95.165L87.6786 94.0854L84.7533 93.5908L84.5707 94.6704ZM87.496 95.165L87.6744 95.1952L87.8569 94.1156L87.6786 94.0854L87.496 95.165ZM88.2264 94.9511L88.324 94.7989L87.4026 94.2074L87.3049 94.3596L88.2264 94.9511ZM88.324 94.7989L92.0119 89.0533L91.0904 88.4619L87.4026 94.2074L88.324 94.7989ZM91.3595 89.2704L96.1304 91.0536L96.5137 90.0279L91.7429 88.2448L91.3595 89.2704ZM95.7755 90.509L95.3793 97.3425L96.4724 97.4059L96.8686 90.5724L95.7755 90.509ZM95.3793 97.3425L95.3699 97.5041L96.463 97.5674L96.4724 97.4059L95.3793 97.3425ZM95.6253 97.9994L95.7623 98.0854L96.3447 97.1582L96.2076 97.0721L95.6253 97.9994ZM95.7623 98.0854L98.6177 99.8787L99.2001 98.9514L96.3447 97.1582L95.7623 98.0854ZM98.6177 99.8787L98.7754 99.9777L99.3578 99.0505L99.2001 98.9514L98.6177 99.8787ZM99.391 99.9551L99.541 99.8448L98.8923 98.9627L98.7422 99.0731L99.391 99.9551ZM99.541 99.8448L104.811 95.9684L104.163 95.0863L98.8923 98.9627L99.541 99.8448ZM104.147 95.9564L108.166 99.1415L108.846 98.2834L104.827 95.0983L104.147 95.9564ZM108.008 98.4836L105.243 104.496L106.238 104.953L109.003 98.9412L108.008 98.4836ZM105.243 104.496L105.172 104.649L106.167 105.106L106.238 104.953L105.243 104.496ZM105.242 105.219L105.347 105.351L106.203 104.668L106.098 104.536L105.242 105.219ZM105.347 105.351L107.659 108.248L108.514 107.565L106.203 104.668L105.347 105.351ZM107.659 108.248L107.771 108.389L108.627 107.706L108.514 107.565L107.659 108.248ZM108.344 108.575L108.518 108.527L108.228 107.472L108.054 107.519L108.344 108.575ZM108.518 108.527L114.847 106.789L114.557 105.733L108.228 107.472L108.518 108.527ZM114.236 106.548L116.739 110.612L117.672 110.038L115.168 105.974L114.236 106.548ZM116.8 109.957L112.179 115.046L112.99 115.782L117.611 110.693L116.8 109.957ZM112.179 115.046L112.067 115.17L112.877 115.906L112.99 115.782L112.179 115.046ZM111.96 115.732L112.02 115.889L113.043 115.501L112.984 115.344L111.96 115.732ZM112.02 115.889L113.379 119.476L114.403 119.088L113.043 115.501L112.02 115.889ZM113.379 119.476L113.442 119.641L114.466 119.253L114.403 119.088L113.379 119.476ZM113.92 119.993L114.096 120.004L114.164 118.911L113.988 118.901L113.92 119.993ZM114.096 120.004L120.552 120.405L120.62 119.312L114.164 118.911L114.096 120.004ZM120.051 119.975L121.185 125.215L122.255 124.984L121.121 119.743L120.051 119.975ZM121.486 124.605L115.563 127.409L116.032 128.398L121.954 125.594L121.486 124.605ZM115.563 127.409L115.407 127.483L115.875 128.472L116.032 128.398L115.563 127.409ZM115.094 127.978V128.151H116.189V127.978H115.094ZM115.094 128.151V131.737H116.189V128.151H115.094ZM115.094 131.737V131.911H116.189V131.737H115.094ZM115.407 132.405L115.563 132.48L116.032 131.49L115.875 131.416L115.407 132.405ZM115.563 132.48L121.504 135.292L121.972 134.302L116.032 131.49L115.563 132.48ZM121.195 134.732L120.566 139.965L121.653 140.096L122.282 134.862L121.195 134.732ZM121.076 139.484L114.505 139.884L114.572 140.977L121.142 140.577L121.076 139.484ZM114.505 139.884L114.322 139.895L114.389 140.988L114.572 140.977L114.505 139.884ZM113.838 140.264L113.778 140.437L114.814 140.792L114.873 140.619L113.838 140.264ZM113.778 140.437L112.691 143.61L113.726 143.965L114.814 140.792L113.778 140.437ZM112.691 143.61L112.638 143.763L113.674 144.118L113.726 143.965L112.691 143.61ZM112.751 144.308L112.859 144.428L113.67 143.692L113.561 143.572L112.751 144.308ZM112.859 144.428L117.49 149.529L118.301 148.793L113.67 143.692L112.859 144.428ZM117.41 148.907L115.15 153.237L116.121 153.744L118.381 149.414L117.41 148.907ZM115.768 152.959L109.314 151.356L109.05 152.418L115.504 154.022L115.768 152.959ZM109.314 151.356L109.153 151.316L108.889 152.378L109.05 152.418L109.314 151.356ZM108.61 151.485L108.5 151.609L109.322 152.334L109.432 152.209L108.61 151.485ZM108.5 151.609L106.189 154.23L107.01 154.955L109.322 152.334L108.5 151.609ZM106.189 154.23L106.069 154.367L106.89 155.091L107.01 154.955L106.189 154.23ZM105.986 154.967L106.065 155.13L107.051 154.655L106.972 154.491L105.986 154.967ZM106.065 155.13L109.104 161.43L110.09 160.954L107.051 154.655L106.065 155.13ZM109.228 160.788L105.461 164.227L106.2 165.035L109.966 161.596L109.228 160.788ZM106.144 164.183L100.613 160.308L99.9852 161.205L105.516 165.079L106.144 164.183ZM100.613 160.308L100.47 160.208L99.842 161.105L99.9852 161.205L100.613 160.308ZM99.8815 160.183L99.7304 160.27L100.28 161.218L100.431 161.13L99.8815 160.183ZM99.7304 160.27L96.875 161.926L97.4241 162.873L100.28 161.218L99.7304 160.27ZM96.875 161.926L96.7263 162.012L97.2755 162.959L97.4241 162.873L96.875 161.926ZM96.455 162.527L96.468 162.698L97.5598 162.615L97.5468 162.444L96.455 162.527ZM96.468 162.698L96.9966 169.67L98.0884 169.587L97.5598 162.615L96.468 162.698ZM97.3416 169.119L92.8338 170.898L93.2357 171.916L97.7434 170.138L97.3416 169.119ZM93.481 171.09L89.3901 165.333L88.4976 165.967L92.5885 171.724L93.481 171.09ZM89.3901 165.333L89.2861 165.187L88.3935 165.821L88.4976 165.967L89.3901 165.333ZM88.7266 164.968L88.5509 165.005L88.7773 166.077L88.953 166.039L88.7266 164.968ZM88.5509 165.005L85.2876 165.695L85.514 166.766L88.7773 166.077L88.5509 165.005ZM85.2876 165.695L85.1186 165.731L85.3451 166.802L85.514 166.766L85.2876 165.695ZM84.6997 166.138L84.6591 166.306L85.7235 166.563L85.764 166.395L84.6997 166.138ZM84.6591 166.306L83.0768 172.861L84.1412 173.117L85.7235 166.563L84.6591 166.306ZM83.5958 172.442L78.3214 172.569L78.3478 173.664L83.6222 173.536L83.5958 172.442ZM78.8696 173L77.4219 166.324L76.3518 166.556L77.7995 173.232L78.8696 173ZM77.4219 166.324L77.3855 166.157L76.3154 166.389L76.3518 166.556L77.4219 166.324ZM76.979 165.741L76.8122 165.7L76.5551 166.765L76.7219 166.805L76.979 165.741ZM76.8122 165.7L73.9568 165.01L73.6997 166.075L76.5551 166.765L76.8122 165.7ZM73.9568 165.01L73.7767 164.967L73.5196 166.031L73.6997 166.075L73.9568 165.01ZM73.2019 165.182L73.0946 165.333L73.9871 165.967L74.0944 165.816L73.2019 165.182ZM73.0946 165.333L69.0014 171.093L69.8939 171.727L73.9871 165.967L73.0946 165.333ZM69.6393 170.897L64.8737 169.116L64.4904 170.142L69.256 171.923L69.6393 170.897ZM65.2248 169.701L66.1479 162.744L65.0624 162.6L64.1393 169.557L65.2248 169.701ZM66.1479 162.744L66.1738 162.548L65.0884 162.404L65.0624 162.6L66.1479 162.744ZM65.8708 161.984L65.6933 161.898L65.214 162.882L65.3914 162.969L65.8708 161.984ZM65.6933 161.898L62.2941 160.242L61.8147 161.227L65.214 162.882L65.6933 161.898ZM62.2941 160.242L62.1433 160.169L61.6639 161.154L61.8147 161.227L62.2941 160.242ZM61.5739 160.224L61.44 160.325L62.0994 161.199L62.2333 161.098L61.5739 160.224ZM61.44 160.325L56.2933 164.208L56.9527 165.082L62.0994 161.199L61.44 160.325ZM56.9297 164.191L52.3945 161.124L51.7811 162.031L56.3163 165.098L56.9297 164.191ZM52.5789 161.82L55.6007 155.688L54.6185 155.204L51.5967 161.335L52.5789 161.82ZM55.6007 155.688L55.6823 155.523L54.7001 155.039L54.6185 155.204L55.6007 155.688ZM55.5998 154.916L55.477 154.779L54.6598 155.507L54.7826 155.645L55.5998 154.916ZM55.477 154.779L52.8935 151.882L52.0763 152.611L54.6598 155.507L55.477 154.779ZM52.8935 151.882L52.7747 151.749L51.9575 152.477L52.0763 152.611L52.8935 151.882ZM52.1975 151.592L52.0277 151.647L52.365 152.689L52.5348 152.634L52.1975 151.592ZM52.0277 151.647L45.8526 153.647L46.1899 154.688L52.365 152.689L52.0277 151.647ZM46.5015 153.904L43.9887 149.316L43.0283 149.842L45.5411 154.43L46.5015 153.904ZM43.8984 149.963L48.3785 145.418L47.5987 144.65L43.1186 149.195L43.8984 149.963ZM48.3785 145.418L48.4901 145.305L47.7103 144.536L47.5987 144.65L48.3785 145.418ZM48.6272 144.772L48.5841 144.619L47.5301 144.916L47.5732 145.069L48.6272 144.772ZM48.5841 144.619L47.4963 140.757L46.4424 141.054L47.5301 144.916L48.5841 144.619ZM47.4963 140.757L47.4435 140.569L46.3896 140.866L46.4424 141.054L47.4963 140.757ZM46.9492 140.171L46.7548 140.16L46.6895 141.253L46.8839 141.264L46.9492 140.171ZM46.7548 140.16L40.0316 139.758L39.9664 140.851L46.6895 141.253L46.7548 140.16ZM40.5361 140.199L39.5305 135.098L38.4563 135.31L39.4618 140.411L40.5361 140.199ZM39.2277 135.699L45.1537 132.893L44.6851 131.904L38.7591 134.709L39.2277 135.699ZM45.1537 132.893L45.3103 132.819L44.8417 131.83L44.6851 131.904L45.1537 132.893ZM45.6235 132.324V132.151H44.5285V132.324H45.6235ZM45.6235 132.151V128.703H44.5285V132.151H45.6235ZM45.6235 128.703V128.539H44.5285V128.703H45.6235ZM45.3365 128.058L45.1931 127.98L44.672 128.943L44.8155 129.021L45.3365 128.058ZM45.1931 127.98L39.2386 124.759L38.7176 125.722L44.672 128.943L45.1931 127.98ZM39.5215 125.307L40.1506 120.201L39.0639 120.067L38.4347 125.173L39.5215 125.307ZM39.6399 120.681L46.3469 120.28L46.2816 119.187L39.5746 119.588L39.6399 120.681ZM46.3469 120.28L46.53 120.269L46.4648 119.176L46.2816 119.187L46.3469 120.28ZM47.0153 119.9L47.0748 119.727L46.039 119.372L45.9795 119.545L47.0153 119.9ZM47.0748 119.727L48.1625 116.554L47.1268 116.199L46.039 119.372L47.0748 119.727ZM48.1625 116.554L48.2158 116.399L47.1801 116.044L47.1268 116.199L48.1625 116.554ZM48.0981 115.848L47.9859 115.727L47.1856 116.475L47.2978 116.595L48.0981 115.848ZM47.9859 115.727L43.2308 110.635L42.4306 111.383L47.1856 116.475L47.9859 115.727ZM43.3019 111.288L45.9503 106.81L45.0079 106.252L42.3595 110.73L43.3019 111.288ZM45.3526 107.064L51.547 108.535L51.8 107.469L45.6056 105.998L45.3526 107.064ZM51.547 108.535L51.7133 108.574L51.9663 107.509L51.8 107.469L51.547 108.535ZM52.2628 108.389L52.3713 108.257L51.5252 107.562L51.4168 107.694L52.2628 108.389ZM52.3713 108.257L54.4109 105.774L53.5648 105.079L51.5252 107.562L52.3713 108.257ZM54.4109 105.774L54.5187 105.643L53.6726 104.948L53.5648 105.079L54.4109 105.774ZM54.5949 105.071L54.5252 104.916L53.5267 105.365L53.5964 105.52L54.5949 105.071ZM54.5252 104.916L51.7497 98.748L50.7512 99.1973L53.5267 105.365L54.5252 104.916ZM51.6264 99.3706L55.2675 95.9315L54.5157 95.1355L50.8746 98.5746L51.6264 99.3706ZM54.5825 95.9853L60.2471 99.861L60.8654 98.9573L55.2008 95.0816L54.5825 95.9853ZM60.2471 99.861L60.3864 99.9563L61.0047 99.0527L60.8654 98.9573L60.2471 99.861ZM60.9607 99.9835L61.1084 99.9018L60.5783 98.9437L60.4305 99.0255L60.9607 99.9835ZM61.1084 99.9018L64.0998 98.2465L63.5696 97.2884L60.5783 98.9437L61.1084 99.9018ZM64.0998 98.2465L64.2599 98.1579L63.7297 97.1998L63.5696 97.2884L64.0998 98.2465ZM64.5388 97.617L64.5181 97.4351L63.4302 97.5589L63.4509 97.7407L64.5388 97.617ZM64.5181 97.4351L63.7266 90.4761L62.6387 90.5999L63.4302 97.5589L64.5181 97.4351ZM63.371 91.0521L67.8666 89.4051L67.49 88.377L62.9943 90.0239L63.371 91.0521ZM67.2307 89.2062L71.1889 94.8281L72.0842 94.1977L68.126 88.5758L67.2307 89.2062ZM71.1889 94.8281L71.2868 94.9672L72.1821 94.3368L72.0842 94.1977L71.1889 94.8281ZM71.8189 95.1929L71.987 95.1667L71.8182 94.0848L71.6501 94.1111L71.8189 95.1929ZM71.987 95.1667L75.1697 94.6699L75.0009 93.5881L71.8182 94.0848L71.987 95.1667ZM74.5411 94.0694C74.2588 96.6453 73.8992 98.7815 73.4043 100.749L74.4661 101.016C74.9765 98.9872 75.3434 96.7994 75.6295 94.1887L74.5411 94.0694ZM73.8125 100.349C60.4662 103.418 50.5101 115.57 50.5101 130.082H51.6051C51.6051 116.078 61.2111 104.371 74.0579 101.416L73.8125 100.349ZM50.5101 130.082C50.5101 146.906 63.8947 160.563 80.4272 160.563V159.468C64.519 159.468 51.6051 146.321 51.6051 130.082H50.5101ZM80.4272 160.563C96.9597 160.563 110.344 146.906 110.344 130.082H109.249C109.249 146.321 96.3355 159.468 80.4272 159.468V160.563ZM110.344 130.082C110.344 115.142 99.7922 102.703 85.8521 100.101L85.6512 101.178C99.0681 103.682 109.249 115.665 109.249 130.082H110.344ZM86.2835 100.51C85.819 98.6085 85.4771 96.5421 85.2062 94.0709L84.1178 94.1902C84.3923 96.6947 84.7412 98.8101 85.2198 100.77L86.2835 100.51ZM85.4 100.576C83.7831 100.295 82.1216 100.149 80.4272 100.149V101.244C82.0584 101.244 83.6572 101.385 85.2124 101.655L85.4 100.576ZM80.4272 100.149C78.3146 100.149 76.2532 100.376 74.2656 100.809L74.4985 101.879C76.4101 101.463 78.3934 101.244 80.4272 101.244V100.149ZM73.8524 101.206C73.6965 101.802 73.5275 102.385 73.3438 102.963L74.3872 103.295C74.5768 102.699 74.751 102.097 74.9117 101.482L73.8524 101.206ZM73.3438 102.963C72.4632 105.731 71.2434 108.365 69.4921 111.673L70.4598 112.186C72.2239 108.854 73.478 106.153 74.3872 103.295L73.3438 102.963ZM70.0097 112.476C72.0038 112.352 73.931 112.732 75.5336 113.63L76.0691 112.675C74.2552 111.658 72.1122 111.249 69.9421 111.383L70.0097 112.476ZM75.3238 112.885L75.2856 112.953L76.2407 113.488L76.2789 113.42L75.3238 112.885ZM75.915 113.747C77.349 113.333 78.8624 113.111 80.4272 113.111V112.016C78.7585 112.016 77.1429 112.253 75.6113 112.695L75.915 113.747ZM80.4272 113.111C81.7656 113.111 83.0663 113.273 84.3119 113.579L84.573 112.516C83.2427 112.189 81.8544 112.016 80.4272 112.016V113.111ZM84.9229 112.785L84.8553 112.661L83.8944 113.186L83.962 113.31L84.9229 112.785ZM84.6373 113.404C86.111 112.599 87.9168 112.233 89.8095 112.292L89.8435 111.197C87.7964 111.133 85.7895 111.527 84.1124 112.443L84.6373 113.404ZM85.3599 103.295C86.2565 106.113 87.6294 108.78 89.3431 112.001L90.3098 111.487C88.5917 108.257 87.2657 105.673 86.4033 102.963L85.3599 103.295ZM84.7756 101.251C84.9527 101.946 85.1466 102.624 85.3599 103.295L86.4033 102.963C86.1966 102.313 86.0085 101.656 85.8367 100.981L84.7756 101.251ZM90.9486 111.522C89.1521 108.149 87.7962 105.535 86.925 102.797L85.8816 103.129C86.7878 105.977 88.1924 108.676 89.9822 112.037L90.9486 111.522ZM86.925 102.797C86.7464 102.235 86.5817 101.668 86.4296 101.087L85.3704 101.364C85.5273 101.963 85.6972 102.549 85.8816 103.129L86.925 102.797ZM109.797 130.082C109.797 115.493 99.5589 103.345 86.0053 100.688L85.7947 101.763C98.8303 104.318 108.702 116.013 108.702 130.082H109.797ZM80.4272 160.015C96.6476 160.015 109.797 146.614 109.797 130.082H108.702C108.702 146.029 96.0234 158.92 80.4272 158.92V160.015ZM51.0576 130.082C51.0576 146.614 64.2069 160.015 80.4272 160.015V158.92C64.831 158.92 52.1526 146.029 52.1526 130.082H51.0576ZM73.6507 100.95C60.6966 104.069 51.0576 115.926 51.0576 130.082H52.1526C52.1526 116.431 61.4465 105.015 73.907 102.015L73.6507 100.95ZM73.8655 103.129C74.0231 102.633 74.1701 102.134 74.3074 101.625L73.2503 101.34C73.1172 101.833 72.9748 102.317 72.8221 102.797L73.8655 103.129ZM69.809 112.244C71.6557 108.777 72.9425 106.03 73.8655 103.129L72.8221 102.797C71.9286 105.605 70.6773 108.284 68.8426 111.729L69.809 112.244ZM63.6545 114.625C65.411 113.465 67.4096 112.755 69.3875 112.53L69.264 111.442C67.115 111.686 64.9519 112.456 63.0511 113.712L63.6545 114.625ZM60.344 112.009C61.6257 111.992 62.6899 112.966 62.8077 114.22L63.8979 114.117C63.727 112.3 62.1865 110.89 60.3297 110.914L60.344 112.009ZM57.9311 114.485C57.914 113.135 58.9943 112.027 60.344 112.009L60.3297 110.914C58.3755 110.94 56.8114 112.545 56.8362 114.499L57.9311 114.485ZM58.3311 146.02L57.9311 114.485L56.8362 114.499L57.2363 146.033L58.3311 146.02ZM60.8056 148.431C59.4561 148.449 58.3483 147.369 58.3311 146.02L57.2363 146.033C57.2611 147.988 58.8656 149.551 60.8199 149.526L60.8056 148.431ZM63.2183 146.032C63.1945 147.347 62.1296 148.414 60.8056 148.431L60.8199 149.526C62.7371 149.501 64.2786 147.956 64.313 146.052L63.2183 146.032ZM76.2162 146.671C72.8539 148.507 67.7916 148.038 64.0668 145.585L63.4645 146.499C67.4548 149.128 72.953 149.701 76.7411 147.632L76.2162 146.671ZM75.9869 147.393L75.9982 147.414L76.9591 146.889L76.9478 146.868L75.9869 147.393ZM80.4272 147.053C79.1079 147.053 77.8253 146.896 76.5961 146.598L76.3386 147.663C77.6514 147.98 79.0205 148.148 80.4272 148.148V147.053ZM84.5616 146.522C83.2405 146.869 81.8553 147.053 80.4272 147.053V148.148C81.9501 148.148 83.4287 147.951 84.8397 147.581L84.5616 146.522ZM85.1266 147.414L85.1811 147.314L84.2202 146.789L84.1657 146.889L85.1266 147.414ZM91.0351 147.656C88.7978 147.91 86.6144 147.602 84.9086 146.671L84.3837 147.632C86.3367 148.698 88.7605 149.017 91.1587 148.744L91.0351 147.656ZM97.1529 145.474C95.3373 146.661 93.1709 147.414 91.0351 147.656L91.1587 148.744C93.4558 148.483 95.7865 147.675 97.752 146.391L97.1529 145.474ZM98.0011 146.02L97.9999 145.925L96.905 145.939L96.9062 146.033L98.0011 146.02ZM100.476 148.431C99.126 148.449 98.0182 147.369 98.0011 146.02L96.9062 146.033C96.931 147.988 98.5355 149.551 100.49 149.526L100.476 148.431ZM102.888 145.955C102.906 147.305 101.825 148.413 100.476 148.431L100.49 149.526C102.444 149.5 104.008 147.896 103.983 145.941L102.888 145.955ZM102.488 114.421L102.888 145.955L103.983 145.941L103.583 114.407L102.488 114.421ZM100.014 112.009C101.363 111.991 102.471 113.071 102.488 114.421L103.583 114.407C103.558 112.452 101.954 110.889 99.9996 110.914L100.014 112.009ZM97.6252 114.107C97.7916 112.934 98.793 112.025 100.014 112.009L99.9996 110.914C98.2306 110.937 96.7823 112.254 96.5411 113.953L97.6252 114.107ZM90.4224 112.325C92.6331 112.5 94.8891 113.241 96.7822 114.487L97.3841 113.572C95.3301 112.221 92.8952 111.422 90.5084 111.234L90.4224 112.325ZM80.4272 147.601C89.889 147.601 97.5595 139.758 97.5595 130.082H96.4645C96.4645 139.176 89.2616 146.506 80.4272 146.506V147.601ZM63.2949 130.082C63.2949 139.758 70.9654 147.601 80.4272 147.601V146.506C71.5928 146.506 64.3899 139.176 64.3899 130.082H63.2949ZM80.4272 112.564C70.9654 112.564 63.2949 120.407 63.2949 130.082H64.3899C64.3899 120.989 71.5928 113.659 80.4272 113.659V112.564ZM97.5595 130.082C97.5595 120.407 89.889 112.564 80.4272 112.564V113.659C89.2616 113.659 96.4645 120.989 96.4645 130.082H97.5595ZM75.3701 112.926C71.7399 111.144 66.8188 111.74 63.0574 114.369L63.6846 115.267C67.1778 112.825 71.6752 112.332 74.8876 113.909L75.3701 112.926ZM64.0683 127.274C65.0919 120.982 69.4987 115.865 75.3014 113.937L74.9562 112.898C68.7625 114.956 64.0759 120.408 62.9875 127.098L64.0683 127.274ZM62.8236 114.825L62.9805 127.193L64.0753 127.179L63.9184 114.811L62.8236 114.825ZM97.7429 126.418C96.4059 119.788 91.513 114.479 85.1807 112.677L84.881 113.73C90.8118 115.418 95.4121 120.398 96.6696 126.634L97.7429 126.418ZM96.5068 114.554L96.6588 126.533L97.7537 126.519L97.6017 114.54L96.5068 114.554ZM97.4471 114.941L97.5052 114.857L96.6033 114.236L96.5452 114.321L97.4471 114.941ZM85.2662 113.698C88.4828 112.166 93.2197 112.696 96.6857 115.082L97.3066 114.18C93.574 111.611 88.4224 110.982 84.7955 112.709L85.2662 113.698ZM85.0831 147.373C86.8346 148.195 88.9584 148.443 91.0969 148.2L90.9733 147.112C88.986 147.338 87.0755 147.099 85.5486 146.382L85.0831 147.373ZM96.7515 133.095C95.6415 139.436 91.0905 144.55 85.1567 146.353L85.4751 147.401C91.8098 145.476 96.6499 140.025 97.8301 133.284L96.7515 133.095ZM97.9927 145.36L97.8382 133.183L96.7433 133.197L96.8978 145.374L97.9927 145.36ZM96.9524 145.616L96.9943 145.677L97.8962 145.056L97.8543 144.996L96.9524 145.616ZM91.0969 148.2C93.4164 147.937 95.7711 147.094 97.7138 145.757L97.0929 144.855C95.3067 146.085 93.1248 146.868 90.9733 147.112L91.0969 148.2ZM63.0691 133.53C64.3341 140.218 69.2095 145.597 75.5507 147.452L75.8582 146.401C69.9188 144.663 65.3348 139.617 64.145 133.327L63.0691 133.53ZM64.3087 145.577L64.1545 133.421L63.0597 133.435L63.2139 145.59L64.3087 145.577ZM63.4064 145.134L63.3103 145.273L64.2122 145.894L64.3083 145.754L63.4064 145.134ZM75.477 146.429C72.2623 147.897 67.5932 147.351 64.1678 144.993L63.5469 145.895C67.2376 148.436 72.3133 149.077 75.9319 147.425L75.477 146.429ZM91.5692 130.082C91.5692 136.436 86.5547 141.54 80.4268 141.54V142.635C87.1851 142.635 92.6641 137.015 92.6641 130.082H91.5692ZM80.4268 118.624C86.5547 118.624 91.5692 123.728 91.5692 130.082H92.6641C92.6641 123.149 87.1851 117.53 80.4268 117.53V118.624ZM69.2844 130.082C69.2844 123.728 74.2989 118.624 80.4268 118.624V117.53C73.6685 117.53 68.1895 123.149 68.1895 130.082H69.2844ZM80.4268 141.54C74.2989 141.54 69.2844 136.436 69.2844 130.082H68.1895C68.1895 137.015 73.6685 142.635 80.4268 142.635V141.54ZM92.1167 130.082C92.1167 136.726 86.8699 142.087 80.4268 142.087V143.182C87.5007 143.182 93.2116 137.304 93.2116 130.082H92.1167ZM80.4268 118.077C86.8699 118.077 92.1167 123.439 92.1167 130.082H93.2116C93.2116 122.86 87.5007 116.982 80.4268 116.982V118.077ZM68.7369 130.082C68.7369 123.439 73.9837 118.077 80.4268 118.077V116.982C73.3529 116.982 67.642 122.86 67.642 130.082H68.7369ZM80.4268 142.087C73.9837 142.087 68.7369 136.726 68.7369 130.082H67.642C67.642 137.304 73.3529 143.182 80.4268 143.182V142.087ZM88.8501 130.082C88.8501 134.916 85.05 138.781 80.4271 138.781V139.876C85.6835 139.876 89.945 135.491 89.945 130.082H88.8501ZM80.4271 121.383C85.05 121.383 88.8501 125.248 88.8501 130.082H89.945C89.945 124.673 85.6835 120.288 80.4271 120.288V121.383ZM72.0041 130.082C72.0041 125.248 75.8042 121.383 80.4271 121.383V120.288C75.1708 120.288 70.9092 124.673 70.9092 130.082H72.0041ZM80.4271 138.781C75.8042 138.781 72.0041 134.916 72.0041 130.082H70.9092C70.9092 135.491 75.1708 139.876 80.4271 139.876V138.781ZM89.3976 130.082C89.3976 135.204 85.3667 139.328 80.4271 139.328V140.423C86.0007 140.423 90.4925 135.779 90.4925 130.082H89.3976ZM80.4271 120.836C85.3667 120.836 89.3976 124.961 89.3976 130.082H90.4925C90.4925 124.386 86.0007 119.741 80.4271 119.741V120.836ZM71.4567 130.082C71.4567 124.961 75.4875 120.836 80.4271 120.836V119.741C74.8535 119.741 70.3617 124.386 70.3617 130.082H71.4567ZM80.4271 139.328C75.4875 139.328 71.4567 135.204 71.4567 130.082H70.3617C70.3617 135.779 74.8535 140.423 80.4271 140.423V139.328ZM63.7659 145.949L63.3659 114.414L62.271 114.428L62.6711 145.962L63.7659 145.949ZM60.813 148.979C62.4648 148.957 63.7869 147.6 63.7659 145.949L62.6711 145.962C62.6843 147.01 61.846 147.87 60.7987 147.884L60.813 148.979ZM57.7837 146.026C57.8047 147.678 59.1609 149 60.813 148.979L60.7987 147.884C59.7515 147.897 58.8919 147.06 58.8786 146.012L57.7837 146.026ZM57.3836 114.492L57.7837 146.026L58.8786 146.012L58.4785 114.478L57.3836 114.492ZM60.3366 111.462C58.6847 111.483 57.3627 112.84 57.3836 114.492L58.4785 114.478C58.4652 113.43 59.3036 112.57 60.3509 112.557L60.3366 111.462ZM63.3659 114.414C63.3449 112.762 61.9886 111.44 60.3366 111.462L60.3509 112.557C61.3981 112.543 62.2577 113.381 62.271 114.428L63.3659 114.414ZM101.941 114.428L102.341 145.962L103.436 145.949L103.036 114.414L101.941 114.428ZM100.021 112.557C101.068 112.543 101.928 113.381 101.941 114.428L103.036 114.414C103.015 112.762 101.659 111.44 100.007 111.462L100.021 112.557ZM98.1484 114.478C98.1351 113.43 98.9735 112.57 100.021 112.557L100.007 111.462C98.3547 111.483 97.0326 112.84 97.0536 114.492L98.1484 114.478ZM98.5485 146.012L98.1484 114.478L97.0536 114.492L97.4536 146.026L98.5485 146.012ZM100.469 147.884C99.4214 147.897 98.5618 147.06 98.5485 146.012L97.4536 146.026C97.4746 147.678 98.8309 149 100.483 148.979L100.469 147.884ZM102.341 145.962C102.354 147.01 101.516 147.87 100.469 147.884L100.483 148.979C102.135 148.957 103.457 147.6 103.436 145.949L102.341 145.962Z" fill="white"/>
<path d="M104.071 46.042L103.527 8.27417H54.251V46.042C54.251 46.042 63.7794 34.0061 79.0249 34.0061C95.4955 34.0061 104.071 46.042 104.071 46.042Z" stroke="white" stroke-width="1.09495"/>
<rect x="56.9879" y="1.04577" width="43.7979" height="6.68077" stroke="white" stroke-width="1.09495"/>
<path d="M101.333 3.27539H56.4404V6.05243H101.333V3.27539Z" stroke="white" stroke-width="1.09495"/>
<path d="M84.2251 92.6961C84.2251 92.6961 83.8144 65.4703 83.8145 56.12C83.8145 46.7698 87.2362 40.7196 89.2892 36.0444" stroke="white"/>
<path d="M75.6025 92.6961C75.6025 92.6961 75.6025 65.5419 75.1832 56.1689C74.7639 46.7958 71.1296 40.7309 69.0328 36.0444" stroke="white"/>
<path d="M82.5 118.5L154.767 106.281" stroke="white" stroke-width="1.09495"/>
<path d="M83 121.27L154.5 110.5" stroke="white" stroke-width="1.09495"/>
<path d="M0 20L300 20" stroke="white" stroke-width="1.64242" stroke-dasharray="10 10"/>
<path d="M223.42 63.2595L274.335 63.2595" stroke="white" stroke-width="1.09495" stroke-dasharray="5 5"/>
<path d="M248.469 91.7344L248.194 36.558" stroke="white" stroke-width="1.64242" stroke-dasharray="5 5"/>
<path d="M122.531 99.8192C126.033 106.158 128.666 113.115 130.256 120.501L129.453 120.673C130.582 125.919 131.179 131.384 131.179 137C131.179 142.616 130.582 148.081 129.453 153.327L130.256 153.499C128.666 160.885 126.033 167.842 122.531 174.181L121.813 173.784C116.408 183.568 108.915 191.859 99.9989 197.951L100.462 198.629C94.3754 202.788 87.6309 205.936 80.4337 207.854L80.2223 207.06C75.0278 208.444 69.5943 209.179 64 209.179C58.4057 209.179 52.9721 208.444 47.7777 207.06L47.5662 207.854C40.3691 205.936 33.6246 202.788 27.5378 198.629L28.0011 197.951C19.0852 191.859 11.5921 183.568 6.18745 173.784L5.46862 174.181C1.96705 167.842 -0.666393 160.885 -2.25588 153.499L-1.45305 153.327C-2.58194 148.081 -3.17879 142.616 -3.17879 137C-3.17879 131.384 -2.58194 125.919 -1.45305 120.673L-2.25588 120.501C-0.666394 113.115 1.96705 106.158 5.46861 99.8192L6.18745 100.216C11.5921 90.4319 19.0852 82.1408 28.0011 76.0489L27.5378 75.3708C33.6246 71.2119 40.3691 68.0637 47.5663 66.1462L47.7777 66.9397C52.9722 65.5557 58.4057 64.8212 64 64.8212C69.5943 64.8212 75.0279 65.5557 80.2223 66.9397L80.4338 66.1462C87.6309 68.0637 94.3754 71.2119 100.462 75.3708L99.9989 76.0489C108.915 82.1408 116.408 90.4319 121.813 100.216L122.531 99.8192Z" stroke="white" stroke-width="1.64242" stroke-dasharray="30 20"/>
<path d="M125.82 130.011C125.9 131.111 125.953 132.218 125.98 133.333L125.159 133.352C125.172 133.9 125.179 134.449 125.179 135C125.179 135.551 125.172 136.1 125.159 136.648L125.98 136.667C125.953 137.782 125.9 138.889 125.82 139.989L125.001 139.929C124.922 141.027 124.816 142.117 124.684 143.199L125.499 143.298C125.365 144.404 125.204 145.501 125.018 146.588L124.208 146.449C124.022 147.533 123.81 148.608 123.573 149.672L124.374 149.85C124.132 150.937 123.864 152.012 123.571 153.077L122.779 152.859C122.487 153.918 122.17 154.966 121.828 156.002L122.608 156.259C122.259 157.316 121.886 158.359 121.487 159.39L120.721 159.094C120.326 160.118 119.905 161.129 119.461 162.127L120.212 162.461C119.76 163.476 119.283 164.477 118.783 165.463L118.051 165.092C117.555 166.07 117.035 167.034 116.493 167.982L117.206 168.39C116.654 169.354 116.079 170.302 115.482 171.233L114.79 170.789C114.198 171.713 113.584 172.619 112.948 173.507L113.615 173.985C112.969 174.888 112.3 175.773 111.611 176.639L110.968 176.127C110.285 176.984 109.581 177.823 108.857 178.642L109.472 179.186C108.737 180.017 107.981 180.828 107.205 181.619L106.619 181.043C105.852 181.825 105.065 182.586 104.26 183.325L104.815 183.93C103.997 184.68 103.161 185.408 102.306 186.113L101.784 185.479C100.939 186.176 100.077 186.85 99.1979 187.5L99.686 188.16C98.7944 188.819 97.8855 189.454 96.9601 190.064L96.5081 189.379C95.595 189.981 94.6658 190.558 93.7212 191.11L94.1355 191.819C93.1788 192.378 92.2065 192.911 91.2195 193.417L90.8446 192.687C89.8726 193.185 88.8861 193.658 87.886 194.103L88.2201 194.853C87.2089 195.304 86.184 195.727 85.1462 196.121L84.8542 195.354C83.8345 195.742 82.8022 196.102 81.7582 196.434L82.0068 197.216C80.9532 197.551 79.8877 197.857 78.8112 198.134L78.6068 197.338C77.5516 197.609 76.4857 197.852 75.4098 198.065L75.5692 198.87C74.4861 199.085 73.3931 199.269 72.2909 199.424L72.177 198.611C71.0995 198.762 70.0131 198.883 68.9185 198.974L68.9868 199.793C67.888 199.884 66.7812 199.946 65.6671 199.977L65.6444 199.156C65.098 199.171 64.5499 199.179 64 199.179C63.4501 199.179 62.9019 199.171 62.3556 199.156L62.3328 199.977C61.2187 199.946 60.1119 199.884 59.0132 199.793L59.0815 198.974C57.9869 198.883 56.9005 198.762 55.823 198.611L55.7091 199.424C54.6069 199.269 53.5139 199.085 52.4308 198.87L52.5902 198.065C51.5143 197.852 50.4484 197.609 49.3932 197.338L49.1888 198.134C48.1123 197.857 47.0468 197.551 45.9932 197.216L46.2418 196.434C45.1978 196.102 44.1655 195.742 43.1458 195.354L42.8538 196.121C41.816 195.727 40.7911 195.304 39.7799 194.853L40.114 194.103C39.1139 193.658 38.1274 193.185 37.1554 192.687L36.7805 193.417C35.7935 192.911 34.8212 192.378 33.8645 191.819L34.2788 191.11C33.3342 190.558 32.405 189.981 31.4919 189.379L31.0399 190.064C30.1145 189.454 29.2056 188.819 28.314 188.16L28.8021 187.5C27.9228 186.85 27.0606 186.176 26.2162 185.479L25.6936 186.113C24.8391 185.408 24.0026 184.68 23.1852 183.93L23.7404 183.325C22.935 182.586 22.1482 181.825 21.3808 181.043L20.7947 181.619C20.0191 180.828 19.2632 180.017 18.5277 179.186L19.1429 178.642C18.4188 177.823 17.7148 176.984 17.0318 176.127L16.3895 176.639C15.6999 175.773 15.0314 174.888 14.3848 173.985L15.0525 173.507C14.4165 172.619 13.8019 171.713 13.2096 170.789L12.5184 171.233C11.9211 170.302 11.3462 169.354 10.7945 168.39L11.5073 167.982C10.965 167.034 10.4453 166.07 9.9491 165.092L9.21664 165.463C8.71675 164.477 8.24038 163.476 7.78829 162.461L8.53851 162.126C8.09456 161.129 7.67433 160.118 7.27857 159.094L6.51255 159.39C6.11433 158.359 5.74059 157.316 5.39209 156.259L6.17194 156.002C5.83008 154.966 5.51281 153.918 5.22085 152.859L4.42916 153.077C4.13578 152.012 3.86766 150.937 3.62552 149.85L4.42705 149.672C4.18982 148.608 3.97783 147.533 3.79178 146.449L2.98241 146.588C2.79574 145.501 2.63488 144.404 2.5005 143.298L3.31571 143.199C3.18424 142.117 3.07843 141.027 2.99895 139.929L2.17988 139.989C2.10027 138.889 2.04677 137.782 2.02 136.667L2.84098 136.648C2.82783 136.1 2.82121 135.551 2.82121 135C2.82121 134.449 2.82783 133.9 2.84098 133.352L2.02 133.332C2.04677 132.218 2.10028 131.111 2.17988 130.011L2.99895 130.071C3.07843 128.973 3.18424 127.883 3.31572 126.801L2.5005 126.702C2.63488 125.596 2.79574 124.499 2.98241 123.412L3.79178 123.551C3.97783 122.467 4.18983 121.392 4.42706 120.328L3.62552 120.15C3.86766 119.063 4.13578 117.988 4.42916 116.923L5.22086 117.141C5.51281 116.082 5.83009 115.034 6.17194 113.998L5.39209 113.741C5.74059 112.684 6.11433 111.641 6.51255 110.61L7.27857 110.906C7.67433 109.882 8.09457 108.871 8.53851 107.873L7.7883 107.539C8.24038 106.524 8.71676 105.523 9.21664 104.537L9.9491 104.908C10.4453 103.93 10.965 102.966 11.5073 102.018L10.7945 101.61C11.3462 100.646 11.9211 99.698 12.5184 98.7671L13.2096 99.2106C13.8019 98.2874 14.4165 97.3813 15.0525 96.493L14.3848 96.0149C15.0314 95.1119 15.6999 94.2271 16.3895 93.3614L17.0318 93.873C17.7148 93.0155 18.4188 92.1771 19.1429 91.3585L18.5277 90.8144C19.2632 89.9829 20.0191 89.1716 20.7947 88.3814L21.3808 88.9567C22.1481 88.1749 22.935 87.414 23.7404 86.675L23.1852 86.0699C24.0026 85.3198 24.8391 84.5919 25.6936 83.887L26.2162 84.5205C27.0606 83.824 27.9228 83.1503 28.8021 82.5003L28.314 81.84C29.2056 81.1809 30.1145 80.5459 31.0399 79.9358L31.4919 80.6214C32.405 80.0194 33.3342 79.4421 34.2788 78.8903L33.8645 78.1812C34.8212 77.6223 35.7935 77.0892 36.7805 76.5828L37.1554 77.3134C38.1274 76.8147 39.1139 76.3422 40.114 75.8968L39.7799 75.1466C40.7911 74.6963 41.816 74.2734 42.8538 73.8786L43.1458 74.6462C44.1655 74.2584 45.1978 73.8982 46.2418 73.5665L45.9932 72.7838C47.0468 72.4491 48.1123 72.143 49.1888 71.8664L49.3932 72.6617C50.4484 72.3906 51.5143 72.1481 52.5902 71.9352L52.4308 71.1296C53.5139 70.9153 54.6069 70.7306 55.7091 70.5761L55.823 71.3894C56.9005 71.2384 57.9869 71.1169 59.0815 71.0256L59.0132 70.2072C60.112 70.1155 61.2188 70.0539 62.3329 70.023L62.3556 70.8439C62.902 70.8288 63.4501 70.8212 64 70.8212C64.5499 70.8212 65.0981 70.8288 65.6444 70.8439L65.6672 70.023C66.7813 70.0539 67.8881 70.1155 68.9868 70.2072L68.9185 71.0256C70.0131 71.1169 71.0995 71.2384 72.177 71.3894L72.2909 70.5761C73.3931 70.7306 74.4861 70.9153 75.5692 71.1296L75.4098 71.9352C76.4857 72.1481 77.5516 72.3906 78.6068 72.6617L78.8112 71.8664C79.8877 72.143 80.9532 72.4491 82.0068 72.7838L81.7582 73.5665C82.8022 73.8982 83.8345 74.2584 84.8542 74.6462L85.1462 73.8787C86.184 74.2734 87.2089 74.6963 88.2201 75.1466L87.886 75.8968C88.8861 76.3422 89.8726 76.8147 90.8446 77.3134L91.2195 76.5828C92.2065 77.0892 93.1788 77.6223 94.1355 78.1812L93.7212 78.8903C94.6658 79.4421 95.595 80.0194 96.5081 80.6214L96.9601 79.9358C97.8855 80.5459 98.7944 81.1809 99.686 81.84L99.1979 82.5003C100.077 83.1503 100.939 83.824 101.784 84.5205L102.306 83.887C103.161 84.5919 103.997 85.3198 104.815 86.0699L104.26 86.675C105.065 87.414 105.852 88.1749 106.619 88.9567L107.205 88.3815C107.981 89.1716 108.737 89.9829 109.472 90.8144L108.857 91.3585C109.581 92.1771 110.285 93.0156 110.968 93.873L111.611 93.3614C112.3 94.2271 112.969 95.1119 113.615 96.0149L112.948 96.493C113.584 97.3813 114.198 98.2874 114.79 99.2106L115.482 98.7671C116.079 99.698 116.654 100.646 117.206 101.61L116.493 102.018C117.035 102.966 117.555 103.93 118.051 104.908L118.783 104.537C119.283 105.523 119.76 106.524 120.212 107.539L119.461 107.874C119.905 108.871 120.326 109.882 120.721 110.906L121.487 110.61C121.886 111.641 122.259 112.684 122.608 113.741L121.828 113.998C122.17 115.034 122.487 116.082 122.779 117.141L123.571 116.923C123.864 117.988 124.132 119.063 124.374 120.15L123.573 120.328C123.81 121.392 124.022 122.467 124.208 123.551L125.018 123.412C125.204 124.499 125.365 125.596 125.499 126.702L124.684 126.801C124.816 127.883 124.922 128.973 125.001 130.071L125.82 130.011Z" stroke="white" stroke-width="1.64242" stroke-dasharray="3.28 3.28"/>
</svg>
